<svg width="32" height="32" viewBox="0 0 32 32" fill="none" xmlns="http://www.w3.org/2000/svg">
  <circle cx="16" cy="16" r="16" fill="#113065"/>
  <path d="M16 8C11.6 8 8 11.6 8 16C8 20.4 11.6 24 16 24C20.4 24 24 20.4 24 16C24 11.6 20.4 8 16 8ZM21.2 12.4C22 13.4 22.4 14.6 22.4 16C22.4 16.2 22.4 16.4 22.4 16.6C21.2 16.4 20 16.2 18.8 16.2C18.6 15.6 18.4 15 18.2 14.4C19.6 13.8 20.6 13.2 21.2 12.4ZM16 9.6C17.4 9.6 18.8 10.2 19.8 11C19.2 11.8 18.2 12.4 16.8 13C16 11.6 15.2 10.4 14.4 9.8C14.8 9.6 15.4 9.6 16 9.6ZM12.8 10.4C13.6 11 14.4 12.2 15.2 13.6C13.6 14 12 14.4 10.2 14.4C10.6 12.6 11.6 11.2 12.8 10.4ZM9.6 16C9.6 15.8 9.6 15.6 9.6 15.6C11.6 15.6 13.6 15.2 15.4 14.6C15.6 15 15.8 15.4 16 15.8C14 16.4 12.2 17.6 10.8 19.2C10 18.2 9.6 17.2 9.6 16ZM16 22.4C14.4 22.4 13 21.8 11.8 21C12.8 19.4 14.6 18.2 16.6 17.6C17.2 19.2 17.6 20.8 17.8 22.4C17.2 22.4 16.6 22.4 16 22.4ZM19.2 21.8C19 20.4 18.6 18.8 18.2 17.4C19.4 17.2 20.4 17.4 21.6 17.6C21.2 19.2 20.4 20.8 19.2 21.8Z" fill="white"/>
</svg>
