<svg width="56" height="56" viewBox="0 0 56 56" fill="none" xmlns="http://www.w3.org/2000/svg">
<g clip-path="url(#clip0_39_28)">
<path d="M32.5938 12.1406C32.9046 12.282 33.1296 12.4305 33.3703 12.6719C33.4335 12.7347 33.4966 12.7975 33.5616 12.8622C33.6284 12.9297 33.6952 12.9973 33.764 13.0669C33.8335 13.1365 33.903 13.206 33.9747 13.2777C34.1212 13.4246 34.2674 13.5717 34.4134 13.719C34.6374 13.9451 34.8623 14.1702 35.0874 14.3952C35.2296 14.538 35.3718 14.6808 35.514 14.8237C35.5814 14.8913 35.6489 14.9589 35.7184 15.0285C36.558 15.8775 36.569 16.979 36.6178 18.1305C36.6072 19.7242 35.8807 20.6241 34.7866 21.7237C33.9025 22.5732 32.9916 23.3903 32.0469 24.1719C32.1814 24.5167 32.3153 24.8189 32.5262 25.1234C32.5992 25.2303 32.5992 25.2303 32.6736 25.3393C32.724 25.412 32.7743 25.4847 32.8262 25.5596C33.3594 26.33 33.3594 26.33 33.3594 26.5781C33.6481 26.3255 33.9369 26.0728 34.2344 25.8125C34.6137 26.0022 34.8025 26.1332 35.0948 26.4206C35.1761 26.5002 35.2575 26.5798 35.3413 26.6618C35.4279 26.7478 35.5145 26.8339 35.6037 26.9225C35.6932 27.011 35.7826 27.0994 35.8748 27.1906C36.0635 27.3777 36.2518 27.5651 36.4399 27.7527C36.729 28.0405 37.02 28.3262 37.3112 28.6118C37.4941 28.7937 37.6769 28.9757 37.8596 29.1578C37.9911 29.2862 37.9911 29.2862 38.1254 29.4172C38.205 29.4974 38.2846 29.5777 38.3666 29.6604C38.4374 29.7307 38.5083 29.801 38.5812 29.8734C38.7188 30.0781 38.7188 30.0781 38.7032 30.3039C38.5495 30.6509 38.2717 30.8869 38.001 31.1445C37.9441 31.1999 37.8872 31.2554 37.8286 31.3124C37.6885 31.4486 37.5475 31.5838 37.4062 31.7188C37.5059 31.84 37.6063 31.9607 37.707 32.0811C37.7629 32.1483 37.8187 32.2156 37.8762 32.2849C38.0687 32.491 38.2729 32.6462 38.5 32.8125C40.1154 31.9505 41.7218 31.0763 43.3129 30.17C43.4043 30.1185 43.4957 30.067 43.5898 30.014C43.7729 29.909 43.9541 29.8008 44.1336 29.6898C44.2633 29.6115 44.2633 29.6115 44.3956 29.5317C44.4716 29.4842 44.5475 29.4368 44.6258 29.3879C44.8438 29.3125 44.8438 29.3125 45.0761 29.3953C45.3338 29.5661 45.5364 29.7617 45.7529 29.9824C45.8707 30.1013 45.8707 30.1013 45.9909 30.2225C46.1983 30.4438 46.3952 30.667 46.5916 30.8976C47.1763 31.57 47.8197 32.1865 48.4531 32.8125C49.8515 34.1945 49.8515 34.1945 50.2715 34.6898C50.5671 35.0382 50.8872 35.3475 51.2217 35.6588C51.3233 35.7547 51.425 35.8506 51.5297 35.9493C51.7405 36.1472 51.9533 36.3429 52.168 36.5364C52.8954 37.2321 52.8954 37.2321 53.0003 37.666C52.968 38.2256 52.7476 38.736 52.5615 39.2601C52.259 40.1228 51.9682 40.9672 52.0625 41.8906C52.507 42.7294 53.2261 43.2869 53.9582 43.8683C54.6836 44.4499 54.9366 44.9785 55.0737 45.8832C55.0622 47.0161 54.7643 47.627 54.1406 48.5625C54.7542 49.1761 55.3678 49.7897 56 50.4219C55.7994 50.823 55.6445 51.02 55.3301 51.3242C55.2508 51.4015 55.1716 51.4787 55.09 51.5583C55.0293 51.6164 54.9687 51.6745 54.9062 51.7344C54.5169 51.5713 54.2917 51.3508 54.0099 51.0397C53.9225 50.9466 53.8351 50.8536 53.745 50.7577C53.5629 50.562 53.3826 50.3646 53.2041 50.1655C52.73 49.6437 52.73 49.6437 52.0997 49.3783C51.8279 49.3818 51.5666 49.4061 51.2969 49.4375C50.5227 49.3176 49.9827 48.939 49.4262 48.4064C49.3645 48.3484 49.3027 48.2903 49.2391 48.2304C48.6001 47.6263 47.9765 47.0068 47.3558 46.3839C47.2317 46.2597 47.1076 46.1356 46.9834 46.0115C46.6513 45.6794 46.3195 45.347 45.9878 45.0145C45.6393 44.6653 45.2904 44.3164 44.9416 43.9675C44.2833 43.3088 43.6253 42.6499 42.9674 41.9909C42.2174 41.2397 41.4672 40.4889 40.7169 39.738C39.1755 38.1955 37.6345 36.6526 36.0938 35.1094C36.282 34.6976 36.5304 34.4366 36.8594 34.125C36.6717 33.6183 36.46 33.537 35.9844 33.1406C35.2986 33.8264 34.6128 34.5122 33.9062 35.2188C34.4588 35.8642 34.4588 35.8642 35.04 36.4751C35.1293 36.5645 35.2185 36.6539 35.3105 36.746C35.4063 36.8414 35.5021 36.9368 35.6009 37.0352C35.7044 37.1387 35.808 37.2423 35.9115 37.3458C36.1905 37.6249 36.4699 37.9036 36.7493 38.1823C37.042 38.4743 37.3344 38.7667 37.6269 39.059C38.1798 39.6115 38.733 40.1638 39.2863 40.716C39.9166 41.3451 40.5465 41.9745 41.1765 42.6039C42.4715 43.8977 43.7669 45.1912 45.0625 46.4844C44.8901 46.8465 44.7003 47.1042 44.4199 47.3936C44.3087 47.5114 44.3087 47.5114 44.1952 47.6315C43.9688 47.7969 43.9688 47.7969 43.7338 47.7772C43.4973 47.6725 43.3644 47.5609 43.2031 47.3594C43.2031 47.2872 43.2031 47.215 43.2031 47.1406C43.1309 47.1406 43.0588 47.1406 42.9844 47.1406C42.9844 47.0684 42.9844 46.9963 42.9844 46.9219C42.8761 46.8858 42.7678 46.8497 42.6562 46.8125C42.6562 46.7403 42.6562 46.6681 42.6562 46.5938C42.5841 46.5938 42.5119 46.5938 42.4375 46.5938C42.2598 46.4434 42.2598 46.4434 42.1094 46.2656C42.1094 46.1934 42.1094 46.1213 42.1094 46.0469C42.0372 46.0469 41.965 46.0469 41.8906 46.0469C41.7016 45.869 41.523 45.6874 41.3438 45.5C41.2114 45.3671 41.0787 45.2344 40.9458 45.1021C38.1618 42.318 35.3778 39.534 32.5938 36.75C32.0865 36.9851 31.7874 37.3457 31.4146 37.7562C31.1719 37.9531 31.1719 37.9531 30.9649 37.9354C30.6763 37.8207 30.5217 37.6705 30.3032 37.4498C30.22 37.3666 30.1368 37.2834 30.0511 37.1977C29.9625 37.1073 29.8738 37.017 29.7825 36.9239C29.6908 36.8318 29.5992 36.7397 29.5048 36.6448C29.2121 36.3502 28.9205 36.0545 28.6289 35.7588C28.4307 35.559 28.2325 35.3592 28.0342 35.1596C27.548 34.6697 27.0627 34.179 26.5781 33.6875C26.7853 33.2609 27.034 32.9524 27.3438 32.5938C27.2348 32.557 27.2348 32.557 27.1237 32.5194C26.6957 32.3303 26.3278 32.0778 25.9424 31.8145C25.8287 31.7377 25.8287 31.7377 25.7127 31.6594C25.5269 31.5338 25.3415 31.4076 25.1562 31.2812C24.8037 31.4329 24.6065 31.5997 24.3653 31.8963C24.2979 31.9773 24.2305 32.0583 24.1611 32.1417C24.052 32.2728 24.052 32.2728 23.9407 32.4066C21.0018 35.8112 21.0018 35.8112 19.0393 36.0087C17.4099 36.0733 16.3099 35.6205 15.1086 34.5224C14.3103 33.7532 13.5925 32.9163 12.9062 32.0469C13.0807 31.6157 13.3786 31.3258 13.7036 31.0045C13.7929 30.9148 13.7929 30.9148 13.8841 30.8234C14.084 30.6232 14.2846 30.4238 14.4852 30.2243C14.6286 30.081 14.7719 29.9376 14.9152 29.7942C15.3045 29.4048 15.6945 29.0161 16.0846 28.6276C16.4921 28.2214 16.899 27.8147 17.306 27.408C18.0768 26.6379 18.8481 25.8683 19.6197 25.0989C20.498 24.2231 21.3757 23.3466 22.2534 22.47C24.0589 20.6668 25.8651 18.8644 27.6719 17.0625C28.0449 17.2381 28.2863 17.4349 28.5742 17.7324C28.6515 17.8117 28.7287 17.8909 28.8083 17.9725C28.8955 18.0635 28.8955 18.0635 28.9844 18.1562C28.8124 18.5711 28.5528 18.8335 28.2369 19.1488C28.1827 19.2032 28.1284 19.2576 28.0726 19.3137C27.8909 19.4957 27.7084 19.677 27.5259 19.8583C27.3955 19.9887 27.265 20.1191 27.1347 20.2496C26.7806 20.6038 26.4259 20.9572 26.071 21.3105C25.7003 21.6799 25.3302 22.0499 24.96 22.4198C24.259 23.1202 23.5573 23.82 22.8555 24.5196C22.0565 25.3162 21.2582 26.1133 20.4599 26.9105C18.8177 28.5504 17.1747 30.1895 15.5312 31.8281C15.907 32.6091 16.4193 33.2469 17.1719 33.6875C18.0441 33.974 19.0341 33.9597 19.9062 33.6875C20.8602 33.1295 21.595 32.2731 22.3249 31.4566C22.5918 31.1613 22.867 30.8739 23.1416 30.5857C23.6755 30.0228 24.2 29.4519 24.7188 28.875C25.1961 29.0564 25.5978 29.2984 26.0176 29.5859C26.1621 29.6836 26.3067 29.7813 26.4512 29.879C26.5255 29.9295 26.5998 29.9799 26.6763 30.0319C27.0591 30.291 27.4442 30.5467 27.8291 30.8027C27.968 30.8953 28.1068 30.9879 28.2457 31.0804C28.3451 31.1467 28.4445 31.213 28.5469 31.2812C28.8542 31.1412 29.0778 30.9961 29.3152 30.7565C29.3765 30.6952 29.4377 30.6339 29.5009 30.5708C29.598 30.472 29.598 30.472 29.697 30.3712C29.7644 30.3036 29.8317 30.2359 29.9011 30.1662C30.1156 29.9505 30.3293 29.734 30.543 29.5176C30.6885 29.371 30.834 29.2244 30.9796 29.0779C31.3359 28.7192 31.6916 28.3598 32.0469 28C31.9025 27.6074 31.7288 27.2782 31.4949 26.9319C31.4295 26.8345 31.364 26.737 31.2966 26.6367C31.2284 26.5361 31.1602 26.4356 31.0898 26.332C31.0233 26.2332 30.9567 26.1344 30.8882 26.0325C30.756 25.8362 30.6236 25.64 30.4911 25.444C30.2057 25.0212 29.923 24.5966 29.6406 24.1719C29.7988 23.8004 29.9949 23.5847 30.2959 23.3182C30.3856 23.2376 30.4754 23.157 30.5679 23.074C30.6648 22.9871 30.7618 22.9002 30.8617 22.8107C31.1726 22.5219 31.4822 22.2318 31.7918 21.9417C32.0051 21.7429 32.221 21.5493 32.4398 21.3564C33.9718 20.0098 33.9718 20.0098 34.5355 18.118C34.5321 17.0835 34.4548 16.4037 33.7412 15.6171C33.4155 15.3047 33.0727 15.0245 32.7031 14.7656C32.1084 15.2611 31.5586 15.7875 31.0146 16.3379C30.8946 16.4586 30.8946 16.4586 30.7722 16.5818C30.577 16.7783 30.3821 16.975 30.1875 17.1719C29.8145 16.9963 29.573 16.7994 29.2852 16.502C29.2079 16.4227 29.1306 16.3435 29.051 16.2618C28.9639 16.1709 28.9639 16.1709 28.875 16.0781C29.0222 15.7501 29.1851 15.5224 29.4399 15.2697C29.545 15.1646 29.545 15.1646 29.6522 15.0574C29.7276 14.9831 29.803 14.9088 29.8807 14.8323C29.9581 14.7552 30.0355 14.6781 30.1152 14.5987C30.3621 14.3531 30.6098 14.1082 30.8574 13.8633C31.0251 13.6967 31.1927 13.5301 31.3603 13.3634C31.7709 12.9552 32.1821 12.5477 32.5938 12.1406ZM34.1313 28.5274C34.0383 28.6207 33.9452 28.714 33.8494 28.8101C33.7982 28.8613 33.747 28.9125 33.6942 28.9652C33.5241 29.1354 33.3544 29.306 33.1846 29.4766C33.0671 29.5943 32.9496 29.712 32.832 29.8297C32.5219 30.1402 32.2122 30.451 31.9025 30.7618C31.5868 31.0787 31.2707 31.3953 30.9546 31.7119C30.334 32.3337 29.7138 32.9558 29.0938 33.5781C29.1967 33.6993 29.2998 33.8203 29.4029 33.9413C29.4603 34.0087 29.5177 34.0761 29.5768 34.1456C29.8186 34.4223 30.0764 34.6805 30.3379 34.9385C30.4335 35.0331 30.5291 35.1277 30.6276 35.2252C30.7346 35.3303 30.7346 35.3303 30.8438 35.4375C31.2347 35.2715 31.4845 35.042 31.7827 34.7421C31.8812 34.6436 31.9797 34.5451 32.0812 34.4435C32.1877 34.336 32.2942 34.2283 32.4006 34.1207C32.5103 34.0106 32.62 33.9006 32.7298 33.7906C33.018 33.5016 33.3055 33.2119 33.5929 32.9221C33.8865 32.6263 34.1807 32.3311 34.4749 32.0358C35.0516 31.4567 35.6276 30.877 36.2031 30.2969C36.046 29.969 35.8907 29.7387 35.6319 29.4817C35.564 29.414 35.4961 29.3463 35.4262 29.2766C35.3555 29.2072 35.2848 29.1379 35.2119 29.0664C35.1408 28.9953 35.0697 28.9243 34.9964 28.8511C34.5982 28.3411 34.5982 28.3411 34.1313 28.5274ZM43.8884 31.8704C43.7839 31.9273 43.6793 31.9842 43.5716 32.0428C43.459 32.1051 43.3464 32.1673 43.2305 32.2314C43.1147 32.2949 42.9989 32.3583 42.8795 32.4237C42.0506 32.8791 41.2247 33.3399 40.4004 33.8037C40.2962 33.8622 40.1921 33.9208 40.0848 33.9811C39.5795 34.2673 39.0868 34.5599 38.6094 34.8906C39.1742 35.5738 39.791 36.1978 40.4175 36.824C40.5333 36.9402 40.6491 37.0563 40.7648 37.1725C41.0773 37.4859 41.3901 37.799 41.703 38.112C41.8987 38.3077 42.0942 38.5035 42.2898 38.6993C42.9722 39.3827 43.6549 40.0659 44.3379 40.7488C44.9743 41.3851 45.61 42.022 46.2454 42.6592C46.7918 43.2069 47.3386 43.7543 47.8857 44.3014C48.2122 44.6278 48.5384 44.9544 48.8643 45.2814C49.1703 45.5885 49.4768 45.895 49.7838 46.2011C49.8963 46.3136 50.0087 46.4262 50.1208 46.539C50.2739 46.6929 50.4277 46.846 50.5815 46.9991C50.6673 47.0851 50.7532 47.171 50.8416 47.2595C51.2268 47.6003 51.4186 47.6891 51.9395 47.6807C52.5156 47.5904 52.8531 47.2954 53.1973 46.8262C53.3274 46.3836 53.3432 45.9872 53.1391 45.5687C52.8974 45.224 52.612 44.9508 52.3035 44.6682C52.1793 44.5505 52.0552 44.4326 51.9313 44.3146C51.7373 44.1307 51.5426 43.9479 51.3451 43.7676C50.2709 42.783 50.2709 42.783 50.124 42.2712C50.141 41.9684 50.207 41.7379 50.3125 41.4531C50.356 41.3354 50.3995 41.2176 50.4444 41.0963C50.4926 40.967 50.5409 40.8378 50.5906 40.7046C51.1472 39.2948 51.1472 39.2948 50.9793 37.8494C50.3755 36.9006 49.4396 36.1914 48.571 35.4974C48.2294 35.2146 47.9535 34.9245 47.6732 34.5834C47.2315 34.0657 46.7409 33.5913 46.2608 33.1095C46.0723 32.92 45.8851 32.7293 45.6978 32.5386C45.5778 32.4179 45.4578 32.2973 45.3376 32.1768C45.2541 32.0912 45.2541 32.0912 45.1688 32.0038C44.6851 31.5232 44.4645 31.5549 43.8884 31.8704Z" fill="#113065"/>
<path d="M16.1191 0.758692C17.4738 1.63016 18.3512 2.83418 18.7697 4.40652C18.9812 5.87428 18.9116 7.43844 18.0605 8.69522C18.0112 8.75725 17.9618 8.81929 17.911 8.8832C17.8046 9.08132 17.8046 9.08132 17.8798 9.319C18.1201 9.75917 18.4245 10.1363 18.7373 10.5272C18.8765 10.7036 19.0156 10.8801 19.1547 11.0566C19.2253 11.146 19.296 11.2353 19.3688 11.3274C19.6887 11.7344 20.0027 12.1457 20.3164 12.5575C20.4343 12.7121 20.5522 12.8666 20.6701 13.0211C20.726 13.0943 20.7819 13.1676 20.8395 13.2431C21.0745 13.5506 21.3106 13.8573 21.5468 14.164C21.9779 14.7242 22.4087 15.2846 22.8388 15.8456C22.8978 15.9224 22.9568 15.9991 23.0176 16.0782C23.3756 16.5457 23.7228 17.019 24.0625 17.4999C23.6805 17.8931 23.2961 18.2614 22.8593 18.5937C22.751 18.5937 22.6428 18.5937 22.5312 18.5937C22.3141 18.3363 22.1178 18.0809 21.9228 17.8075C21.8041 17.6451 21.6853 17.4828 21.5665 17.3205C21.478 17.1987 21.478 17.1987 21.3878 17.0746C21.1565 16.7587 20.9183 16.4491 20.6787 16.1396C20.2556 15.5915 19.8343 15.0422 19.414 14.4921C18.9087 13.8309 18.4021 13.1707 17.8943 12.5114C17.6799 12.2326 17.4661 11.9534 17.2526 11.674C17.16 11.5528 17.16 11.5528 17.0655 11.4292C16.9417 11.267 16.818 11.1047 16.6945 10.9422C16.318 10.4475 15.9331 9.96192 15.5286 9.48947C15.4218 9.29678 15.4218 9.29678 15.4329 9.08016C15.5574 8.80028 15.7241 8.63743 15.9414 8.42178C16.7766 7.49943 17.0448 6.5536 16.9992 5.31826C16.8927 4.4026 16.5884 3.73372 15.9687 3.0624C15.9687 2.99022 15.9687 2.91803 15.9687 2.84365C15.9053 2.8132 15.8418 2.78274 15.7764 2.75137C15.4681 2.59234 15.1851 2.40308 14.8963 2.21133C13.9849 1.70536 12.821 1.7264 11.8146 1.92294C11.1622 2.15009 10.6995 2.56332 10.2073 3.03848C9.95166 3.2825 9.68489 3.50162 9.4062 3.71865C9.33994 3.65394 9.27367 3.58922 9.2054 3.52255C8.26834 2.63883 7.26759 1.98081 5.9438 1.96524C4.78384 2.0304 3.77629 2.45164 2.95308 3.28115C2.13452 4.38717 1.97302 5.44171 2.07808 6.78115C2.3133 7.80225 2.97064 8.59272 3.7187 9.29678C3.55635 9.68399 3.3367 9.9045 3.02827 10.1855C2.19121 11.0009 1.84763 11.8766 1.82515 13.0292C1.8227 14.1558 2.18539 15.0347 2.95308 15.8593C3.86219 16.7057 4.83807 17.0352 6.07411 16.9949C7.16151 16.8748 8.03979 16.3916 8.7773 15.5927C8.84046 15.5363 8.90362 15.4799 8.9687 15.4218C9.30781 15.4665 9.52277 15.5924 9.7903 15.799C9.86321 15.855 9.93613 15.9109 10.0113 15.9685C10.0891 16.0295 10.1669 16.0904 10.247 16.1532C10.3287 16.2164 10.4104 16.2797 10.4945 16.3448C11.1562 16.86 11.8045 17.3909 12.4497 17.9265C13.1743 18.5278 13.9133 19.1091 14.6562 19.6874C15.6985 20.5004 16.7288 21.3267 17.7529 22.1624C17.9956 22.3597 18.2397 22.5551 18.4843 22.7499C18.3181 23.3411 17.9075 23.7326 17.5 24.1718C17.0775 23.9882 16.7358 23.712 16.3789 23.4267C16.3121 23.3738 16.2453 23.3209 16.1765 23.2664C15.5985 22.8073 15.0276 22.3397 14.4563 21.8724C13.8567 21.3842 13.2437 20.9154 12.6271 20.449C11.9689 19.9484 11.3299 19.4264 10.6963 18.8951C10.2435 18.5169 9.79102 18.1512 9.29683 17.828C9.01492 17.862 9.01492 17.862 8.74995 18.0468C7.33089 18.8297 5.74898 19.0762 4.16304 18.6825C2.68994 18.1996 1.483 17.2962 0.656202 15.9687C-0.0588745 14.5144 -0.318055 12.7749 0.177686 11.1972C0.382957 10.6766 0.656591 10.2064 0.965528 9.74069C1.12076 9.51118 1.12076 9.51118 1.0937 9.1874C0.94149 8.86001 0.771619 8.54412 0.602369 8.22525C0.247276 7.4709 0.18158 6.80096 0.184522 5.98135C0.182759 5.88442 0.180997 5.78749 0.179181 5.68762C0.178044 4.12837 0.852922 2.7913 1.917 1.67214C3.11562 0.562521 4.61505 0.093403 6.23433 0.109278C7.2889 0.184605 8.30461 0.505091 9.18745 1.09365C9.68125 1.04876 10.1334 0.733495 10.566 0.504694C12.3203 -0.400205 14.4384 -0.202062 16.1191 0.758692Z" fill="#113065"/>
<path d="M7.76568 23.1874C8.45979 23.7989 8.92978 24.5194 8.99872 25.451C9.00399 25.9902 9.00438 26.5089 8.89874 27.039C8.85427 27.3837 8.89344 27.4788 9.07135 27.7675C9.46999 28.5969 9.45053 29.5934 9.17602 30.4596C8.86473 31.1297 8.50519 31.6528 7.87506 32.0468C7.80583 32.0916 7.73661 32.1365 7.66528 32.1826C6.84812 32.6273 5.84698 32.6311 4.95654 32.4121C4.41447 32.1951 4.00181 31.8526 3.57953 31.4546C3.21332 31.1182 2.91755 31.021 2.44049 30.9257C1.43584 30.6809 0.902316 30.2002 0.352965 29.3393C-0.105285 28.5002 -0.152742 27.5384 0.0714095 26.6109C0.461905 25.6506 1.11886 25.0307 2.04187 24.5888C2.29693 24.4999 2.29693 24.4999 2.73443 24.4999C2.75925 24.4232 2.78406 24.3465 2.80963 24.2675C3.20389 23.4039 3.84175 23.0116 4.69635 22.6636C5.74617 22.3355 6.87686 22.5666 7.76568 23.1874ZM4.59381 24.7187C4.23958 25.1355 4.0996 25.6007 4.04693 26.1405C3.97559 26.1367 3.90425 26.1329 3.83075 26.129C3.23373 26.1105 2.80531 26.1176 2.29693 26.4687C1.83764 26.9776 1.71065 27.2923 1.7193 27.9649C1.76703 28.3587 1.92885 28.5812 2.18756 28.8749C2.57451 29.1702 2.90545 29.2844 3.39068 29.3124C3.72409 29.2578 4.04891 29.1814 4.37506 29.0937C4.39113 29.1584 4.40721 29.2231 4.42377 29.2898C4.60868 29.9412 4.79873 30.2432 5.35943 30.6249C5.73941 30.8149 6.14711 30.7846 6.56256 30.7343C7.0419 30.4946 7.34642 30.2512 7.54693 29.7499C7.60717 29.2906 7.60387 28.9015 7.42389 28.4716C7.15738 28.1429 6.86858 27.8548 6.56256 27.5624C6.6795 27.2311 6.79698 26.9953 7.01373 26.7148C7.28167 26.2503 7.30917 25.8992 7.21881 25.3749C6.96989 24.8252 6.64964 24.6058 6.12506 24.3538C5.53748 24.1587 5.07088 24.3846 4.59381 24.7187Z" fill="#113065"/>
<path d="M26.6024 2.02049C27.3269 2.59331 27.7457 3.35556 27.8906 4.26567C27.9923 5.14932 27.7837 5.9745 27.2766 6.70866C26.6549 7.45028 25.9683 7.92828 24.9866 8.02116C23.7677 8.03382 22.9684 7.8475 22.0711 7.00389C21.402 6.24444 21.175 5.37506 21.2187 4.37504C21.3539 3.49565 21.755 2.67805 22.4376 2.09739C23.7335 1.18564 25.278 1.14295 26.6024 2.02049ZM23.2011 3.86234C23.0168 4.30269 22.8955 4.67759 23.0371 5.15006C23.2707 5.67384 23.5273 5.99208 24.0625 6.23442C24.5852 6.32451 24.9427 6.2884 25.416 6.04301C25.8879 5.63851 26.0973 5.36449 26.1538 4.72025C26.1294 4.28446 25.9676 3.95206 25.7031 3.60942C25.3565 3.30478 25.0129 3.1827 24.5546 3.11723C23.9767 3.1998 23.5783 3.39722 23.2011 3.86234Z" fill="#113065"/>
<path d="M12.4588 11.0693C12.7315 11.1729 12.8708 11.2991 13.0764 11.5057C13.1891 11.6177 13.1891 11.6177 13.3041 11.732C13.3854 11.8145 13.4667 11.8969 13.5504 11.9819C13.6369 12.0683 13.7233 12.1547 13.8124 12.2438C14.0985 12.53 14.3833 12.8174 14.6682 13.1049C14.8661 13.3034 15.0641 13.5019 15.2622 13.7003C15.7303 14.1696 16.1977 14.6395 16.6648 15.1099C17.1966 15.6454 17.7293 16.1799 18.2622 16.7144C19.3581 17.8137 20.4528 18.9143 21.5468 20.0156C21.3713 20.3886 21.1744 20.63 20.8769 20.9179C20.7977 20.9952 20.7184 21.0724 20.6368 21.1521C20.5762 21.2101 20.5155 21.2682 20.4531 21.3281C20.12 21.1789 19.8886 21.0103 19.6301 20.7538C19.5557 20.6805 19.4813 20.6072 19.4046 20.5317C19.3242 20.4513 19.2438 20.371 19.161 20.2882C19.0754 20.2035 18.9898 20.1189 18.9016 20.0316C18.6188 19.7514 18.3368 19.4704 18.055 19.1893C17.8591 18.9945 17.6633 18.7996 17.4675 18.6048C17.0573 18.1964 16.6476 17.7876 16.2382 17.3785C15.7645 16.9052 15.2895 16.4334 14.8138 15.9623C14.3562 15.509 13.9002 15.0543 13.4448 14.5989C13.2507 14.4053 13.0561 14.2121 12.8611 14.0194C12.5893 13.7504 12.3192 13.4798 12.0494 13.2087C11.9679 13.1288 11.8864 13.0489 11.8024 12.9666C11.7296 12.8927 11.6567 12.8188 11.5817 12.7426C11.5176 12.6788 11.4536 12.615 11.3876 12.5492C11.2656 12.3593 11.2656 12.3593 11.2888 12.1315C11.4063 11.8455 11.5755 11.6698 11.792 11.4501C11.9047 11.3323 11.9047 11.3323 12.0197 11.2122C12.25 11.0468 12.25 11.0468 12.4588 11.0693Z" fill="#113065"/>
<path d="M46.0469 47.6875C46.508 47.8673 46.8158 48.2085 47.1565 48.5536C47.2227 48.6198 47.289 48.6859 47.3572 48.7541C47.5755 48.9726 47.793 49.1918 48.0105 49.411C48.1619 49.5628 48.3133 49.7145 48.4647 49.8662C48.863 50.2652 49.2605 50.665 49.6579 51.0648C50.0637 51.4728 50.4701 51.8802 50.8765 52.2877C51.6735 53.087 52.4698 53.887 53.2656 54.6875C53.0933 55.0497 52.9034 55.3073 52.623 55.5967C52.5489 55.6752 52.4747 55.7537 52.3983 55.8347C52.1719 56 52.1719 56 51.9584 55.9724C51.5843 55.8358 51.3363 55.5399 51.0605 55.2627C50.9609 55.1645 50.9609 55.1645 50.8593 55.0643C50.6402 54.8477 50.4222 54.6299 50.2044 54.4119C50.0528 54.2611 49.9011 54.1102 49.7494 53.9594C49.4317 53.6432 49.1147 53.3264 48.7981 53.0091C48.3916 52.602 47.983 52.1968 47.574 51.7921C47.2603 51.4813 46.9479 51.1692 46.6358 50.8567C46.4857 50.7068 46.3351 50.5572 46.184 50.4081C45.9735 50.2 45.7647 49.9902 45.5563 49.7798C45.4931 49.7181 45.43 49.6565 45.365 49.5929C45.1945 49.4187 45.1945 49.4187 44.9531 49.1094C44.9572 48.7623 45.0564 48.6788 45.2885 48.4138C45.3786 48.3275 45.4687 48.2412 45.5615 48.1523C45.6519 48.0649 45.7423 47.9775 45.8354 47.8875C45.9052 47.8215 45.975 47.7555 46.0469 47.6875Z" fill="#113065"/>
<path d="M22.5324 9.7594C22.9126 9.90665 23.0835 10.2788 23.2969 10.6093C23.4038 10.77 23.5109 10.9307 23.6182 11.0912C23.6733 11.1744 23.7284 11.2576 23.7852 11.3433C24.0525 11.7419 24.331 12.1324 24.6094 12.5234C25.2383 13.4104 25.8551 14.3055 26.4688 15.2031C26.1334 15.5574 25.8282 15.8315 25.3955 16.0575C25.3091 16.1034 25.2227 16.1492 25.1336 16.1964C25.0689 16.2295 25.0042 16.2627 24.9375 16.2968C24.8684 16.1959 24.7993 16.0949 24.7281 15.9909C24.1433 15.1376 23.5548 14.2871 22.9619 13.4394C22.8977 13.3473 22.8334 13.2552 22.7672 13.1603C22.4689 12.7339 22.1685 12.3097 21.8588 11.8915C21.8069 11.8209 21.755 11.7504 21.7016 11.6777C21.6056 11.5477 21.5087 11.4185 21.4108 11.2901C21.2841 11.1182 21.2841 11.1182 21.1094 10.8281C21.2451 10.421 21.399 10.335 21.7451 10.0898C21.8406 10.0204 21.936 9.95104 22.0344 9.87957C22.3125 9.7343 22.3125 9.7343 22.5324 9.7594Z" fill="#113065"/>
<path d="M11.1562 21.6562C11.4976 21.7228 11.719 21.8315 11.9979 22.0374C12.0753 22.0939 12.1527 22.1504 12.2324 22.2087C12.3149 22.27 12.3974 22.3314 12.4824 22.3945C12.6587 22.5237 12.835 22.6529 13.0114 22.782C13.102 22.8488 13.1926 22.9155 13.286 22.9843C13.7319 23.3119 14.1804 23.6359 14.6289 23.96C14.7499 24.0478 14.7499 24.0478 14.8733 24.1374C15.3055 24.4503 15.7413 24.7543 16.1875 25.0469C16.0181 25.413 15.8057 25.7301 15.5723 26.0586C15.5032 26.1562 15.4341 26.2537 15.3629 26.3542C15.2838 26.4651 15.2838 26.4651 15.2031 26.5781C14.5867 26.2442 14.0337 25.8572 13.4736 25.4365C12.916 25.0196 12.3578 24.6055 11.786 24.2082C11.6498 24.1128 11.6498 24.1128 11.5108 24.0155C11.3364 23.8938 11.1612 23.7732 10.9852 23.6539C10.907 23.5989 10.8288 23.544 10.7482 23.4874C10.679 23.4399 10.6097 23.3924 10.5384 23.3434C10.3906 23.1875 10.3906 23.1875 10.3906 22.75C10.5581 22.468 10.5581 22.468 10.7734 22.1758C10.8445 22.0782 10.9156 21.9806 10.9888 21.8801C11.044 21.8062 11.0993 21.7324 11.1562 21.6562Z" fill="#113065"/>
<path d="M8.53125 8.85938C8.90881 9.02095 9.14918 9.2354 9.43359 9.5293C9.51086 9.60853 9.58812 9.68777 9.66772 9.76941C9.75486 9.86035 9.75486 9.86035 9.84375 9.95312C9.68218 10.3307 9.46773 10.5711 9.17383 10.8555C9.09459 10.9327 9.01535 11.01 8.93372 11.0896C8.87309 11.1477 8.81246 11.2058 8.75 11.2656C8.37244 11.1041 8.13207 10.8896 7.84766 10.5957C7.77039 10.5165 7.69313 10.4372 7.61353 10.3556C7.55544 10.295 7.49735 10.2343 7.4375 10.1719C7.59907 9.79431 7.81352 9.55395 8.10742 9.26953C8.18666 9.19227 8.2659 9.115 8.34753 9.0354C8.40816 8.97731 8.46879 8.91922 8.53125 8.85938Z" fill="#113065"/>
<path d="M10.8281 6.5625C11.2057 6.72407 11.4461 6.93852 11.7305 7.23242C11.8077 7.31166 11.885 7.3909 11.9646 7.47253C12.0517 7.56347 12.0517 7.56347 12.1406 7.65625C11.9791 8.03381 11.7646 8.27418 11.4707 8.55859C11.3915 8.63586 11.3122 8.71312 11.2306 8.79272C11.17 8.85081 11.1093 8.9089 11.0469 8.96875C10.6693 8.80718 10.4289 8.59273 10.1445 8.29883C10.0673 8.21959 9.99 8.14035 9.9104 8.05872C9.85231 7.99809 9.79422 7.93746 9.73438 7.875C9.89595 7.49744 10.1104 7.25707 10.4043 6.97266C10.4835 6.89539 10.5628 6.81813 10.6444 6.73853C10.705 6.68044 10.7657 6.62235 10.8281 6.5625Z" fill="#113065"/>
</g>
<defs>
<clipPath id="clip0_39_28">
<rect width="56" height="56" fill="white"/>
</clipPath>
</defs>
</svg>
