<svg width="56" height="56" viewBox="0 0 56 56" fill="none" xmlns="http://www.w3.org/2000/svg">
<path d="M14.597 1.07607C14.7138 1.07502 14.8307 1.07397 14.9511 1.07288C15.0764 1.07242 15.2018 1.07195 15.3309 1.07148C15.461 1.07085 15.5912 1.07023 15.7253 1.06959C16.0007 1.06855 16.276 1.06784 16.5513 1.06742C16.9702 1.06636 17.389 1.06296 17.8079 1.05951C18.0759 1.0588 18.344 1.05822 18.6121 1.0578C18.7364 1.05645 18.8606 1.0551 18.9886 1.05371C20.2812 1.05729 21.3383 1.36054 22.2894 2.26392C23.0137 3.05772 23.2027 3.91659 23.2069 4.97229C23.2076 5.05258 23.2083 5.13287 23.2091 5.21559C23.2112 5.48026 23.2125 5.74491 23.2136 6.00959C23.214 6.1005 23.2145 6.19141 23.2149 6.28508C23.2172 6.76657 23.2188 7.24807 23.2198 7.72957C23.221 8.22419 23.2248 8.71876 23.2291 9.21336C23.232 9.59603 23.2329 9.97869 23.2333 10.3614C23.2338 10.5435 23.2351 10.7257 23.2371 10.9079C23.251 12.2254 23.152 13.3991 22.2865 14.4609C21.659 15.0967 21.1099 15.3123 20.2344 15.5312C20.2344 16.1809 20.2344 16.8306 20.2344 17.4999C20.4586 17.4949 20.6827 17.4898 20.9137 17.4846C21.1345 17.4815 21.3554 17.4785 21.5762 17.4759C21.7279 17.4737 21.8796 17.4708 22.0312 17.4669C23.2461 17.4371 24.2531 17.5389 25.1905 18.3818C25.897 19.055 26.2281 19.824 26.3594 20.7812C26.3643 21.0275 26.3632 21.274 26.3576 21.5203C26.3547 21.6673 26.3519 21.8142 26.3492 21.9611C26.3468 22.0769 26.3468 22.0769 26.3444 22.1949C26.3355 22.6983 26.3343 23.2017 26.3318 23.7052C26.3292 24.1439 26.324 24.5823 26.3125 25.0209C26.2574 27.2325 26.3395 28.8137 27.8068 30.5997C28.1206 30.9959 28.3791 31.4249 28.6426 31.8554C28.6886 31.9276 28.7345 31.9997 28.7819 32.0741C29.0938 32.5675 29.0938 32.5675 29.0938 32.8124C29.2139 32.8266 29.2139 32.8266 29.3364 32.8411C30.235 32.9577 31.1238 33.1164 32.0127 33.291C32.129 33.3125 32.2453 33.334 32.3652 33.3562C32.4749 33.3784 32.5846 33.4006 32.6976 33.4234C32.8454 33.4522 32.8454 33.4522 32.9961 33.4817C33.3113 33.6013 33.4128 33.7249 33.5781 34.0156C33.6323 34.449 33.65 34.6801 33.3936 35.041C33.0108 35.3099 32.7137 35.3413 32.2506 35.2903C32.1251 35.2668 31.9997 35.2433 31.8704 35.2191C31.6658 35.1816 31.6658 35.1816 31.4571 35.1433C31.3156 35.1163 31.1741 35.0893 31.0283 35.0615C30.8833 35.0345 30.7383 35.0077 30.5932 34.9809C30.239 34.9152 29.8851 34.8486 29.5313 34.7812C29.5342 34.9201 29.5372 35.0589 29.5402 35.202C29.547 35.5178 29.5414 35.6374 29.3877 35.9228C29.0539 36.2318 28.7253 36.2161 28.2927 36.2137C28.1802 36.2134 28.0678 36.213 27.952 36.2127C27.8347 36.2118 27.7175 36.2108 27.5967 36.2099C27.4782 36.2094 27.3597 36.2089 27.2376 36.2084C26.9449 36.2071 26.6521 36.2053 26.3594 36.2031C26.3611 36.279 26.3628 36.355 26.3646 36.4332C26.3715 36.7849 26.3757 37.1365 26.3799 37.4882C26.3827 37.6076 26.3854 37.7271 26.3882 37.8501C26.3992 39.0871 26.2505 40.2018 25.375 41.1249C25.3188 41.1856 25.2625 41.2462 25.2045 41.3087C24.3516 42.1309 23.3763 42.2561 22.2373 42.246C21.9012 42.237 21.5651 42.228 21.2188 42.2187C21.2188 43.5181 21.2188 44.8174 21.2188 46.1562C21.5368 46.1472 21.8549 46.1381 22.1826 46.1288C23.0331 46.1209 23.7364 46.1865 24.5 46.5937C24.5872 46.6401 24.6743 46.6865 24.7641 46.7343C25.766 47.3358 26.3475 48.2238 26.6875 49.3281C26.8666 50.1197 26.8497 50.7919 26.4688 51.5156C26.0856 51.9815 25.6477 52.3485 25.0281 52.4167C24.7647 52.4228 24.5035 52.4193 24.2403 52.4111C24.1493 52.4096 24.0584 52.4081 23.9647 52.4066C23.7421 52.4028 23.5195 52.3969 23.2969 52.3906C23.2984 52.4575 23.2999 52.5244 23.3015 52.5934C23.3032 52.7256 23.3032 52.7256 23.305 52.8605C23.3065 52.9478 23.308 53.035 23.3096 53.1249C23.284 53.6283 23.0383 53.9457 22.7295 54.3251C22.1219 54.8247 21.4684 54.9556 20.6901 54.9487C20.6094 54.9492 20.5287 54.9498 20.4456 54.9504C20.1816 54.9518 19.9177 54.9509 19.6538 54.9498C19.4686 54.95 19.2833 54.9503 19.0981 54.9507C18.711 54.9512 18.3239 54.9505 17.9367 54.949C17.4427 54.9471 16.9488 54.9482 16.4548 54.9501C16.0726 54.9513 15.6904 54.951 15.3082 54.9501C15.1261 54.9499 14.9441 54.9501 14.7621 54.9509C12.4471 54.9585 12.4471 54.9585 11.5322 54.1051C10.9209 53.3924 10.9214 52.4823 10.9251 51.5934C10.9251 51.492 10.9251 51.3906 10.9251 51.2861C10.9251 50.9517 10.926 50.6173 10.9268 50.283C10.927 50.0508 10.9272 49.8186 10.9273 49.5864C10.9277 48.976 10.9288 48.3655 10.93 47.7551C10.9311 47.1319 10.9316 46.5087 10.9322 45.8855C10.9334 44.6632 10.9352 43.441 10.9375 42.2187C10.8363 42.1973 10.8363 42.1973 10.733 42.1754C10.6445 42.1563 10.5559 42.1372 10.4646 42.1175C10.3768 42.0987 10.289 42.0799 10.1986 42.0605C9.36249 41.8542 8.764 41.3051 8.25484 40.637C7.81718 39.8824 7.7185 39.2499 7.7336 38.394C7.73407 38.2933 7.73453 38.1925 7.73501 38.0888C7.73683 37.7701 7.74095 37.4514 7.74514 37.1328C7.74679 36.9154 7.74828 36.6981 7.74963 36.4808C7.75322 35.9507 7.75888 35.4206 7.76565 34.8906C7.66478 34.8923 7.56391 34.894 7.45998 34.8958C7.08143 34.9014 6.70293 34.9055 6.32436 34.9086C6.16132 34.9102 5.99829 34.9125 5.83527 34.9153C4.39714 34.9399 3.38284 34.8111 2.2969 33.7968C1.16678 32.6541 1.13846 31.0947 1.14654 29.584C1.14594 29.3953 1.14516 29.2067 1.14421 29.0181C1.14223 28.5098 1.14299 28.0016 1.14438 27.4934C1.1455 26.9591 1.14446 26.4247 1.14377 25.8904C1.14298 24.9935 1.14402 24.0965 1.14611 23.1996C1.14849 22.1657 1.14772 21.1318 1.14531 20.0979C1.14332 19.2069 1.14305 18.3159 1.14419 17.4248C1.14487 16.8941 1.14497 16.3634 1.14352 15.8327C1.14225 15.3335 1.14315 14.8344 1.14566 14.3352C1.14623 14.1531 1.14608 13.971 1.14511 13.7889C1.13841 12.4076 1.23603 11.0491 2.17428 9.95349C3.30538 8.88488 4.36683 8.71628 5.86141 8.72858C6.00356 8.72889 6.14571 8.7292 6.29217 8.72952C6.66779 8.73035 7.0434 8.73249 7.41902 8.73492C7.80322 8.73717 8.18743 8.73816 8.57165 8.73926C9.32382 8.7416 10.076 8.74533 10.8281 8.74994C10.827 8.62257 10.8259 8.49519 10.8247 8.36395C10.8207 7.88758 10.8182 7.4112 10.8161 6.93481C10.815 6.72934 10.8135 6.52387 10.8116 6.3184C10.809 6.02163 10.8077 5.72488 10.8068 5.4281C10.8057 5.33749 10.8045 5.24687 10.8034 5.15351C10.8032 4.06668 11.0282 3.1656 11.7031 2.29682C12.534 1.49165 13.4373 1.08453 14.597 1.07607ZM12.9815 3.67768C12.6764 4.10699 12.6702 4.41938 12.6682 4.93194C12.6674 5.01182 12.6667 5.09169 12.666 5.17399C12.6638 5.43899 12.6625 5.70399 12.6615 5.969C12.661 6.05955 12.6606 6.1501 12.6601 6.2434C12.6578 6.72297 12.6563 7.20254 12.6552 7.68212C12.654 8.17667 12.6503 8.67117 12.6459 9.1657C12.6431 9.54657 12.6421 9.92743 12.6418 10.3083C12.6412 10.4905 12.64 10.6728 12.6379 10.855C12.6352 11.1108 12.6354 11.3664 12.6361 11.6222C12.6347 11.6968 12.6333 11.7714 12.6319 11.8483C12.6382 12.435 12.8019 12.7614 13.125 13.2343C13.6409 13.6344 14.0286 13.7933 14.6749 13.8023C14.7903 13.804 14.9057 13.8058 15.0246 13.8076C15.5529 13.8125 16.0812 13.817 16.6095 13.8195C16.8878 13.8213 17.166 13.8243 17.4442 13.8285C17.8461 13.8345 18.2478 13.8368 18.6497 13.8384C18.7734 13.8409 18.897 13.8434 19.0244 13.846C19.7826 13.8439 20.3127 13.7471 20.8906 13.2343C21.3167 12.6991 21.4543 12.294 21.4444 11.621C21.4434 11.5336 21.4424 11.4462 21.4414 11.3561C21.4401 11.2902 21.4388 11.2242 21.4375 11.1562C21.3492 11.1558 21.2608 11.1554 21.1698 11.155C20.3378 11.1508 19.5057 11.1446 18.6737 11.1361C18.2459 11.1318 17.8181 11.1282 17.3904 11.1266C16.9776 11.1249 16.5649 11.1211 16.1521 11.1159C15.9946 11.1143 15.837 11.1134 15.6795 11.1133C15.459 11.1131 15.2385 11.1099 15.018 11.1065C14.8924 11.1056 14.7669 11.1046 14.6375 11.1036C14.3281 11.0468 14.3281 11.0468 14.1237 10.8552C13.9875 10.5843 13.9579 10.4165 13.9558 10.1148C13.9544 10.0177 13.9531 9.92059 13.9516 9.82055C13.9519 9.71652 13.9523 9.61249 13.9526 9.50531C13.952 9.39772 13.9515 9.29013 13.9509 9.17928C13.9502 8.95202 13.9503 8.72475 13.9512 8.49749C13.9522 8.14962 13.949 7.80195 13.9455 7.4541C13.9454 7.23322 13.9454 7.01233 13.9458 6.79145C13.9439 6.6354 13.9439 6.6354 13.942 6.4762C13.9431 6.37911 13.9441 6.28202 13.9451 6.18198C13.9452 6.09683 13.9452 6.01169 13.9452 5.92396C14.0242 5.58292 14.158 5.457 14.4375 5.24994C14.7559 5.19318 14.7559 5.19318 15.1298 5.19023C15.2699 5.18808 15.41 5.18592 15.5543 5.1837C15.7067 5.18352 15.8591 5.18338 16.0115 5.18329C16.1678 5.18165 16.3241 5.17982 16.4804 5.17781C16.8911 5.17304 17.3018 5.17085 17.7125 5.1692C18.1319 5.16706 18.5512 5.16247 18.9706 5.15808C19.7929 5.14985 20.6152 5.14435 21.4375 5.14057C21.4226 4.98271 21.4069 4.82493 21.391 4.66718C21.3823 4.57931 21.3737 4.49143 21.3648 4.4009C21.2684 3.75678 20.8316 3.43612 20.3438 3.06244C20.0614 2.92127 19.8545 2.93685 19.5383 2.93371C19.4156 2.9323 19.2929 2.9309 19.1665 2.92945C19.0334 2.92865 18.9002 2.92784 18.763 2.927C18.6264 2.92612 18.4899 2.92524 18.3493 2.92433C18.0598 2.92281 17.7704 2.92161 17.481 2.92078C17.1112 2.91957 16.7415 2.91582 16.3718 2.91147C16.0181 2.90791 15.6645 2.90743 15.3108 2.9065C15.1785 2.90458 15.0462 2.90267 14.9099 2.90069C14.0068 2.90302 13.5881 2.98909 12.9815 3.67768ZM15.6406 6.89057C15.6406 7.72072 15.6406 8.55088 15.6406 9.40619C17.5536 9.40619 19.4666 9.40619 21.4375 9.40619C21.4375 8.57604 21.4375 7.74588 21.4375 6.89057C19.5246 6.89057 17.6116 6.89057 15.6406 6.89057ZM3.39065 11.3749C3.08188 11.8809 3.02137 12.2601 3.02086 12.849C3.02034 12.929 3.01983 13.009 3.0193 13.0915C3.018 13.3585 3.01903 13.6255 3.02006 13.8925C3.01962 14.0844 3.01904 14.2763 3.01832 14.4682C3.01683 14.9887 3.01741 15.5091 3.01845 16.0295C3.01928 16.5744 3.01851 17.1193 3.01799 17.6642C3.01739 18.5793 3.01818 19.4943 3.01974 20.4093C3.02153 21.4669 3.02095 22.5244 3.01914 23.582C3.01766 24.4904 3.01745 25.3987 3.0183 26.3071C3.01882 26.8495 3.01888 27.3918 3.0178 27.9342C3.01685 28.4441 3.01751 28.954 3.01941 29.464C3.01984 29.651 3.01972 29.838 3.01899 30.0251C3.01809 30.2806 3.01922 30.536 3.02086 30.7916C3.02098 30.9345 3.0211 31.0774 3.02123 31.2246C3.08438 31.813 3.30346 32.2452 3.75979 32.621C3.82154 32.6735 3.8833 32.7259 3.94692 32.78C4.43053 33.1076 4.8483 33.1672 5.42647 33.1619C5.56288 33.1612 5.69929 33.1605 5.83984 33.1598C5.98132 33.158 6.1228 33.1561 6.26858 33.1542C6.41218 33.1533 6.55578 33.1523 6.70373 33.1512C7.05772 33.1487 7.41167 33.1451 7.76565 33.1406C7.76581 33.0751 7.76597 33.0096 7.76613 32.9421C7.77019 31.3443 7.77666 29.7466 7.78576 28.1489C7.79011 27.3763 7.79365 26.6036 7.79529 25.831C7.79687 25.0849 7.80072 24.3389 7.80593 23.5928C7.80755 23.3086 7.80842 23.0244 7.80851 22.7401C7.80877 22.3411 7.81173 21.9422 7.81531 21.5432C7.81449 21.3681 7.81449 21.3681 7.81365 21.1894C7.82765 20.176 8.07904 19.2956 8.78249 18.5424C9.51671 17.8823 10.2954 17.5893 11.2819 17.564C11.3538 17.5619 11.4257 17.5598 11.4998 17.5576C11.7271 17.5511 11.9543 17.546 12.1817 17.541C12.3368 17.5368 12.4918 17.5325 12.6469 17.5281C13.025 17.5175 13.4031 17.5088 13.7813 17.4999C13.7813 16.8503 13.7813 16.2006 13.7813 15.5312C13.4294 15.3722 13.4294 15.3722 13.0703 15.2099C12.0975 14.7354 11.4769 14.1691 11.1084 13.1249C10.9569 12.5401 10.8998 11.9819 10.8722 11.3818C10.8655 11.2539 10.8655 11.2539 10.8587 11.1235C10.8479 10.9157 10.838 10.7078 10.8281 10.4999C9.98546 10.4916 9.14278 10.4859 8.30005 10.4819C8.01351 10.4803 7.72697 10.478 7.44043 10.4752C7.02802 10.4712 6.61564 10.4693 6.20321 10.4679C6.07557 10.4662 5.94794 10.4645 5.81644 10.4628C4.78683 10.4626 4.15036 10.6325 3.39065 11.3749ZM15.5313 15.5312C15.5313 16.1809 15.5313 16.8306 15.5313 17.4999C16.5058 17.4999 17.4803 17.4999 18.4844 17.4999C18.4844 16.8503 18.4844 16.2006 18.4844 15.5312C17.5099 15.5312 16.5353 15.5312 15.5313 15.5312ZM9.91897 19.9609C9.83839 20.0573 9.83839 20.0573 9.75619 20.1557C9.4974 20.5266 9.50211 20.8594 9.50249 21.2967C9.50234 21.427 9.50219 21.5572 9.50204 21.6913C9.50243 21.8344 9.50282 21.9774 9.50323 22.1247C9.50326 22.2767 9.50324 22.4287 9.50318 22.5807C9.50315 22.9935 9.50379 23.4064 9.50456 23.8192C9.50524 24.2506 9.50531 24.6819 9.50543 25.1133C9.50578 25.9302 9.50667 26.7471 9.50777 27.5641C9.50922 28.6679 9.50981 29.7718 9.51045 30.8756C9.51148 32.615 9.51366 34.3543 9.51565 36.0937C14.4605 36.0937 19.4053 36.0937 24.5 36.0937C24.5 35.3357 24.5 34.5778 24.5 33.7968C24.309 33.7586 24.1179 33.7204 23.9211 33.681C21.7656 33.2499 21.7656 33.2499 21.4775 33.1875C21.1342 33.1252 20.8012 33.1337 20.4531 33.1406C20.4241 33.2261 20.3951 33.3117 20.3651 33.3999C20.3265 33.5106 20.2879 33.6213 20.2481 33.7353C20.21 33.8457 20.1719 33.9561 20.1327 34.0698C20.0156 34.3437 20.0156 34.3437 19.7969 34.4531C17.7148 34.6055 15.7452 33.2456 14.0954 32.1427C13.7899 31.9431 13.4802 31.7552 13.1656 31.5704C13.0697 31.5133 12.9738 31.4562 12.875 31.3973C12.6968 31.2915 12.5176 31.1874 12.3373 31.0852C12.2582 31.0372 12.179 30.9892 12.0975 30.9398C11.9945 30.8799 11.9945 30.8799 11.8895 30.8187C11.3231 30.2298 11.2032 29.1388 11.008 28.3716C10.9745 28.2409 10.941 28.1102 10.9064 27.9755C10.8361 27.7003 10.7659 27.4251 10.696 27.1498C10.589 26.7289 10.4806 26.3082 10.3721 25.8876C10.3037 25.6196 10.2354 25.3516 10.1672 25.0836C10.1347 24.9581 10.1023 24.8327 10.0688 24.7034C10.0392 24.5858 10.0096 24.4683 9.97913 24.3471C9.95292 24.2444 9.9267 24.1416 9.8997 24.0357C9.81495 23.579 9.7533 23.2156 10.0147 22.8183C10.3755 22.5778 10.6213 22.6019 11.0469 22.6406C11.1552 22.6767 11.2635 22.7128 11.375 22.7499C11.4599 23.0143 11.5217 23.2625 11.5763 23.5335C11.6135 23.7042 11.651 23.8748 11.6886 24.0455C11.7183 24.1826 11.7183 24.1826 11.7487 24.3226C11.9291 25.1327 12.1383 25.9364 12.3415 26.741C12.3951 26.954 12.4482 27.1672 12.5009 27.3804C12.5781 27.6929 12.6568 28.005 12.7358 28.317C12.7591 28.4123 12.7823 28.5077 12.8063 28.6059C12.8289 28.694 12.8516 28.7822 12.8749 28.873C12.8942 28.9502 12.9135 29.0274 12.9335 29.1069C13.1117 29.5527 13.5029 29.7529 13.8992 29.9922C14.0082 30.0582 14.1172 30.1243 14.2295 30.1924C14.3432 30.2607 14.457 30.329 14.5742 30.3994C14.7424 30.5012 14.7424 30.5012 14.9139 30.6051C15.4802 30.9473 16.0486 31.2845 16.625 31.6093C16.7045 31.4187 16.7815 31.2271 16.8574 31.0351C16.9006 30.9285 16.9437 30.8219 16.9882 30.7121C17.0869 30.4178 17.0869 30.4178 16.9942 30.1776C16.501 29.4926 15.8186 28.9321 15.1732 28.3943C14.7855 28.0337 14.6181 27.7523 14.5588 27.2233C14.5391 27.0568 14.5391 27.0568 14.519 26.8869C14.5 26.7078 14.5 26.7078 14.4807 26.5251C14.4595 26.3398 14.4595 26.3398 14.4379 26.1507C14.4084 25.8893 14.3794 25.6278 14.3511 25.3663C14.308 24.9677 14.2628 24.5693 14.2173 24.171C14.1887 23.9166 14.1603 23.6623 14.132 23.4079C14.1121 23.2301 14.1121 23.2301 14.0917 23.0488C13.914 21.3954 13.914 21.3954 14.1299 20.9521C14.3848 20.7324 14.5393 20.6878 14.875 20.6718C15.169 20.7333 15.169 20.7333 15.4219 20.8906C15.6656 21.4533 15.7124 22.0332 15.7739 22.6367C15.7909 22.7928 15.7909 22.7928 15.8082 22.9521C15.8442 23.2834 15.8792 23.6148 15.9141 23.9462C15.96 24.3825 16.0069 24.8187 16.0542 25.2549C16.0694 25.4038 16.0694 25.4038 16.085 25.5557C16.1883 26.6476 16.1883 26.6476 16.7673 27.5432C16.8381 27.6128 16.909 27.6824 16.982 27.7541C17.0929 27.8589 17.0929 27.8589 17.2061 27.9658C17.2788 28.0369 17.3514 28.108 17.4263 28.1813C17.6304 28.3793 17.8383 28.5724 18.0469 28.7656C18.1304 28.8495 18.2138 28.9333 18.2998 29.0198C18.7546 29.3034 19.2387 29.3538 19.7627 29.4355C19.9706 29.4692 20.1784 29.5036 20.3861 29.5389C20.4777 29.5533 20.5693 29.5677 20.6636 29.5825C20.8906 29.6406 20.8906 29.6406 21.1094 29.8593C21.2497 30.2451 21.2027 30.5294 21.1111 30.9185C21.0906 31.0069 21.07 31.0954 21.0488 31.1865C21.0327 31.2539 21.0166 31.3212 21 31.3906C21.4281 31.4689 21.8562 31.5468 22.2844 31.6242C22.43 31.6506 22.5756 31.6771 22.7211 31.7038C22.9306 31.7422 23.1402 31.78 23.3499 31.8178C23.4759 31.8407 23.6019 31.8636 23.7317 31.8872C24.0788 31.9484 24.0788 31.9484 24.5 31.9374C24.5127 30.4694 24.5224 29.0015 24.5284 27.5334C24.5312 26.8517 24.5351 26.1701 24.5413 25.4884C24.5472 24.8303 24.5505 24.1722 24.5519 23.514C24.5529 23.2632 24.5549 23.0124 24.5578 22.7616C24.5618 22.4097 24.5624 22.0579 24.5621 21.706C24.5641 21.6027 24.566 21.4995 24.5681 21.3932C24.5627 20.7016 24.4365 20.2 23.9531 19.6874C23.3253 19.191 22.6456 19.1876 21.8748 19.1951C21.7573 19.1945 21.6398 19.1939 21.5187 19.1933C21.1325 19.1919 20.7463 19.1937 20.36 19.1957C20.0906 19.1957 19.8213 19.1955 19.5519 19.1952C18.9883 19.195 18.4247 19.1964 17.8612 19.1989C17.1391 19.202 16.417 19.2017 15.6949 19.2003C15.1391 19.1996 14.5832 19.2004 14.0274 19.2018C13.7611 19.2023 13.4948 19.2023 13.2286 19.2019C12.8565 19.2016 12.4846 19.2034 12.1126 19.2057C12.0028 19.2053 11.893 19.2048 11.7799 19.2043C11.0063 19.2125 10.4293 19.3336 9.91897 19.9609ZM18.7031 31.0624C18.6264 31.2166 18.5516 31.3718 18.4776 31.5273C18.4357 31.6136 18.3938 31.6999 18.3507 31.7888C18.2563 32.0752 18.2733 32.2053 18.375 32.4843C18.5916 32.5385 18.5916 32.5385 18.8125 32.5937C18.9569 32.0884 19.1013 31.5831 19.25 31.0624C19.0696 31.0624 18.8891 31.0624 18.7031 31.0624ZM26.3594 31.8281C26.3594 32.0085 26.3594 32.189 26.3594 32.3749C26.4677 32.3749 26.576 32.3749 26.6875 32.3749C26.6153 32.1945 26.5431 32.014 26.4688 31.8281C26.4327 31.8281 26.3966 31.8281 26.3594 31.8281ZM26.3594 34.1249C26.3594 34.1971 26.3594 34.2693 26.3594 34.3437C26.6121 34.3437 26.8647 34.3437 27.125 34.3437C27.125 34.3076 27.125 34.2715 27.125 34.2343C26.8724 34.1982 26.6197 34.1621 26.3594 34.1249ZM9.51565 37.8437C9.46398 38.9763 9.46398 38.9763 9.95315 39.8124C10.6468 40.4705 11.2775 40.501 12.1912 40.4987C12.3064 40.4993 12.4215 40.4999 12.5401 40.5004C12.9205 40.5019 13.3009 40.5018 13.6813 40.5016C13.946 40.502 14.2106 40.5025 14.4753 40.503C15.0301 40.5038 15.5849 40.5038 16.1397 40.5032C16.8501 40.5026 17.5605 40.5044 18.271 40.507C18.8176 40.5086 19.3643 40.5087 19.9109 40.5083C20.1728 40.5084 20.4348 40.509 20.6967 40.5101C21.0632 40.5114 21.4296 40.5107 21.7961 40.5094C21.904 40.5103 22.0119 40.5111 22.123 40.5119C22.9037 40.506 23.4355 40.3996 24.042 39.874C24.6468 39.1655 24.5 38.91 24.5 37.8437C19.5552 37.8437 14.6103 37.8437 9.51565 37.8437ZM12.7969 42.2187C12.7895 43.5821 12.7835 44.9454 12.7799 46.3088C12.7782 46.9418 12.7759 47.5748 12.7721 48.2079C12.7686 48.8185 12.7666 49.429 12.7658 50.0396C12.7652 50.2729 12.764 50.5062 12.7622 50.7394C12.7598 51.0655 12.7595 51.3915 12.7596 51.7176C12.7585 51.8146 12.7573 51.9116 12.7561 52.0115C12.7565 52.1003 12.757 52.1891 12.7574 52.2806C12.7571 52.3577 12.7568 52.4349 12.7565 52.5143C12.81 52.7851 12.907 52.8817 13.125 53.0468C13.401 53.0775 13.6496 53.0883 13.9253 53.0841C14.0065 53.0841 14.0876 53.0842 14.1712 53.0842C14.4393 53.084 14.7073 53.0814 14.9754 53.0789C15.1613 53.0782 15.3472 53.0778 15.5331 53.0775C16.0224 53.0762 16.5116 53.073 17.0009 53.0693C17.5002 53.066 17.9994 53.0645 18.4987 53.0628C19.4783 53.0593 20.4579 53.0537 21.4375 53.0468C21.5902 52.5002 21.4535 52.1339 21.2188 51.6249C20.8218 50.9755 20.3023 50.6337 19.5781 50.4218C19.0562 50.3642 18.5375 50.3606 18.0127 50.3603C17.7397 50.3593 17.4667 50.357 17.1937 50.353C17.0141 50.3529 17.0141 50.3529 16.8308 50.3528C16.477 50.3075 16.3293 50.2339 16.0781 49.9843C15.9548 49.6144 15.9514 49.3263 15.9463 48.9362C15.9452 48.8636 15.9441 48.791 15.943 48.7162C15.9396 48.4766 15.9369 48.2369 15.9342 47.9972C15.9319 47.8309 15.9296 47.6646 15.9273 47.4983C15.9212 47.0609 15.9158 46.6234 15.9106 46.1859C15.9051 45.7394 15.899 45.2929 15.8929 44.8465C15.8812 43.9706 15.8701 43.0946 15.8594 42.2187C14.8488 42.2187 13.8381 42.2187 12.7969 42.2187ZM17.7188 42.2187C17.7188 44.3121 17.7188 46.4056 17.7188 48.5624C18.4767 48.6346 19.2347 48.7068 20.0156 48.7812C20.7417 49.0105 20.7417 49.0105 21.1094 49.2187C21.2222 49.2796 21.335 49.3405 21.4512 49.4033C21.7656 49.6562 21.7656 49.6562 21.9229 49.9027C22.1445 50.2305 22.3054 50.4243 22.6406 50.6406C23.3457 50.7708 24.1194 50.7403 24.8281 50.6406C24.9746 50.5172 24.9746 50.5172 24.9717 50.1962C24.9087 49.4028 24.5658 48.8921 23.9719 48.3792C23.0099 47.7926 22.0462 47.8587 20.9517 47.8581C20.7599 47.8551 20.7599 47.8551 20.5642 47.8519C20.3904 47.8516 20.3904 47.8516 20.2131 47.8513C19.9063 47.7968 19.9063 47.7968 19.6506 47.6476C19.3604 47.1875 19.4028 46.7254 19.4021 46.1921C19.3994 46.0219 19.3994 46.0219 19.3966 45.8482C19.3913 45.486 19.389 45.1239 19.3867 44.7617C19.3837 44.516 19.3804 44.2703 19.3769 44.0247C19.3688 43.4227 19.3634 42.8207 19.3594 42.2187C18.818 42.2187 18.2766 42.2187 17.7188 42.2187Z" fill="#113065"/>
<path d="M47.455 1.05955C47.5637 1.05638 47.6724 1.05321 47.7844 1.04994C48.5865 1.04296 48.5865 1.04296 49.0149 1.29795C49.2545 1.57218 49.3192 1.71476 49.3281 2.0781C49.2384 2.4548 49.1556 2.59059 48.8427 2.82322C48.5624 2.9531 48.5624 2.9531 48.2343 2.9531C48.2343 3.06139 48.2343 3.16967 48.2343 3.28123C48.3189 3.29984 48.4035 3.31845 48.4907 3.33763C49.193 3.50105 49.7918 3.69552 50.4218 4.04685C50.476 3.88443 50.476 3.88443 50.5312 3.71873C50.4771 3.61045 50.4771 3.61045 50.4218 3.49998C50.3833 3.08449 50.3642 2.82802 50.5859 2.46775C50.9007 2.27096 51.1499 2.22807 51.5207 2.24729C51.8846 2.33171 52.0501 2.56265 52.2812 2.84373C52.3692 2.92945 52.4571 3.01517 52.5478 3.10349C52.6865 3.24561 52.6865 3.24561 52.8281 3.3906C52.8876 3.44799 52.9471 3.50537 53.0084 3.56449C53.3301 3.89758 53.5289 4.14055 53.5527 4.61424C53.4843 5.03123 53.4843 5.03123 53.3134 5.30467C52.8865 5.56738 52.4926 5.51209 52.0146 5.41404C51.9582 5.39599 51.9018 5.37795 51.8437 5.35935C51.9274 5.85297 52.0984 6.27031 52.2987 6.72654C52.3962 7.01676 52.4074 7.24292 52.3906 7.54685C52.571 7.54685 52.7515 7.54685 52.9374 7.54685C52.969 7.44308 53.0006 7.33932 53.0331 7.2324C53.1562 6.8906 53.1562 6.8906 53.3749 6.67185C53.6959 6.56777 53.8808 6.55173 54.2089 6.63767C54.5056 6.8016 54.6198 6.93161 54.7968 7.21873C54.8393 7.4806 54.8393 7.4806 54.8404 7.76859C54.8408 7.87328 54.8412 7.97797 54.8417 8.08582C54.8398 8.24878 54.8398 8.24878 54.8378 8.41502C54.8391 8.52323 54.8404 8.63144 54.8417 8.74293C54.8377 9.7408 54.8377 9.7408 54.4687 10.1719C54.1305 10.3409 53.8568 10.3133 53.4843 10.2812C53.1678 10.0563 53.067 9.91757 52.9648 9.54295C52.9558 9.46174 52.9467 9.38053 52.9374 9.29685C52.757 9.29685 52.5765 9.29685 52.3906 9.29685C52.3804 9.44574 52.3804 9.44574 52.3701 9.59764C52.2844 10.2274 51.9905 10.7992 51.7343 11.375C51.8967 11.4833 51.8967 11.4833 52.0624 11.5937C52.1662 11.5576 52.27 11.5215 52.3769 11.4844C52.7187 11.375 52.7187 11.375 53.0195 11.4502C53.2656 11.5937 53.2656 11.5937 53.4843 11.9219C53.5502 12.3638 53.5862 12.6349 53.3452 13.0181C53.1526 13.2432 52.951 13.4511 52.7392 13.6582C52.6689 13.7307 52.5986 13.8031 52.5262 13.8778C51.787 14.6316 51.787 14.6316 51.3105 14.7041C50.9687 14.6562 50.9687 14.6562 50.6542 14.4306C50.3663 14.0326 50.3594 13.8252 50.4218 13.3437C50.5301 13.1813 50.5301 13.1813 50.6406 13.0156C50.4523 12.8786 50.4523 12.8786 50.2031 12.7969C49.9417 12.8868 49.9417 12.8868 49.6835 13.0498C49.1816 13.3239 48.8025 13.4215 48.2343 13.4531C48.2343 13.6336 48.2343 13.814 48.2343 14C48.3358 14.0113 48.4373 14.0225 48.5419 14.0342C48.9003 14.1115 49.0169 14.1402 49.2187 14.4375C49.3625 14.8175 49.3389 14.9575 49.1845 15.3398C48.9999 15.6406 48.9999 15.6406 48.7812 15.75C48.3307 15.7824 47.8792 15.7804 47.4277 15.7842C47.3019 15.7873 47.1761 15.7905 47.0466 15.7938C46.9256 15.7947 46.8046 15.7956 46.68 15.7965C46.5137 15.7989 46.5137 15.7989 46.344 15.8014C45.9662 15.736 45.8397 15.6138 45.6093 15.3125C45.5478 14.9365 45.5478 14.9365 45.6093 14.5469C45.8622 14.2256 45.8622 14.2256 46.1562 14C46.2645 14 46.3728 14 46.4843 14C46.4843 13.8195 46.4843 13.639 46.4843 13.4531C46.3805 13.4463 46.2768 13.4396 46.1699 13.4326C45.681 13.3689 45.3009 13.1372 44.88 12.8913C44.6255 12.7655 44.6255 12.7655 44.3733 12.8904C44.312 12.9317 44.2506 12.973 44.1874 13.0156C44.2235 13.1239 44.2596 13.2322 44.2968 13.3437C44.3584 14.1201 44.3584 14.1201 44.1259 14.4922C43.7383 14.7307 43.5431 14.7386 43.0937 14.6562C42.3528 14.1735 41.7217 13.4186 41.2343 12.6875C41.1875 12.2584 41.165 12.0195 41.4189 11.6621C41.7068 11.4598 41.8674 11.3917 42.2187 11.375C42.581 11.4775 42.581 11.4775 42.8749 11.5937C42.9471 11.4854 43.0193 11.3772 43.0937 11.2656C43.0364 11.1624 43.0364 11.1624 42.9779 11.0571C42.6579 10.4552 42.4753 9.97839 42.4374 9.29685C42.257 9.29685 42.0765 9.29685 41.8906 9.29685C41.877 9.44912 41.877 9.44912 41.8632 9.60447C41.7812 9.9531 41.7812 9.9531 41.6035 10.1582C41.2372 10.3317 40.9784 10.3313 40.5781 10.2812C40.279 10.0529 40.1555 9.92358 40.0857 9.55C40.086 9.38578 40.086 9.38578 40.0863 9.21824C40.0862 9.09826 40.0862 8.97827 40.0861 8.85465C40.0894 8.66749 40.0894 8.66749 40.0927 8.47654C40.0919 8.35176 40.0912 8.22699 40.0904 8.09843C40.0984 7.05308 40.0984 7.05308 40.4687 6.67185C40.8625 6.54344 41.0461 6.52665 41.4257 6.6992C41.6718 6.8906 41.6718 6.8906 41.8906 7.21873C41.8906 7.32701 41.8906 7.43529 41.8906 7.54685C42.071 7.54685 42.2515 7.54685 42.4374 7.54685C42.4442 7.42729 42.451 7.30773 42.458 7.18455C42.5319 6.56007 42.8162 6.02577 43.0937 5.46873C42.9854 5.39654 42.8771 5.32435 42.7656 5.24998C42.6573 5.32217 42.549 5.39435 42.4374 5.46873C42.123 5.51658 42.123 5.51658 41.7812 5.46873C41.4335 5.21175 41.2666 5.04037 41.1523 4.62107C41.2819 4.05932 41.6226 3.70572 41.9999 3.28123C42.0789 3.18817 42.1579 3.09512 42.2392 2.99925C42.9311 2.23531 42.9311 2.23531 43.456 2.20799C43.8593 2.29685 43.8593 2.29685 44.1328 2.46092C44.3735 2.86221 44.3264 3.14376 44.2968 3.60935C44.2968 3.71764 44.2968 3.82592 44.2968 3.93748C44.7517 3.93748 44.9356 3.86496 45.3359 3.67088C45.9019 3.39796 45.9019 3.39796 46.187 3.33891C46.249 3.31987 46.311 3.30084 46.3749 3.28123C46.4291 3.11881 46.4291 3.11881 46.4843 2.9531C46.3805 2.92378 46.2768 2.89445 46.1699 2.86424C45.8281 2.73435 45.8281 2.73435 45.6093 2.40623C45.5727 2.00354 45.5551 1.73872 45.7529 1.38084C46.1982 0.952034 46.8773 1.06513 47.455 1.05955ZM45.1718 6.0156C45.0793 6.09907 44.9868 6.18254 44.8915 6.26853C44.2847 6.93767 44.0324 7.70634 44.0477 8.60728C44.152 9.47381 44.546 10.3276 45.1718 10.9375C45.9697 11.5296 46.7871 11.898 47.7968 11.8125C48.7451 11.6389 49.5072 11.2278 50.0783 10.4372C50.4321 9.86018 50.6563 9.41497 50.6474 8.72947C50.6464 8.63092 50.6454 8.53237 50.6444 8.43083C50.6431 8.35568 50.6419 8.28053 50.6406 8.2031C50.6045 8.27529 50.5684 8.34748 50.5312 8.42185C50.0735 8.55614 49.6777 8.60124 49.2529 8.374C48.2195 7.22892 48.2195 7.22892 48.2343 6.56248C48.3437 6.25486 48.3437 6.25486 48.5624 6.0156C48.9521 5.93357 48.9521 5.93357 49.3281 5.90623C49.4003 5.87014 49.4724 5.83404 49.5468 5.79685C48.8191 5.1374 48.1025 4.96613 47.1444 4.99278C46.3263 5.08754 45.7086 5.3868 45.1718 6.0156ZM50.0937 6.4531C50.2031 6.67185 50.2031 6.67185 50.2031 6.67185L50.0937 6.4531Z" fill="#113065"/>
<path d="M33.9678 44.1397C34.0726 44.1389 34.1774 44.1381 34.2854 44.1373C35.0535 44.1443 35.0535 44.1443 35.2999 44.3349C35.5093 44.6099 35.5332 44.8296 35.5469 45.1719C35.3896 45.4727 35.3896 45.4727 35.2187 45.7188C35.2187 45.791 35.2187 45.8631 35.2187 45.9375C35.4894 46.0458 35.4894 46.0458 35.7656 46.1563C35.7566 46.057 35.7476 45.9578 35.7383 45.8555C35.7656 45.5 35.7656 45.5 35.9297 45.2403C36.3056 44.9959 36.6471 44.9812 37.0781 45.0625C37.3611 45.2223 37.5672 45.4287 37.789 45.6641C37.8477 45.7194 37.9064 45.7746 37.9668 45.8316C38.2831 46.1544 38.429 46.3807 38.4393 46.8399C38.3906 47.25 38.3906 47.25 38.2129 47.5235C37.8874 47.729 37.6749 47.7219 37.2969 47.6875C37.4051 47.9041 37.5134 48.1206 37.625 48.3438C37.6859 48.2659 37.6859 48.2659 37.748 48.1865C38.034 47.9483 38.2399 47.921 38.6094 47.9063C38.8639 48.0307 39.0653 48.1434 39.2656 48.3438C39.3022 48.7187 39.3012 49.0952 39.3066 49.4717C39.3128 49.6298 39.3128 49.6298 39.319 49.7911C39.3287 50.5692 39.3287 50.5692 39.0105 50.9295C38.6575 51.1094 38.4538 51.1364 38.0625 51.0781C37.8027 50.9141 37.8027 50.9141 37.625 50.75C37.5167 50.9666 37.4084 51.1831 37.2969 51.4063C37.4164 51.4153 37.536 51.4243 37.6592 51.4336C38.0625 51.5156 38.0625 51.5156 38.2744 51.6934C38.4537 52.0942 38.4757 52.279 38.3906 52.7188C37.9486 53.3484 37.4739 53.853 36.75 54.1406C36.3398 54.0723 36.3398 54.0723 35.9844 53.9219C35.7339 53.5462 35.7461 53.3766 35.7656 52.9375C35.5851 53.0458 35.4047 53.1541 35.2187 53.2656C35.3033 53.3807 35.3033 53.3807 35.3896 53.4981C35.5469 53.8125 35.5469 53.8125 35.5469 54.1475C35.4049 54.5644 35.264 54.6744 34.8906 54.9063C34.5787 54.9658 34.2775 54.9626 33.9609 54.9541C33.8793 54.9549 33.7977 54.9557 33.7135 54.9565C33.2168 54.9508 32.8882 54.8958 32.4844 54.5781C32.3193 54.248 32.3558 53.9577 32.375 53.5938C32.4833 53.4314 32.4833 53.4314 32.5937 53.2656C32.4494 53.1935 32.305 53.1213 32.1562 53.0469C32.1393 53.1992 32.1393 53.1992 32.1221 53.3545C32.0448 53.7129 32.0161 53.8295 31.7187 54.0313C31.2737 54.1835 31.0413 54.1234 30.625 53.9219C30.3122 53.6882 30.3122 53.6882 29.9961 53.4092C29.8906 53.3185 29.7852 53.2279 29.6765 53.1345C29.3713 52.7673 29.3303 52.5342 29.3125 52.0625C29.433 51.6909 29.5226 51.6308 29.8594 51.4063C30.0404 51.3642 30.2227 51.3267 30.4062 51.2969C30.3521 51.0262 30.3521 51.0262 30.2969 50.75C30.2202 50.8042 30.1435 50.8583 30.0644 50.9141C29.6999 51.1043 29.4994 51.1299 29.0937 51.0781C28.7507 50.8835 28.6736 50.8022 28.5469 50.4219C28.5335 50.113 28.5266 49.8079 28.5264 49.499C28.525 49.4155 28.5237 49.332 28.5223 49.2459C28.5203 48.472 28.5203 48.472 28.7656 48.125C29.065 47.8922 29.2139 47.907 29.5996 47.9336C29.9687 48.0156 29.9687 48.0156 30.1875 48.2344C30.2597 48.09 30.3319 47.9456 30.4062 47.7969C30.2867 47.7721 30.1671 47.7473 30.0439 47.7217C29.6406 47.5781 29.6406 47.5781 29.4219 47.3321C29.2824 46.9485 29.2928 46.7622 29.4219 46.375C29.6474 46.1084 29.6474 46.1084 29.9687 45.8281C30.0347 45.7608 30.1007 45.6934 30.1687 45.6239C30.5229 45.2767 30.798 45.0119 31.3086 44.9805C31.7187 45.0625 31.7187 45.0625 31.9853 45.3086C32.1314 45.5657 32.2227 45.757 32.2656 46.0469C32.41 45.9747 32.5544 45.9025 32.7031 45.8281C32.649 45.7718 32.5948 45.7154 32.539 45.6572C32.3128 45.2896 32.3219 45.0494 32.375 44.625C32.7498 44.0243 33.334 44.1264 33.9678 44.1397ZM32.04 48.5215C31.8492 49.2086 31.7773 49.9918 32.1221 50.6406C32.4521 51.0688 32.7342 51.3437 33.25 51.5156C33.8528 51.5687 34.3849 51.5996 34.9385 51.3379C35.617 50.7092 35.617 50.7092 35.901 49.8494C35.9212 49.1661 35.8485 48.7861 35.4375 48.2344C34.9675 47.7619 34.5586 47.5616 33.8926 47.5303C33.0757 47.5379 32.5375 47.8884 32.04 48.5215Z" fill="#113065"/>
<path d="M37.7344 17.664C37.8331 17.6623 37.9318 17.6606 38.0334 17.6589C38.7471 17.6631 38.7471 17.6631 39.1122 17.9135C39.3499 18.2896 39.3424 18.6006 39.2656 19.0312C39.1016 19.3046 39.1016 19.3046 38.9375 19.4687C39.2082 19.577 39.2082 19.577 39.4844 19.6875C39.525 19.5081 39.525 19.5081 39.5664 19.3251C39.7031 18.9218 39.7031 18.9218 39.8945 18.7099C40.2448 18.5445 40.4111 18.5195 40.7969 18.5937C41.1226 18.8164 41.3954 19.0789 41.6719 19.3593C41.7304 19.4154 41.7889 19.4716 41.8492 19.5294C42.1276 19.8212 42.2181 20.0114 42.2803 20.4121C42.2188 20.7812 42.2188 20.7812 42.0342 21.041C41.7603 21.2334 41.5645 21.2914 41.2344 21.3281C41.3427 21.5988 41.3427 21.5988 41.4531 21.875C41.5073 21.7937 41.5073 21.7937 41.5625 21.7109C41.8441 21.4997 42.0887 21.5025 42.4337 21.4926C42.7816 21.5774 42.8903 21.6869 43.0938 21.9843C43.1585 22.35 43.1548 22.7076 43.1484 23.0781C43.151 23.2261 43.151 23.2261 43.1536 23.3772C43.1493 24.0908 43.1493 24.0908 42.8989 24.4559C42.5229 24.6936 42.2118 24.6861 41.7812 24.6093C41.5078 24.4453 41.5078 24.4453 41.3438 24.2812C41.3077 24.4617 41.2716 24.6421 41.2344 24.8281C41.3156 24.8371 41.3968 24.8461 41.4805 24.8554C41.8551 24.9576 41.9938 25.0584 42.2188 25.375C42.293 25.7609 42.289 26.0122 42.0978 26.3615C41.6821 26.9444 41.1824 27.5947 40.4551 27.7402C40.0552 27.6533 39.871 27.5353 39.5938 27.2343C39.5049 26.8789 39.5049 26.8789 39.4844 26.5781C39.2678 26.6864 39.2678 26.6864 39.0469 26.7968C39.1552 26.9593 39.1552 26.9593 39.2656 27.125C39.3348 27.7478 39.3348 27.7478 39.2656 28C38.9575 28.3485 38.7068 28.4646 38.2539 28.4956C38.0807 28.4967 37.9075 28.4955 37.7344 28.4921C37.6041 28.4947 37.6041 28.4947 37.4712 28.4973C37.0379 28.4944 36.7989 28.4661 36.418 28.2431C36.1874 27.9822 36.1349 27.8959 36.1553 27.5556C36.2031 27.125 36.2031 27.125 36.4219 26.7968C36.2775 26.7246 36.1331 26.6525 35.9844 26.5781C35.9675 26.7303 35.9675 26.7303 35.9502 26.8857C35.875 27.2343 35.875 27.2343 35.752 27.4326C35.4352 27.6332 35.1515 27.6523 34.7812 27.6718C34.1434 27.4326 33.7648 26.8172 33.3594 26.2978C33.2028 25.9162 33.2572 25.6596 33.3594 25.2656C33.546 24.9856 33.6532 24.9462 33.9814 24.8623C34.0649 24.851 34.1484 24.8397 34.2344 24.8281C34.1261 24.6837 34.0178 24.5393 33.9062 24.3906C33.8341 24.4628 33.7619 24.535 33.6875 24.6093C33.0706 24.679 33.0706 24.679 32.8125 24.6093C32.4636 24.3014 32.3479 24.0505 32.3169 23.5976C32.3157 23.4244 32.3169 23.2512 32.3203 23.0781C32.3186 22.9912 32.3169 22.9044 32.3152 22.8149C32.3181 22.3816 32.3464 22.1426 32.5694 21.7617C32.8302 21.5312 32.9165 21.4787 33.2568 21.499C33.6875 21.5468 33.6875 21.5468 34.0156 21.7656C34.0517 21.6212 34.0878 21.4768 34.125 21.3281C34.0415 21.301 33.9581 21.2739 33.8721 21.246C33.5371 21.0903 33.4114 21.0037 33.25 20.6718C33.2293 20.1346 33.3765 19.8449 33.7148 19.4482C33.8495 19.3072 33.9861 19.168 34.125 19.0312C34.2604 18.8959 34.2604 18.8959 34.3984 18.7578C34.7716 18.5339 35.01 18.5315 35.4375 18.5937C35.8063 18.8628 35.951 19.1499 36.0938 19.5781C36.2381 19.5059 36.3825 19.4337 36.5312 19.3593C36.4771 19.3232 36.423 19.2871 36.3672 19.25C36.156 18.9683 36.1588 18.7238 36.1489 18.3788C36.3454 17.5727 37.0553 17.6524 37.7344 17.664ZM36.0092 21.9121C35.6259 22.4309 35.6184 22.9958 35.7054 23.6079C35.8002 23.9792 35.9559 24.2078 36.2031 24.5C36.2753 24.5 36.3475 24.5 36.4219 24.5C36.458 24.6082 36.4941 24.7165 36.5312 24.8281C37.0591 25.1131 37.4539 25.2214 38.0625 25.1562C38.6847 24.9416 39.1535 24.6675 39.5664 24.1513C39.8266 23.5658 39.8766 23.0616 39.6826 22.4492C39.2977 21.7589 38.9249 21.3645 38.1719 21.1093C37.3134 20.9622 36.5848 21.2857 36.0092 21.9121Z" fill="#113065"/>
<path d="M47.0668 46.2438C47.6695 46.6751 48.2052 47.2711 48.3438 48.0156C48.4149 48.8857 48.4253 49.6884 47.9063 50.4218C47.3574 51.0238 46.844 51.4637 46.0132 51.5382C45.086 51.5763 44.3869 51.3525 43.6996 50.7217C43.1337 50.0811 42.9444 49.3132 42.9618 48.4719C43.0446 47.6031 43.4206 46.9428 44.0782 46.3749C44.9617 45.7729 46.1388 45.6962 47.0668 46.2438ZM44.9532 48.1249C44.7836 48.4641 44.8121 48.7351 44.8438 49.1093C45.0452 49.4524 45.1791 49.6143 45.5479 49.7656C45.9183 49.7656 46.0855 49.6644 46.375 49.4374C46.606 49.154 46.6086 48.9153 46.587 48.5624C46.5314 48.2076 46.4883 48.1292 46.2315 47.8515C45.6639 47.5347 45.3921 47.7216 44.9532 48.1249Z" fill="#113065"/>
<path d="M50.4206 39.184C51.0092 39.6465 51.2828 40.2075 51.5157 40.9062C51.6015 41.7519 51.4931 42.4569 51.0782 43.2031C50.5933 43.79 49.9901 44.2513 49.2184 44.3306C48.2788 44.3646 47.6447 44.2646 46.9219 43.6406C46.2586 42.9396 46.1041 42.1856 46.1217 41.2382C46.2034 40.4538 46.5838 39.8098 47.1407 39.2656C48.1939 38.6097 49.3407 38.5029 50.4206 39.184ZM48.1934 40.749C47.9539 41.1082 47.9063 41.3494 47.9063 41.7812C48.0507 42.162 48.0507 42.162 48.3438 42.4374C48.715 42.592 48.715 42.592 49.1094 42.5468C49.4735 42.2856 49.624 42.0967 49.7657 41.6718C49.7657 41.2774 49.6717 41.1091 49.4375 40.7968C49.2263 40.54 49.2263 40.54 48.8496 40.5371C48.4571 40.5469 48.4571 40.5469 48.1934 40.749Z" fill="#113065"/>
<path d="M53.2041 32.2793C53.9577 32.708 54.416 33.3314 54.6533 34.1728C54.7692 35.1233 54.6057 35.8877 54.0586 36.6748C53.6434 37.1932 53.1559 37.4921 52.5 37.625C51.7165 37.7075 51.0978 37.5992 50.4218 37.1875C49.9263 36.769 49.5346 36.2758 49.3281 35.6562C49.2467 34.5315 49.2706 33.7137 50.0254 32.8398C50.9754 32.0255 52.0234 31.7262 53.2041 32.2793ZM51.1875 34.2344C51.0536 34.5021 51.0763 34.6428 51.1054 34.9385C51.1128 35.024 51.1201 35.1096 51.1277 35.1978C51.1985 35.4816 51.2885 35.5856 51.5156 35.7656C51.7742 35.8757 51.7742 35.8757 52.0625 35.875C52.4438 35.6976 52.5922 35.5726 52.8281 35.2187C52.8774 34.7749 52.8718 34.5304 52.6504 34.1387C52.0956 33.6423 51.6931 33.7287 51.1875 34.2344Z" fill="#113065"/>
<path d="M45.5 32.5938C46.1008 33.116 46.4244 33.7354 46.5189 34.5228C46.5585 35.438 46.3044 36.1154 45.7529 36.8389C45.2155 37.4165 44.5845 37.6459 43.8046 37.6797C42.9685 37.6423 42.3659 37.3857 41.7949 36.7705C41.218 36.0397 41.055 35.4099 41.0805 34.4843C41.1907 33.5932 41.6375 32.9611 42.3324 32.4122C43.3262 31.7331 44.5555 31.9376 45.5 32.5938ZM43.0937 34.125C42.8639 34.4175 42.8751 34.5672 42.8886 34.9453C42.9938 35.3658 43.0738 35.5143 43.4218 35.7656C43.6779 35.9025 43.6779 35.9025 43.9687 35.875C44.3844 35.6112 44.574 35.4691 44.7412 35.0068C44.7327 34.59 44.6349 34.3626 44.4062 34.0156C43.9077 33.6729 43.5637 33.7876 43.0937 34.125Z" fill="#113065"/>
<path d="M43.2266 39.2083C43.8367 39.729 44.2488 40.2446 44.3375 41.0613C44.3552 42.0657 44.2677 42.857 43.5625 43.6265C42.8601 44.2673 42.2191 44.3477 41.2831 44.3301C40.5478 44.2651 40.1225 43.9837 39.6143 43.4628C39.08 42.8014 38.8988 42.1192 38.9444 41.2753C39.0663 40.3732 39.4096 39.7809 40.1193 39.2087C41.082 38.5595 42.2684 38.5275 43.2266 39.2083ZM41.0293 40.7968C40.7704 41.1624 40.7141 41.3503 40.7439 41.788C40.8386 42.1666 41.0312 42.3294 41.3438 42.5468C41.6719 42.6471 41.6719 42.6471 42 42.5468C42.3472 42.2299 42.5252 42.0236 42.6016 41.5556C42.5403 41.1956 42.4357 40.9795 42.2188 40.6874C41.7646 40.4604 41.4392 40.5116 41.0293 40.7968Z" fill="#113065"/>
<path d="M38.3906 33.4688C39.0006 33.8896 39.5178 34.3749 39.7031 35.1094C39.8208 36.1114 39.7933 37.0245 39.1562 37.8438C38.5648 38.4149 37.9436 38.7477 37.1123 38.7666C36.3447 38.7524 35.7258 38.5285 35.1504 38.0125C34.528 37.3105 34.3237 36.5775 34.3437 35.6563C34.4863 34.7807 34.8423 34.0996 35.5332 33.544C36.469 33.0386 37.4514 32.9555 38.3906 33.4688ZM36.4219 35.2188C36.1493 35.6275 36.153 35.8283 36.2031 36.3125C36.4173 36.6915 36.5519 36.8273 36.9619 36.9756C37.3947 36.9668 37.5425 36.8325 37.8437 36.5313C38.0154 36.188 37.9916 35.9255 37.9531 35.5469C37.7196 35.2486 37.5262 35.06 37.1875 34.8906C36.8588 34.8906 36.6822 35.0269 36.4219 35.2188Z" fill="#113065"/>
<path d="M47.1407 8.31258C47.4141 8.48348 47.4141 8.48348 47.5782 8.75008C47.6397 9.12606 47.6397 9.12606 47.5782 9.5157C47.1947 10.0476 46.6589 10.3038 46.0469 10.5001C45.6058 10.5579 45.3936 10.5692 45.0147 10.336C44.7736 9.95034 44.7568 9.63069 44.8438 9.18758C45.3085 8.46028 46.3317 8.20289 47.1407 8.31258Z" fill="#113065"/>
<path d="M47.25 5.57815C47.5722 5.83206 47.5749 5.99027 47.6259 6.39846C47.5781 6.78128 47.5781 6.78128 47.4072 7.04104C47.0508 7.27861 46.8025 7.32078 46.375 7.32815C45.764 7.09054 45.764 7.09054 45.6093 6.78128C45.5593 6.10614 45.5593 6.10614 45.7529 5.75589C46.1766 5.34789 46.72 5.45281 47.25 5.57815Z" fill="#113065"/>
<path d="M48.7812 9.51567C49.1307 9.71641 49.2858 9.84322 49.4307 10.2198C49.4388 10.5552 49.3779 10.7524 49.2188 11.0469C48.7559 11.3555 48.3402 11.3509 47.7969 11.2657C47.5029 11.0401 47.5029 11.0401 47.3594 10.7188C47.3594 10.2938 47.4102 10.0446 47.6396 9.68657C48.0146 9.44621 48.3548 9.43189 48.7812 9.51567Z" fill="#113065"/>
</svg>
