<svg width="56" height="56" viewBox="0 0 56 56" fill="none" xmlns="http://www.w3.org/2000/svg">
<path d="M6.58127 1.59639C6.76066 1.59577 6.94004 1.595 7.11943 1.59412C7.60485 1.59216 8.09025 1.59228 8.57567 1.59291C8.98173 1.59324 9.38779 1.59258 9.79385 1.59192C10.7523 1.59038 11.7107 1.59055 12.6691 1.5918C13.656 1.59305 14.6428 1.59151 15.6297 1.58858C16.4787 1.58615 17.3277 1.58543 18.1767 1.58607C18.683 1.58644 19.1893 1.58618 19.6957 1.5843C20.172 1.5826 20.6483 1.58304 21.1247 1.5851C21.2988 1.5855 21.473 1.58516 21.6471 1.58401C23.096 1.57519 24.0715 1.78306 25.1349 2.80483C26.0302 3.76543 26.3012 4.87219 26.2925 6.16213C26.2933 6.32295 26.2933 6.32295 26.2942 6.48703C26.2957 6.83803 26.2947 7.18899 26.2936 7.54C26.2938 7.78594 26.2941 8.03188 26.2946 8.27782C26.295 8.79192 26.2943 9.30601 26.2928 9.8201C26.2909 10.4769 26.292 11.1337 26.294 11.7905C26.2952 12.298 26.2948 12.8054 26.2939 13.3129C26.2937 13.555 26.294 13.7971 26.2947 14.0392C26.2956 14.3783 26.2943 14.7174 26.2925 15.0565C26.2931 15.1552 26.2938 15.2539 26.2945 15.3555C26.2826 16.5572 25.9058 17.7336 25.0426 18.5984C24.1263 19.3577 23.1002 19.7027 21.9146 19.6999C21.7964 19.6999 21.6782 19.6999 21.5564 19.6999C21.4306 19.6993 21.3048 19.6987 21.1752 19.6981C21.045 19.698 20.9149 19.6978 20.7808 19.6977C20.3662 19.6971 19.9517 19.6957 19.5371 19.6943C19.2556 19.6937 18.974 19.6932 18.6925 19.6928C18.0033 19.6916 17.3142 19.6898 16.625 19.6875C16.6687 19.8038 16.7125 19.9201 16.7575 20.04C16.8162 20.1962 16.8748 20.3524 16.9335 20.5086C16.9765 20.623 16.9765 20.623 17.0204 20.7397C17.8281 22.8917 17.8281 22.8917 17.8281 23.1875C21.241 23.2035 24.6537 23.2127 28.0666 23.2127C28.4696 23.2127 28.8726 23.2127 29.2757 23.2128C29.3559 23.2128 29.4361 23.2129 29.5188 23.2129C30.8175 23.2133 32.1162 23.2183 33.4148 23.2251C34.7477 23.2319 36.0805 23.2338 37.4134 23.231C38.2357 23.2295 39.0578 23.2318 39.8801 23.2391C40.511 23.2443 41.1417 23.2425 41.7726 23.2382C42.0311 23.2375 42.2897 23.239 42.5482 23.243C43.7827 23.3205 43.7827 23.3205 44.9201 22.9519C45.2573 22.6079 45.4271 22.2037 45.6094 21.7656C45.7473 21.5526 45.8891 21.3421 46.0362 21.1354C46.1435 20.9777 46.1435 20.9777 46.253 20.8169C46.3271 20.7081 46.4012 20.5993 46.4776 20.4873C46.599 20.3088 46.7205 20.1304 46.8419 19.952C46.9253 19.8296 47.0086 19.7071 47.092 19.5847C47.4624 19.0408 47.8321 18.4965 48.2018 17.9521C48.4349 17.6093 48.6683 17.2666 48.9018 16.924C49.1672 16.5343 49.4311 16.1437 49.693 15.7517C49.7476 15.6706 49.8022 15.5895 49.8584 15.506C49.9563 15.3606 50.0536 15.2147 50.1501 15.0683C50.491 14.5645 50.8215 14.1949 51.4063 14C52.2175 13.9276 52.8334 13.9221 53.4844 14.4375C53.9135 14.9907 54.0811 15.4419 54.0667 16.1328C53.9301 17.1867 53.0592 18.1407 52.4639 18.9881C52.1206 19.4803 51.7846 19.9773 51.4473 20.4736C50.8542 21.3445 50.2578 22.213 49.6563 23.0781C49.7886 23.0796 49.7886 23.0796 49.9235 23.0812C50.3267 23.0871 50.7297 23.0962 51.1328 23.1054C51.2716 23.107 51.4103 23.1085 51.5532 23.1101C52.4591 23.1337 53.1518 23.1805 53.8189 23.8514C53.8687 23.9256 53.9185 23.9997 53.9697 24.0761C54.0474 24.1882 54.0474 24.1882 54.1265 24.3026C54.4962 24.8935 54.4125 25.5727 54.3594 26.25C54.1795 26.8797 53.6684 27.296 53.1563 27.6718C53.0841 27.7079 53.0119 27.744 52.9375 27.7812C52.9371 27.9837 52.9371 27.9837 52.9367 28.1903C52.9305 31.3924 52.9225 34.5946 52.9125 37.7967C52.9112 38.1906 52.91 38.5845 52.9088 38.9784C52.9086 39.0568 52.9083 39.1352 52.9081 39.216C52.9042 40.4868 52.9015 41.7575 52.8992 43.0283C52.8968 44.3316 52.8932 45.6349 52.8884 46.9382C52.8858 47.6705 52.8837 48.4028 52.8831 49.1351C52.8824 49.8238 52.8803 50.5124 52.8769 51.2011C52.8759 51.4544 52.8755 51.7077 52.8757 51.961C52.8759 52.3058 52.8741 52.6505 52.8718 52.9952C52.8726 53.147 52.8726 53.147 52.8734 53.3018C52.8723 53.3939 52.8713 53.486 52.8702 53.5809C52.87 53.6605 52.8698 53.7401 52.8696 53.8221C52.8151 54.0971 52.7236 54.1936 52.5 54.3593C52.1886 54.3906 51.9017 54.4027 51.5904 54.3991C51.4572 54.3992 51.4572 54.3992 51.3212 54.3992C51.1336 54.399 50.9459 54.3979 50.7583 54.3961C50.4704 54.3935 50.1827 54.3939 49.8949 54.3946C49.7127 54.394 49.5304 54.3932 49.3482 54.3922C49.2619 54.3923 49.1755 54.3924 49.0865 54.3925C48.4784 54.3846 48.4784 54.3846 48.2344 54.1406C48.2072 53.9451 48.2072 53.9451 48.2075 53.7037C48.207 53.6118 48.2066 53.52 48.2062 53.4253C48.2068 53.3238 48.2074 53.2223 48.2081 53.1177C48.2078 52.9567 48.2078 52.9567 48.2075 52.7923C48.2072 52.4302 48.2084 52.0682 48.2096 51.7061C48.2096 51.4474 48.2096 51.1888 48.2095 50.9301C48.2094 50.2992 48.2104 49.6683 48.2118 49.0374C48.2133 48.3035 48.2136 47.5696 48.2139 46.8356C48.2144 45.5267 48.2158 44.2178 48.2179 42.9089C48.2199 41.6372 48.2215 40.3655 48.2224 39.0938C48.2224 39.0154 48.2225 38.9371 48.2226 38.8563C48.2228 38.4633 48.2231 38.0702 48.2234 37.6772C48.2257 34.415 48.2295 31.1528 48.2344 27.8906C47.5847 27.8906 46.935 27.8906 46.2656 27.8906C46.1935 28.0711 46.1213 28.2515 46.0469 28.4375C45.9276 28.6267 45.8026 28.8124 45.6735 28.995C45.562 29.1537 45.562 29.1537 45.4483 29.3157C45.3706 29.4251 45.293 29.5346 45.2129 29.6474C44.6781 30.4054 44.1509 31.1668 43.6383 31.9401C43.281 32.4775 42.9171 33.0105 42.5537 33.5439C42.4318 33.723 42.3099 33.9021 42.188 34.0812C42.0626 34.2654 41.9372 34.4496 41.8118 34.6338C41.4916 35.1041 41.1718 35.5747 40.8519 36.0452C39.9928 37.3091 39.1325 38.5721 38.2713 39.8345C37.894 40.3877 37.5168 40.9409 37.1397 41.4941C37.0008 41.6978 36.862 41.9014 36.7231 42.1051C36.6648 42.1906 36.6065 42.2761 36.5465 42.3641C36.5054 42.4244 36.4643 42.4847 36.4219 42.5468C36.4825 42.5985 36.5432 42.6502 36.6056 42.7035C36.6849 42.7718 36.7641 42.8401 36.8457 42.9104C36.9244 42.9779 37.0031 43.0454 37.0841 43.1149C37.5249 43.5241 37.6434 43.9172 37.6729 44.5019C37.6581 45.0752 37.4774 45.4484 37.1875 45.9375C37.1153 45.9375 37.0431 45.9375 36.9688 45.9375C36.9846 46.0053 37.0004 46.0731 37.0166 46.143C37.2091 47.0611 37.3808 48.2015 37.0781 49.1093C37.1668 49.1043 37.2555 49.0992 37.3469 49.094C38.624 49.0523 39.6253 49.3319 40.5781 50.2031C41.3216 50.9207 41.7321 51.7887 41.8035 52.8213C41.8052 52.9318 41.8069 53.0423 41.8086 53.1562C41.8114 53.2668 41.8143 53.3773 41.8172 53.4912C41.7724 53.8915 41.7245 54.0569 41.4531 54.3593C41.0854 54.445 40.7201 54.4328 40.3441 54.4284C40.23 54.4291 40.116 54.4299 39.9985 54.4307C39.62 54.4326 39.2417 54.4305 38.8632 54.4281C38.5998 54.4282 38.3363 54.4285 38.0729 54.4289C37.5196 54.4292 36.9663 54.4276 36.4129 54.4246C35.7067 54.4209 35.0005 54.4215 34.2943 54.4236C33.7495 54.4248 33.2047 54.4238 32.6599 54.4221C32.3997 54.4216 32.1396 54.4216 31.8795 54.4223C29.6136 54.426 27.7785 54.1738 26.0625 52.5448C24.7954 51.2084 24.2358 49.5759 24.241 47.7589C24.2882 46.0003 24.9978 44.5016 26.2017 43.2304C26.9874 42.5064 28.201 41.7072 29.2963 41.6577C29.3738 41.6624 29.4514 41.667 29.5313 41.6718C29.52 41.5816 29.5087 41.4914 29.4971 41.3984C29.5441 40.8718 29.7315 40.5361 30.0781 40.1406C30.5555 39.7691 31.0684 39.6272 31.6692 39.6514C32.1971 39.7531 32.6674 40.0023 33.1406 40.25C33.1696 40.1888 33.1985 40.1275 33.2284 40.0645C33.3714 39.7894 33.5336 39.5379 33.7059 39.2801C33.7757 39.1755 33.8455 39.0709 33.9174 38.9631C33.9927 38.8509 34.068 38.7386 34.1455 38.623C34.2239 38.5059 34.3022 38.3888 34.3829 38.2682C35.0949 37.2054 35.8151 36.1484 36.5373 35.0926C36.9145 34.5405 37.2902 33.9875 37.666 33.4345C37.8217 33.2055 37.9774 32.9765 38.133 32.7475C38.2109 32.6329 38.2888 32.5183 38.3691 32.4002C38.574 32.0988 38.7791 31.7975 38.9842 31.4963C39.1091 31.3129 39.234 31.1294 39.3588 30.946C39.5143 30.7176 39.6698 30.4893 39.8253 30.261C40.3362 29.5103 40.84 28.7556 41.3438 28C34.6664 27.9639 27.9891 27.9278 21.1094 27.8906C21.1224 34.283 21.1224 34.283 21.139 40.6754C21.1404 41.9097 21.1404 41.9097 21.1407 42.487C21.141 42.8915 21.1423 43.296 21.144 43.7004C21.1463 44.2158 21.147 44.7311 21.1465 45.2464C21.1466 45.436 21.1473 45.6255 21.1485 45.815C21.1501 46.0703 21.1498 46.3255 21.1489 46.5808C21.1492 46.724 21.1495 46.8673 21.1498 47.0149C21.1094 47.3593 21.1094 47.3593 20.9762 47.5696C20.7193 47.7249 20.5477 47.7279 20.2477 47.7269C20.1377 47.7274 20.0278 47.7278 19.9145 47.7283C19.7939 47.7271 19.6734 47.7259 19.5492 47.7247C19.3587 47.7248 19.3587 47.7248 19.1644 47.7249C18.7436 47.7246 18.3228 47.7221 17.9021 47.7195C17.6107 47.7189 17.3194 47.7184 17.028 47.7181C16.3389 47.7171 15.6498 47.7144 14.9607 47.7111C14.1762 47.7074 13.3917 47.7056 12.6071 47.704C10.9933 47.7005 9.37947 47.6948 7.76565 47.6875C7.76614 47.7678 7.76662 47.8482 7.76712 47.931C7.7715 48.6874 7.77483 49.4438 7.77698 50.2003C7.77813 50.5892 7.77968 50.9781 7.78215 51.367C7.78498 51.8139 7.78605 52.2607 7.78701 52.7076C7.78814 52.8476 7.78927 52.9877 7.79043 53.1319C7.79046 53.3257 7.79046 53.3257 7.79048 53.5234C7.79097 53.6375 7.79146 53.7517 7.79196 53.8693C7.76565 54.1406 7.76565 54.1406 7.5469 54.3593C7.24485 54.3825 6.95405 54.3926 6.65182 54.3922C6.56308 54.3927 6.47435 54.3932 6.38292 54.3937C6.19509 54.3943 6.00725 54.3943 5.81941 54.3939C5.5318 54.3935 5.24432 54.3961 4.95672 54.3989C4.77436 54.3991 4.592 54.3992 4.40963 54.3991C4.32349 54.4001 4.23735 54.4011 4.1486 54.4021C3.5509 54.3971 3.5509 54.3971 3.31315 54.2208C3.13989 53.9882 3.13111 53.87 3.13165 53.5821C3.13102 53.4903 3.13039 53.3985 3.12974 53.3039C3.13072 53.203 3.1317 53.1021 3.13271 52.9981C3.13244 52.891 3.13218 52.7838 3.13191 52.6734C3.1314 52.3127 3.13323 51.952 3.13502 51.5912C3.13511 51.3333 3.13505 51.0753 3.13484 50.8174C3.13467 50.2611 3.13548 49.7048 3.13701 49.1485C3.13912 48.3437 3.13898 47.5389 3.13803 46.7342C3.1365 45.4279 3.13594 44.1216 3.13647 42.8153C3.1365 42.7371 3.13653 42.6589 3.13656 42.5783C3.13704 41.4683 3.1385 40.3583 3.14034 39.2483C3.14047 39.1701 3.1406 39.0919 3.14074 39.0114C3.14087 38.9333 3.141 38.8553 3.14113 38.7748C3.14324 37.4736 3.14283 36.1724 3.14035 34.8711C3.13879 33.9967 3.14031 33.1223 3.14392 32.2479C3.14548 31.7045 3.14433 31.1611 3.14239 30.6177C3.14204 30.3652 3.14282 30.1126 3.1448 29.8601C3.14734 29.516 3.14587 29.1722 3.14339 28.8282C3.1451 28.7275 3.14681 28.6269 3.14857 28.5232C3.14432 28.2595 3.13531 28.0347 3.06253 27.7812C2.75728 27.5001 2.75728 27.5001 2.40628 27.3437C2.20248 27.145 2.20248 27.145 2.04397 26.9541C1.99025 26.8908 1.93654 26.8275 1.88119 26.7622C1.47566 26.1929 1.5653 25.3789 1.64065 24.7187C1.90722 24.062 2.33471 23.6267 2.95315 23.2968C3.31178 23.1773 3.5736 23.1743 3.95106 23.175C4.08899 23.1751 4.22693 23.1751 4.36904 23.1751C4.51957 23.1756 4.67011 23.1762 4.82064 23.1768C4.97466 23.177 5.12868 23.1771 5.28271 23.1772C5.68782 23.1777 6.09293 23.1787 6.49804 23.1799C6.91153 23.1811 7.32503 23.1816 7.73852 23.1821C8.54965 23.1833 9.36077 23.1852 10.1719 23.1875C10.2121 22.983 10.2121 22.983 10.2531 22.7743C10.3937 22.1415 10.6148 21.5446 10.8418 20.9384C10.8826 20.8281 10.9233 20.7178 10.9653 20.6041C11.0649 20.3348 11.165 20.0657 11.2657 19.7968C11.1579 19.7955 11.1579 19.7955 11.0481 19.7942C10.2974 19.7847 9.54687 19.7738 8.7963 19.7621C8.51657 19.7579 8.23683 19.7541 7.95708 19.7507C7.55388 19.7457 7.15071 19.7393 6.74752 19.7327C6.62341 19.7315 6.4993 19.7302 6.37143 19.7289C4.92827 19.7024 3.82668 19.4147 2.74722 18.4211C2.14422 17.7313 1.73908 16.8423 1.73393 15.9215C1.73315 15.8251 1.73236 15.7287 1.73156 15.6294C1.73126 15.5244 1.73097 15.4195 1.73067 15.3114C1.72995 15.2002 1.72923 15.0889 1.72849 14.9744C1.72633 14.6061 1.72505 14.2379 1.72396 13.8696C1.72352 13.7436 1.72307 13.6176 1.72261 13.4878C1.72033 12.8205 1.71877 12.1532 1.71774 11.4859C1.71653 10.7984 1.71277 10.111 1.70843 9.42352C1.70556 8.89345 1.70465 8.36338 1.70426 7.83331C1.70373 7.58 1.70246 7.3267 1.70043 7.07341C1.69775 6.7177 1.69787 6.36209 1.69862 6.00637C1.69722 5.90297 1.69582 5.79958 1.69438 5.69305C1.70354 4.50427 2.1132 3.47318 2.95315 2.62496C4.08963 1.69084 5.16121 1.59193 6.58127 1.59639ZM3.82815 3.82808C3.43434 4.3463 3.15964 4.82521 3.1558 5.48758C3.15502 5.58048 3.15424 5.67338 3.15343 5.76909C3.15314 5.87068 3.15284 5.97227 3.15254 6.07695C3.15182 6.18423 3.1511 6.29151 3.15036 6.40204C3.1482 6.75772 3.14693 7.11339 3.14584 7.46907C3.14539 7.59063 3.14495 7.71218 3.14449 7.83742C3.14221 8.48106 3.14064 9.1247 3.13962 9.76835C3.13841 10.4322 3.13465 11.096 3.1303 11.7598C3.12744 12.271 3.12653 12.7822 3.12613 13.2934C3.1256 13.5381 3.12433 13.7827 3.1223 14.0273C3.11963 14.3705 3.11974 14.7136 3.1205 15.0568C3.1191 15.1571 3.1177 15.2573 3.11625 15.3606C3.12256 16.1477 3.31576 16.8009 3.80892 17.4239C3.87618 17.4806 3.94343 17.5373 4.01272 17.5957C4.07856 17.654 4.14441 17.7124 4.21224 17.7725C5.13184 18.3298 6.08274 18.3128 7.13119 18.308C7.29784 18.3085 7.46449 18.3091 7.63114 18.3098C8.0813 18.3113 8.53143 18.3107 8.98158 18.3097C9.45408 18.3088 9.92657 18.3096 10.3991 18.3101C11.1923 18.3107 11.9856 18.3099 12.7788 18.3084C13.6942 18.3066 14.6095 18.3072 15.5249 18.309C16.3127 18.3105 17.1005 18.3107 17.8883 18.3098C18.358 18.3093 18.8277 18.3092 19.2974 18.3103C19.7391 18.3113 20.1808 18.3106 20.6225 18.3087C20.784 18.3083 20.9455 18.3084 21.107 18.3091C22.2505 18.3138 23.2452 18.2815 24.1168 17.4726C24.557 16.9604 24.8403 16.3059 24.8442 15.63C24.845 15.539 24.8458 15.4479 24.8466 15.3541C24.8469 15.2545 24.8472 15.155 24.8475 15.0524C24.8486 14.8947 24.8486 14.8947 24.8497 14.7338C24.8518 14.3852 24.8531 14.0367 24.8542 13.6881C24.8547 13.5689 24.8551 13.4498 24.8556 13.327C24.8578 12.6962 24.8594 12.0653 24.8604 11.4344C24.8616 10.7838 24.8654 10.1332 24.8697 9.48265C24.8726 8.98158 24.8735 8.48052 24.8739 7.97944C24.8744 7.7397 24.8757 7.49995 24.8778 7.26021C24.8804 6.92383 24.8803 6.58755 24.8796 6.25116C24.881 6.15294 24.8824 6.05472 24.8838 5.95352C24.8772 5.14139 24.6271 4.54158 24.2061 3.85543C23.4221 3.09261 22.5632 2.9401 21.4956 2.93846C21.3581 2.93799 21.2206 2.93753 21.0789 2.93704C20.9284 2.93708 20.778 2.93713 20.6275 2.9372C20.4676 2.93687 20.3076 2.9365 20.1476 2.93608C19.7146 2.93512 19.2816 2.93486 18.8486 2.93479C18.5777 2.93471 18.3067 2.93448 18.0357 2.93419C17.0891 2.93318 16.1426 2.93273 15.196 2.93282C14.3157 2.93288 13.4354 2.93173 12.5551 2.93C11.7975 2.92857 11.04 2.92798 10.2825 2.92805C9.83083 2.92808 9.37917 2.92777 8.92751 2.92661C8.50242 2.92555 8.07734 2.92555 7.65226 2.92634C7.49698 2.92645 7.3417 2.9262 7.18642 2.92554C5.34553 2.90236 5.34553 2.90236 3.82815 3.82808ZM51.5133 15.6345C51.4485 15.7333 51.3837 15.832 51.317 15.9337C51.2055 16.0992 51.2055 16.0992 51.0918 16.2681C51.0151 16.3859 50.9384 16.5036 50.8594 16.625C50.7014 16.8556 50.5432 17.086 50.3847 17.3162C50.2166 17.564 50.0493 17.8123 49.8819 18.0605C49.7909 18.195 49.6999 18.3294 49.609 18.4639C49.4232 18.7383 49.2376 19.0128 49.052 19.2873C48.6438 19.8909 48.2341 20.4933 47.8242 21.0957C47.7479 21.2079 47.6716 21.3202 47.5929 21.4358C47.0295 22.2641 46.4652 23.0919 45.9007 23.9195C45.3836 24.6776 44.8675 25.4363 44.3516 26.1953C43.7689 27.0525 43.1857 27.9093 42.6016 28.7656C41.707 30.0771 40.8144 31.3901 39.9219 32.7031C38.9636 34.1129 38.0051 35.5226 37.0442 36.9307C36.6681 37.4821 36.2926 38.034 35.9177 38.5863C35.8324 38.712 35.747 38.8378 35.6616 38.9635C35.4973 39.2056 35.3331 39.4477 35.169 39.6898C35.0946 39.7994 35.0203 39.9089 34.9436 40.0218C34.8779 40.1188 34.8122 40.2157 34.7444 40.3156C34.626 40.4865 34.5029 40.6543 34.3746 40.8179C34.2133 41.0049 34.2133 41.0049 34.2344 41.2343C34.7217 41.505 34.7217 41.505 35.2188 41.7812C35.2632 41.7143 35.3076 41.6474 35.3534 41.5784C36.358 40.0659 37.3716 38.56 38.3967 37.0613C38.7738 36.5093 39.1496 35.9562 39.5254 35.4033C39.6415 35.2326 39.6415 35.2326 39.7599 35.0584C39.9962 34.7108 40.2325 34.3632 40.4688 34.0156C41.4282 32.6041 42.3881 31.1929 43.3498 29.7829C44.1772 28.5697 45.0026 27.3551 45.8281 26.1406C46.7873 24.7296 47.7467 23.3188 48.7082 21.9094C49.0705 21.3782 49.4324 20.8468 49.7938 20.3151C49.8727 20.1992 49.9515 20.0832 50.0327 19.9638C50.1906 19.7314 50.3482 19.4988 50.5056 19.2661C50.8726 18.724 51.2429 18.1853 51.625 17.6538C51.7258 17.512 51.7258 17.512 51.8286 17.3674C51.9535 17.1921 52.0799 17.0178 52.2081 16.8449C52.5447 16.3754 52.5447 16.3754 52.5983 15.8093C52.5262 15.5417 52.5262 15.5417 52.3906 15.4218C51.901 15.3602 51.901 15.3602 51.5133 15.6345ZM12.9063 19.6875C12.5789 20.4482 12.2752 21.2113 11.9971 21.9912C11.968 22.0719 11.9388 22.1526 11.9088 22.2357C11.7924 22.5664 11.7032 22.8342 11.7032 23.1875C13.2191 23.1875 14.735 23.1875 16.2969 23.1875C16.0815 22.3976 15.86 21.6452 15.5723 20.8837C15.5382 20.7919 15.5041 20.7 15.4689 20.6054C15.2976 20.1395 15.2976 20.1395 15.0938 19.6875C14.3719 19.6875 13.65 19.6875 12.9063 19.6875ZM3.06253 25.1562C2.98048 25.5437 2.98048 25.5437 3.06253 25.9218C3.26674 26.1805 3.42572 26.3222 3.71878 26.4687C3.92861 26.4805 4.13886 26.4852 4.34903 26.4868C4.48405 26.488 4.61906 26.4892 4.75817 26.4905C4.90937 26.4913 5.06058 26.4921 5.21179 26.4929C5.37136 26.4941 5.53092 26.4954 5.69049 26.4967C6.13058 26.5001 6.57068 26.5029 7.01078 26.5055C7.38788 26.5078 7.76498 26.5105 8.14208 26.5131C11.7172 26.5384 15.2925 26.5519 18.8677 26.5627C19.3333 26.5641 19.7988 26.5656 20.2644 26.5671C20.3801 26.5675 20.4958 26.5678 20.615 26.5682C22.4889 26.5743 24.3628 26.5866 26.2366 26.6012C28.16 26.6161 30.0834 26.6247 32.0068 26.6275C33.087 26.6293 34.167 26.6338 35.2471 26.6455C36.1672 26.6555 37.0871 26.6599 38.0072 26.6571C38.4767 26.6558 38.9457 26.6572 39.4151 26.6658C41.1807 26.7816 41.1807 26.7816 42.8072 26.3022C43.2448 25.8753 43.47 25.4093 43.6406 24.8281C43.6406 24.7559 43.6406 24.6837 43.6406 24.6093C38.5502 24.5968 33.4598 24.5872 28.3693 24.5814C27.7687 24.5807 27.1681 24.58 26.5675 24.5793C26.4479 24.5792 26.3283 24.579 26.2051 24.5789C24.2676 24.5765 22.33 24.5722 20.3924 24.5671C18.4052 24.562 16.4179 24.559 14.4306 24.5579C13.2038 24.5571 11.9769 24.5548 10.7501 24.5503C9.9095 24.5474 9.06887 24.5466 8.22824 24.5473C7.74282 24.5476 7.25744 24.5471 6.77203 24.5441C6.32786 24.5415 5.88377 24.5413 5.43961 24.5432C5.2787 24.5434 5.11779 24.5427 4.95689 24.541C4.73856 24.5389 4.52021 24.5404 4.30188 24.542C4.18048 24.5418 4.05908 24.5416 3.934 24.5414C3.50026 24.6322 3.33521 24.8141 3.06253 25.1562ZM48.0246 25.1767C47.839 25.4865 47.839 25.4865 47.6875 25.8125C47.6264 25.9339 47.5653 26.0552 47.5024 26.1803C47.4316 26.3231 47.4316 26.3231 47.3594 26.4687C48.0523 26.4743 48.7453 26.4781 49.4382 26.4807C49.674 26.4818 49.9097 26.4833 50.1454 26.4852C50.4842 26.4879 50.8231 26.4891 51.1619 26.4901C51.2673 26.4912 51.3727 26.4923 51.4813 26.4935C51.5798 26.4935 51.6783 26.4935 51.7798 26.4935C51.8663 26.494 51.9527 26.4945 52.0418 26.495C52.3168 26.4648 52.486 26.3985 52.7188 26.25C52.9922 25.8398 52.9962 25.642 52.9375 25.1562C52.6424 24.7688 52.4728 24.626 51.991 24.5282C51.8377 24.5202 51.6841 24.5155 51.5306 24.5136C51.4485 24.5116 51.3664 24.5095 51.2817 24.5073C51.1085 24.5041 50.9352 24.5023 50.7619 24.502C50.4985 24.5 50.2366 24.4886 49.9735 24.4769C49.1516 24.4592 48.5535 24.4637 48.0246 25.1767ZM4.59378 27.8906C4.59378 36.1921 4.59378 44.4937 4.59378 53.0468C5.17128 53.0468 5.74878 53.0468 6.34378 53.0468C6.34378 44.7453 6.34378 36.4437 6.34378 27.8906C5.76628 27.8906 5.18878 27.8906 4.59378 27.8906ZM7.76565 27.8906C7.76565 29.6231 7.76565 31.3556 7.76565 33.1406C11.6999 33.1406 15.6341 33.1406 19.6875 33.1406C19.6875 31.4081 19.6875 29.6756 19.6875 27.8906C15.7533 27.8906 11.8191 27.8906 7.76565 27.8906ZM49.6563 27.8906C49.6563 36.1921 49.6563 44.4937 49.6563 53.0468C50.2338 53.0468 50.8113 53.0468 51.4063 53.0468C51.4063 44.7453 51.4063 36.4437 51.4063 27.8906C50.8288 27.8906 50.2513 27.8906 49.6563 27.8906ZM7.76565 34.5625C7.76565 36.2228 7.76565 37.8831 7.76565 39.5937C11.6999 39.5937 15.6341 39.5937 19.6875 39.5937C19.6875 37.9334 19.6875 36.2731 19.6875 34.5625C15.7533 34.5625 11.8191 34.5625 7.76565 34.5625ZM7.76565 41.0156C7.76565 42.7481 7.76565 44.4806 7.76565 46.2656C11.6999 46.2656 15.6341 46.2656 19.6875 46.2656C19.6875 44.5331 19.6875 42.8006 19.6875 41.0156C15.7533 41.0156 11.8191 41.0156 7.76565 41.0156ZM30.9531 41.3437C30.8658 41.6565 30.8658 41.6565 30.9531 42C31.1916 42.2286 31.3993 42.3942 31.6709 42.5742C31.7445 42.6255 31.8182 42.6768 31.894 42.7296C32.1257 42.8899 32.3594 43.0468 32.5938 43.2031C32.739 43.3011 32.8843 43.399 33.0296 43.497C33.3041 43.6815 33.58 43.8637 33.8567 44.0448C34.2789 44.3227 34.6827 44.6242 35.0825 44.9334C35.4046 45.1026 35.6259 45.1087 35.9844 45.0625C36.2292 44.7632 36.2292 44.7632 36.1972 44.469C36.0568 44.0868 35.8639 43.9644 35.5332 43.7295C35.4752 43.6878 35.4172 43.6461 35.3574 43.6032C35.1668 43.4676 34.9744 43.335 34.7813 43.2031C34.7159 43.1583 34.6506 43.1135 34.5832 43.0674C34.1756 42.7895 33.7647 42.5171 33.3516 42.2474C33.1362 42.1064 32.9218 41.964 32.7074 41.8214C32.5693 41.7304 32.4312 41.6396 32.293 41.5488C32.2291 41.5061 32.1651 41.4633 32.0993 41.4193C31.63 41.114 31.4436 41.0167 30.9531 41.3437ZM28.4375 43.4218C27.0637 44.1824 26.2824 45.2744 25.8006 46.7454C25.4554 48.1457 25.7557 49.442 26.4483 50.6748C27.1708 51.8009 28.169 52.5057 29.4531 52.8781C30.2079 53.029 30.9618 53.0627 31.7297 53.0593C31.8707 53.0593 31.8707 53.0593 32.0146 53.0593C32.3217 53.0592 32.6289 53.0584 32.936 53.0575C33.1504 53.0573 33.3648 53.0572 33.5792 53.057C34.1407 53.0566 34.7022 53.0556 35.2638 53.0543C35.8379 53.0532 36.412 53.0527 36.9861 53.0522C38.1105 53.051 39.235 53.0491 40.3594 53.0468C40.3274 52.8899 40.2947 52.7331 40.2616 52.5764C40.2434 52.4891 40.2252 52.4018 40.2065 52.3118C40.0291 51.64 39.5068 51.1235 38.9375 50.75C38.3941 50.527 37.9206 50.4991 37.3435 50.4975C37.1627 50.4947 36.9819 50.4919 36.8011 50.4891C36.5181 50.486 36.2351 50.4833 35.9521 50.4813C35.6776 50.4789 35.4031 50.4746 35.1286 50.4701C35.0439 50.4701 34.9591 50.4701 34.8717 50.4701C34.2929 50.4594 34.2929 50.4594 34.0127 50.2795C33.8302 49.9609 33.9393 49.6716 34.0156 49.3281C34.2279 49.1158 34.6143 49.175 34.8975 49.1572C35.0386 49.148 35.1797 49.1389 35.3252 49.1294C35.4344 49.1228 35.5437 49.1162 35.6563 49.1093C35.8733 48.3956 35.84 47.5307 35.7178 46.7988C35.5863 46.4766 35.5863 46.4766 35.3591 46.4104C35.2811 46.391 35.203 46.3715 35.1226 46.3515C34.4369 46.14 33.8913 45.7469 33.3047 45.3427C33.1333 45.2266 33.1333 45.2266 32.9583 45.1082C32.1764 44.5766 31.4006 44.0359 30.6349 43.4813C29.7869 42.8711 29.3651 43.0288 28.4375 43.4218Z" fill="#113065"/>
<path d="M40.4687 7.8749C40.8023 8.12279 40.8963 8.26445 40.9814 8.67556C40.9927 8.81288 41.004 8.95021 41.0156 9.09169C41.1527 10.3994 41.6499 11.5212 42.6152 12.4345C43.587 13.2203 44.5581 13.5321 45.7832 13.6595C46.4342 13.735 46.4342 13.735 46.7095 13.9884C46.8621 14.3295 46.8223 14.5249 46.7031 14.8749C46.2747 15.2043 45.9005 15.2566 45.3701 15.3056C43.9726 15.4641 42.9374 15.9979 42.0273 17.0829C41.3235 18.0513 41.0668 19.0371 40.9669 20.2069C40.9042 20.5744 40.846 20.744 40.5781 20.9999C39.9378 21.0799 39.9378 21.0799 39.6305 20.8837C39.4119 20.5666 39.4164 20.2316 39.3887 19.8583C39.2517 18.5117 38.7633 17.3521 37.7403 16.4339C36.8652 15.7458 35.9383 15.3422 34.8222 15.2645C34.0224 15.1986 34.0224 15.1986 33.6875 14.8749C33.5683 14.5249 33.5285 14.3295 33.6811 13.9884C34.0328 13.6647 34.4208 13.6789 34.8838 13.6308C36.3508 13.4364 37.5533 12.8711 38.4722 11.6727C39.1056 10.6981 39.4146 9.60551 39.4438 8.44826C39.5406 7.86309 39.9373 7.79897 40.4687 7.8749ZM40.1406 11.703C40.0416 11.8466 39.9467 11.9931 39.8535 12.1405C39.2588 13.0374 38.6912 13.6263 37.7519 14.1699C37.6739 14.2221 37.5959 14.2743 37.5156 14.328C37.5156 14.4002 37.5156 14.4724 37.5156 14.5468C37.7107 14.6981 37.7107 14.6981 37.9599 14.8476C38.9457 15.4914 39.519 16.1739 40.1406 17.1718C40.3557 16.9056 40.5677 16.6391 40.7699 16.363C41.3407 15.5999 42.0154 14.9766 42.875 14.5468C42.875 14.4746 42.875 14.4024 42.875 14.328C42.699 14.2122 42.5179 14.1043 42.3349 13.9999C41.4139 13.4302 40.7336 12.6703 40.25 11.703C40.2139 11.703 40.1778 11.703 40.1406 11.703Z" fill="#113065"/>
<path d="M27.5078 31.124C27.8906 31.1719 27.8906 31.1719 28.0722 31.3C28.2702 31.5702 28.2835 31.7908 28.3213 32.1221C28.464 33.0694 28.7508 33.6789 29.5009 34.2921C30.0453 34.6441 30.6396 34.7553 31.2744 34.8359C31.6094 34.8906 31.6094 34.8906 31.8213 35.0205C31.9959 35.3184 31.9798 35.537 31.9375 35.875C31.7685 36.0978 31.6398 36.1879 31.3906 36.3125C31.188 36.3387 30.9851 36.3636 30.7822 36.3877C30.006 36.5152 29.4268 36.7851 28.9194 37.3981C28.5653 37.9283 28.4014 38.4676 28.2747 39.0909C28.2562 39.1801 28.2378 39.2694 28.2187 39.3613C28.203 39.4445 28.1872 39.5277 28.1709 39.6134C28.1506 39.6791 28.1303 39.7448 28.1094 39.8125C27.7721 39.9811 27.4959 39.9544 27.125 39.9219C26.7964 39.5948 26.7491 39.3064 26.7012 38.8555C26.5842 38.0683 26.308 37.5235 25.7168 36.9893C25.0488 36.5216 24.4738 36.3793 23.6746 36.2822C23.3385 36.1832 23.244 36.0699 23.0781 35.7656C23.1022 35.3639 23.1186 35.1783 23.4062 34.8906C23.6647 34.836 23.9248 34.7893 24.1855 34.7471C24.9917 34.5972 25.582 34.4311 26.112 33.7832C26.5187 33.1775 26.6686 32.6229 26.7401 31.9008C26.8403 31.3867 26.9834 31.1896 27.5078 31.124ZM27.4531 34.3438C27.3322 34.4803 27.2114 34.6171 27.0908 34.7539C26.9899 34.8681 26.9899 34.8681 26.887 34.9846C26.7014 35.2025 26.5284 35.4254 26.3594 35.6562C26.4187 35.7077 26.4781 35.7592 26.5392 35.8122C26.6175 35.8803 26.6957 35.9484 26.7764 36.0186C26.8538 36.0858 26.9312 36.1531 27.0109 36.2224C27.2017 36.3927 27.384 36.567 27.5625 36.75C27.6259 36.6728 27.6259 36.6728 27.6907 36.5941C27.9924 36.2334 28.2753 35.9347 28.6562 35.6562C28.6562 35.5841 28.6562 35.5119 28.6562 35.4375C28.4719 35.251 28.4719 35.251 28.2393 35.0615C27.966 34.8311 27.702 34.6005 27.4531 34.3438Z" fill="#113065"/>
<path d="M13.7744 42.0615C13.8945 42.0579 14.0145 42.0543 14.1382 42.0506C15.0183 42.0447 15.0183 42.0447 15.3954 42.3679C15.5312 42.6563 15.5312 42.6563 15.5244 42.9434C15.4121 43.2279 15.3341 43.345 15.0938 43.5313C14.6619 43.6016 14.225 43.5819 13.7881 43.5791C13.608 43.5824 13.608 43.5824 13.4243 43.5857C13.3087 43.5857 13.1932 43.5856 13.0742 43.5855C12.9158 43.5858 12.9158 43.5858 12.7542 43.5861C12.3864 43.5154 12.2542 43.3904 12.0312 43.0938C12.0381 42.6973 12.0381 42.6973 12.1406 42.3281C12.6504 41.9883 13.1747 42.0647 13.7744 42.0615Z" fill="#113065"/>
<path d="M13.7812 35.3964C13.8785 35.3952 13.9758 35.3939 14.076 35.3926C14.6066 35.395 15.0007 35.4047 15.4219 35.7656C15.5312 36.0869 15.5312 36.0869 15.5312 36.4218C15.4073 36.6579 15.4073 36.6579 15.2031 36.8593C14.91 36.9159 14.91 36.9159 14.5605 36.9174C14.3719 36.9183 14.3719 36.9183 14.1794 36.9191C14.048 36.9174 13.9166 36.9157 13.7812 36.914C13.6498 36.9157 13.5184 36.9174 13.3831 36.9191C13.1944 36.9183 13.1944 36.9183 13.002 36.9174C12.829 36.9167 12.829 36.9167 12.6525 36.9159C12.3594 36.8593 12.3594 36.8593 12.1552 36.6579C12.0312 36.4218 12.0312 36.4218 12.0312 36.0869C12.1406 35.7656 12.1406 35.7656 12.3525 35.584C12.8311 35.3746 13.2647 35.3897 13.7812 35.3964Z" fill="#113065"/>
<path d="M13.0635 28.8461C13.1794 28.8458 13.2953 28.8455 13.4147 28.8452C13.5961 28.8465 13.5961 28.8465 13.7812 28.8478C13.9022 28.8469 14.0232 28.8461 14.1478 28.8452C14.3217 28.8456 14.3217 28.8456 14.499 28.8461C14.6052 28.8463 14.7114 28.8466 14.8207 28.8468C15.0938 28.8751 15.0938 28.8751 15.4219 29.0939C15.5312 29.4015 15.5312 29.4015 15.5312 29.7501C15.3052 30.0819 15.1242 30.2689 14.7225 30.3496C14.407 30.3708 14.0974 30.3716 13.7812 30.3654C13.6197 30.3685 13.6197 30.3685 13.4548 30.3718C12.9304 30.3682 12.6613 30.3581 12.2295 30.0411C12.0312 29.7501 12.0312 29.7501 12.0312 29.4015C12.2239 28.8596 12.544 28.8473 13.0635 28.8461Z" fill="#113065"/>
<path d="M33.0312 7.32815C33.3307 7.54434 33.3307 7.54434 33.6123 7.83401C33.7066 7.92791 33.8009 8.02181 33.8981 8.11856C34.1508 8.45639 34.2228 8.65868 34.2343 9.07815C34.0088 9.39944 34.0088 9.39944 33.6875 9.62503C33.0015 9.59807 32.7028 9.2748 32.2519 8.79574C31.9615 8.42127 31.8913 8.23713 31.9375 7.76565C32.2339 7.30324 32.504 7.26403 33.0312 7.32815Z" fill="#113065"/>
<path d="M33.7627 4.12211C34.0156 4.26567 34.0156 4.26567 34.2344 4.59379C34.2178 5.17088 34.014 5.43805 33.6123 5.83793C33.4729 5.98132 33.4729 5.98132 33.3307 6.1276C32.9756 6.38396 32.8037 6.40257 32.375 6.34379C32.1084 6.17289 32.1084 6.17289 31.9375 5.90629C31.9048 5.48192 31.9684 5.24108 32.2314 4.9044C33.1349 3.96153 33.1349 3.96153 33.7627 4.12211Z" fill="#113065"/>
<path d="M30.625 7.32823C30.8301 7.44444 30.8301 7.44444 30.9531 7.65635C31.0046 8.12176 31.0079 8.34476 30.7331 8.73216C30.5882 8.86962 30.5882 8.86962 30.4404 9.00987C30.3453 9.1032 30.2501 9.19654 30.152 9.29271C29.8527 9.5208 29.6839 9.59934 29.3125 9.6251C29.0165 9.51821 28.9075 9.47142 28.7656 9.1876C28.7109 8.90049 28.7109 8.90049 28.7656 8.53135C29.2282 7.85906 29.7566 7.21736 30.625 7.32823Z" fill="#113065"/>
<path d="M30.2375 4.47546C30.9329 5.14549 30.9329 5.14549 31.0351 5.67389C30.9531 6.01569 30.9531 6.01569 30.8301 6.2276C30.5029 6.413 30.3421 6.41426 29.9687 6.34381C29.4965 6.01644 29.0812 5.62265 28.7656 5.14069C28.7198 4.69194 28.73 4.53789 28.9844 4.15631C29.4724 3.93753 29.8422 4.16693 30.2375 4.47546Z" fill="#113065"/>
</svg>
