<svg width="56" height="56" viewBox="0 0 56 56" fill="none" xmlns="http://www.w3.org/2000/svg">
<g clip-path="url(#clip0_39_53)">
<path d="M30.4815 -0.0409728C30.6308 -0.0407084 30.6308 -0.0407084 30.7832 -0.0404387C32.9027 -0.00320015 34.8269 0.510579 36.4223 1.94743C37.2641 2.82501 37.8174 4.04743 37.9531 5.25004C38.0377 5.25949 38.1223 5.26894 38.2095 5.27867C39.276 5.42254 39.9893 5.73132 40.667 6.5822C41.0206 7.12425 41.0413 7.68313 41.0156 8.31254C42.0967 8.44933 42.8345 8.4731 43.7227 7.81352C44.7045 6.87106 44.8702 5.05207 45.1958 3.78128C45.2724 3.48309 45.3503 3.18523 45.4282 2.88737C45.4623 2.75216 45.4623 2.75216 45.497 2.61421C45.7003 1.84038 45.9538 1.08464 46.5869 0.56059C46.6579 0.499964 46.7288 0.439337 46.8018 0.376874C47.5114 -0.112001 48.2766 -0.0862319 49.1094 4.28706e-05C49.9217 0.233222 50.4489 0.689705 50.8594 1.42192C51.0409 1.81577 51.1053 2.12085 51.1045 2.55359C51.1049 2.72728 51.1049 2.72728 51.1054 2.90447C51.1046 3.03035 51.1038 3.15622 51.103 3.28591C51.103 3.41934 51.103 3.55277 51.1031 3.69024C51.103 4.05517 51.1019 4.42007 51.1003 4.78499C51.099 5.16671 51.0988 5.54843 51.0986 5.93016C51.0979 6.65257 51.0961 7.37498 51.0939 8.09739C51.0915 8.92002 51.0903 9.74264 51.0892 10.5653C51.0869 12.2571 51.083 13.9489 51.0781 15.6407C51.1984 15.6383 51.3186 15.636 51.4425 15.6336C52.0617 15.6445 52.4625 15.916 52.9375 16.2969C53.5115 16.9795 53.5938 17.5414 53.5938 18.4161C53.6126 18.9903 53.6126 18.9903 53.9022 19.4726C54.1535 19.6298 54.1535 19.6298 54.4231 19.7632C55.1383 20.1503 55.601 20.9151 55.8906 21.6563C56.0372 22.1632 56.0328 22.6632 56.041 23.1875C56.0451 23.2862 56.0492 23.3849 56.0534 23.4866C56.0631 24.2092 56.063 24.2092 55.7488 24.5688C55.3464 24.7729 55.1168 24.7287 54.6875 24.6094C54.3791 24.3936 54.3194 24.2044 54.25 23.8438C54.2391 23.5978 54.2302 23.3517 54.2227 23.1055C54.1651 22.2402 53.9411 21.7675 53.3203 21.1778C52.6894 20.7677 52.1616 20.7488 51.4277 20.7495C51.3202 20.7488 51.2127 20.748 51.102 20.7473C50.747 20.7452 50.392 20.7448 50.0369 20.7445C49.7897 20.7438 49.5425 20.7431 49.2952 20.7423C48.7769 20.741 48.2587 20.7406 47.7404 20.7408C47.0773 20.7408 46.4142 20.7378 45.7511 20.734C45.2404 20.7316 44.7296 20.7311 44.2189 20.7313C43.9745 20.731 43.7301 20.73 43.4857 20.7283C43.1433 20.7262 42.801 20.7268 42.4585 20.7282C42.3582 20.7269 42.2579 20.7257 42.1546 20.7244C41.5043 20.7308 41.0122 20.851 40.4688 21.2188C40.2391 21.4537 40.2391 21.4537 40.0928 21.7178C40.0411 21.8014 39.9893 21.885 39.936 21.9712C39.6965 22.4211 39.6868 22.7881 39.6807 23.2914C39.6796 23.3695 39.6785 23.4476 39.6774 23.5281C39.6739 23.7807 39.6712 24.0334 39.6685 24.286C39.6665 24.442 39.6645 24.5981 39.6624 24.7541C39.6549 25.3325 39.6483 25.9109 39.6416 26.4893C39.6258 27.7819 39.61 29.0745 39.5938 30.4063C44.4303 30.4063 49.2669 30.4063 54.25 30.4063C54.25 29.504 54.25 28.6016 54.25 27.6719C54.5781 26.9063 54.5781 26.9063 54.7969 26.7969C55.4651 26.7351 55.4651 26.7351 55.8025 26.9493C56.1073 27.3893 56.061 27.8076 56.0566 28.331C56.0578 28.4981 56.0578 28.4981 56.059 28.6685C56.0609 29.0373 56.0596 29.406 56.0581 29.7748C56.0584 30.0315 56.0589 30.2882 56.0594 30.5449C56.06 31.0835 56.0591 31.6221 56.0571 32.1607C56.0546 32.8492 56.056 33.5376 56.0586 34.2261C56.0602 34.7566 56.0597 35.2872 56.0586 35.8177C56.0583 36.0714 56.0586 36.3251 56.0597 36.5788C56.0608 36.9348 56.0591 37.2907 56.0566 37.6467C56.0575 37.7505 56.0584 37.8543 56.0593 37.9612C56.047 38.948 55.7303 39.7949 55.125 40.5782C55.0136 40.669 54.9023 40.7598 54.7875 40.8533C54.4079 41.2294 54.3925 41.5576 54.3829 42.0765C54.3842 42.1776 54.3854 42.2787 54.3867 42.3829C54.3859 42.5845 54.3842 42.7862 54.3816 42.9878C54.3827 43.1208 54.3827 43.1208 54.3839 43.2564C54.3594 43.5313 54.3594 43.5313 54.2394 43.8349C54.1233 44.2496 54.1654 44.4455 54.2865 44.855C54.3237 44.9847 54.361 45.1145 54.3994 45.2481C54.4303 45.351 54.4303 45.351 54.4619 45.456C54.5271 45.6733 54.5899 45.8913 54.652 46.1096C54.8071 46.6525 54.9656 47.1943 55.1253 47.7358C56.4212 52.1301 56.4212 52.1301 55.7223 53.7583C55.1413 54.7509 54.2605 55.5794 53.156 55.9321C52.3967 56.0895 51.605 56.0452 50.8327 56.0424C50.6279 56.0429 50.4231 56.0435 50.2183 56.0442C49.6567 56.0458 49.0951 56.0454 48.5334 56.0445C47.9273 56.044 47.3211 56.0454 46.715 56.0465C45.5279 56.0484 44.3409 56.0485 43.1538 56.0479C42.1889 56.0475 41.2241 56.0476 40.2592 56.0482C40.0532 56.0483 40.0532 56.0483 39.843 56.0485C39.564 56.0486 39.285 56.0488 39.006 56.049C37.1329 56.05 35.2597 56.0505 33.3865 56.0497C33.3133 56.0496 33.2401 56.0496 33.1646 56.0496C32.5701 56.0493 31.9755 56.049 31.3809 56.0487C29.062 56.0476 26.743 56.0485 24.424 56.0511C21.8174 56.0539 19.2108 56.0553 16.6042 56.0546C15.2245 56.0542 13.8448 56.0544 12.4652 56.0563C11.2906 56.0579 10.1161 56.058 8.94163 56.0561C8.34249 56.0552 7.74338 56.0549 7.14424 56.0566C6.59546 56.0581 6.04671 56.0576 5.49793 56.0555C5.29973 56.0551 5.10152 56.0554 4.90332 56.0565C3.38358 56.0647 2.24988 55.9351 1.11129 54.829C0.181403 53.8419 -0.0839865 52.8967 -0.0496693 51.5366C0.0228015 50.3702 0.421996 49.2407 0.745142 48.125C0.827484 47.835 0.909038 47.5447 0.990568 47.2544C1.14956 46.6893 1.30946 46.1244 1.47028 45.5597C1.84548 44.2419 2.2127 42.9218 2.57888 41.6014C2.70527 41.1458 2.83166 40.6901 2.95806 40.2345C2.98969 40.1205 3.02132 40.0065 3.05391 39.889C3.27805 39.0812 3.50297 38.2737 3.72839 37.4663C3.77565 37.297 3.77565 37.297 3.82386 37.1243C3.94918 36.6754 4.07452 36.2266 4.19986 35.7778C4.57116 34.4478 4.94004 33.1173 5.30458 31.7855C5.44342 31.2789 5.58329 30.7726 5.72304 30.2663C5.79392 30.0083 5.86429 29.7502 5.93408 29.4919C6.82957 26.1787 6.82957 26.1787 8.41848 25.1225C9.35372 24.5993 10.4564 24.5768 11.5022 24.5846C11.6176 24.5846 11.733 24.5845 11.8519 24.5845C12.2288 24.5846 12.6058 24.5863 12.9828 24.5881C13.2459 24.5885 13.509 24.5888 13.7721 24.589C14.4613 24.5898 15.1505 24.592 15.8397 24.5944C16.5443 24.5966 17.2489 24.5976 17.9535 24.5987C19.3336 24.6011 20.7137 24.6048 22.0938 24.6094C22.1006 24.5292 22.1074 24.4489 22.1144 24.3662C22.1238 24.2597 22.1331 24.1531 22.1427 24.0434C22.1563 23.8857 22.1563 23.8857 22.1702 23.7249C22.2213 23.231 22.3119 22.7466 22.4052 22.2591C22.4245 22.1556 22.4438 22.052 22.4636 21.9453C22.545 21.5078 22.6277 21.0706 22.7103 20.6333C22.7709 20.3117 22.8308 19.99 22.8906 19.6683C22.9188 19.5212 22.9188 19.5212 22.9475 19.371C23.1312 18.4675 23.1312 18.4675 22.9141 17.5957C22.4565 16.5961 22.8079 15.3264 23.0064 14.2891C23.0513 14.0524 23.093 13.8152 23.1345 13.5779C23.1628 13.4258 23.1913 13.2737 23.22 13.1216C23.2452 12.9856 23.2704 12.8497 23.2964 12.7095C23.4164 12.327 23.53 12.166 23.8438 11.9219C24.187 11.8218 24.4028 11.7828 24.7461 11.8877C24.9813 12.0641 25.0492 12.1956 25.1563 12.4688C25.175 13.3865 24.9369 14.3184 24.7596 15.2143C24.5346 16.1469 24.5346 16.1469 24.7201 17.0437C25.0557 17.2416 25.4134 17.2981 25.792 17.3633C25.8685 17.3784 25.945 17.3935 26.0238 17.409C26.4874 17.4932 26.8835 17.5304 27.3438 17.3907C27.4839 17.0936 27.5775 16.8276 27.6719 16.5157C28.2093 14.9973 29.003 13.9897 30.4234 13.2152C31.0534 12.9279 31.7055 12.8233 32.3819 12.7012C33.1908 12.5522 33.8434 12.3997 34.4531 11.8125C34.515 11.7552 34.5769 11.6978 34.6407 11.6387C35.9139 10.3156 36.1396 7.71846 36.1621 5.96782C36.1256 4.94034 35.8085 3.97951 35.0833 3.22874C34.1803 2.44987 33.1849 2.20716 32.0469 1.96879C31.9575 1.94779 31.8681 1.92678 31.776 1.90513C30.4315 1.68243 29.2299 1.81686 28.0765 2.57078C27.0831 3.3472 26.7127 4.48104 26.5098 5.68071C26.4878 5.79847 26.4658 5.91623 26.4431 6.03756C26.3562 6.50428 26.2739 6.97173 26.1929 7.43952C26.1571 7.64473 26.1206 7.84981 26.0832 8.05473C26.0496 8.23942 26.0178 8.42448 25.9883 8.60988C25.8857 9.17175 25.7432 9.48814 25.2656 9.84379C24.9487 9.90996 24.6914 9.84937 24.3906 9.73442C24.1651 9.5225 24.1651 9.5225 24.0625 9.18754C24.0681 8.23833 24.308 7.27204 24.4832 6.34235C24.5341 6.07116 24.5832 5.79969 24.6323 5.52818C24.9503 3.80801 25.4561 2.31811 26.8623 1.16258C27.9774 0.406436 29.1312 -0.0434888 30.4815 -0.0409728ZM47.4688 2.18754C47.3117 2.56124 47.2193 2.94701 47.1236 3.34025C47.0941 3.45357 47.0646 3.56689 47.0342 3.68364C46.9402 4.0458 46.8488 4.40857 46.7578 4.77153C46.6666 5.13206 46.5748 5.49239 46.4815 5.85239C46.4236 6.07607 46.3669 6.30006 46.3116 6.5244C45.9879 7.78235 45.4865 8.86021 44.3601 9.5742C43.0918 10.2497 41.9724 10.1738 40.5781 10.0625C40.5327 10.1982 40.4874 10.3338 40.4406 10.4736C40.2955 10.8594 40.1512 11.0971 39.8262 11.3614C39.7543 11.422 39.6824 11.4826 39.6083 11.5451C38.909 12.0189 38.2602 11.9257 37.4492 11.8557C36.897 11.8274 36.897 11.8274 36.4418 12.1035C36.2761 12.3283 36.13 12.5588 35.9844 12.7969C34.9759 13.8926 33.8337 14.2557 32.4031 14.4902C31.4268 14.6585 30.574 15.0335 29.9316 15.8201C29.549 16.3736 29.3909 16.96 29.207 17.6017C29.0116 18.1813 28.7336 18.5787 28.2188 18.9219C28.1298 19.1662 28.1298 19.1662 28.0825 19.4568C28.0611 19.5673 28.0397 19.6777 28.0176 19.7915C27.9852 19.9701 27.9852 19.9701 27.9522 20.1524C27.9291 20.274 27.906 20.3957 27.8822 20.521C27.8345 20.7738 27.7875 21.0268 27.741 21.2799C27.6752 21.6381 27.6076 21.9958 27.5395 22.3536C27.4992 22.5677 27.459 22.7819 27.419 22.9961C27.3909 23.1453 27.3909 23.1453 27.3622 23.2975C27.3452 23.3903 27.3283 23.4832 27.3109 23.5789C27.296 23.6594 27.2812 23.74 27.2659 23.823C27.2225 24.1126 27.2225 24.1126 27.2344 24.6094C30.7355 24.6094 34.2366 24.6094 37.8438 24.6094C37.8799 23.8514 37.916 23.0935 37.9531 22.3125C38.3407 21.0206 38.7272 20.2827 39.8322 19.5205C40.707 19.0637 41.5109 18.9809 42.4892 18.9753C42.6165 18.9734 42.7438 18.9714 42.8749 18.9694C43.2783 18.9635 43.6816 18.9598 44.085 18.9561C44.3598 18.9525 44.6346 18.9487 44.9094 18.9448C45.5802 18.9355 46.251 18.928 46.9219 18.9219C46.9278 18.8171 46.9337 18.7123 46.9398 18.6043C46.9484 18.4666 46.957 18.3289 46.9659 18.1871C46.9741 18.0506 46.9822 17.9142 46.9907 17.7737C47.0674 17.0504 47.3164 16.6092 47.8721 16.1465C48.1855 15.9063 48.4724 15.8225 48.853 15.7417C48.9419 15.7226 49.0308 15.7035 49.1224 15.6838C49.1903 15.6696 49.2582 15.6553 49.3281 15.6407C49.3409 13.9103 49.3506 12.18 49.3565 10.4496C49.3593 9.64611 49.3631 8.84268 49.3694 8.03924C49.3749 7.33892 49.3784 6.63862 49.3796 5.93828C49.3803 5.56748 49.382 5.19673 49.386 4.82595C49.3899 4.4119 49.3905 3.99798 49.3902 3.58392C49.3922 3.46111 49.3942 3.3383 49.3962 3.21177C49.3945 2.53268 49.3945 2.53268 49.0748 1.94689C48.4606 1.53495 47.9541 1.67386 47.4688 2.18754ZM37.9531 7.10942C37.7723 7.61258 37.6533 8.11595 37.5567 8.64067C37.542 8.71568 37.5273 8.79068 37.5122 8.86796C37.4298 9.30846 37.3909 9.7241 37.4063 10.1719C37.7491 10.3433 38.1316 10.3744 38.5 10.2813C38.9249 9.87425 39.0294 9.48304 39.1358 8.91411C39.1774 8.70262 39.1774 8.70262 39.2199 8.48686C39.2703 8.05371 39.2686 7.73197 39.0401 7.35551C38.6995 7.13577 38.3539 7.14227 37.9531 7.10942ZM48.8189 17.5449C48.5879 17.9368 48.5879 17.9368 48.6719 18.9219C49.7186 18.9219 50.7653 18.9219 51.8438 18.9219C51.9103 18.0271 51.9103 18.0271 51.6968 17.6064C51.2429 17.2693 50.8081 17.3153 50.2578 17.3291C50.1539 17.3279 50.05 17.3267 49.943 17.3255C49.5149 17.33 49.2001 17.3425 48.8189 17.5449ZM24.8281 19.0313C24.6642 19.8986 24.5007 20.7659 24.3374 21.6333C24.2616 22.0364 24.1856 22.4395 24.1094 22.8425C23.7437 24.777 23.3899 26.7122 23.0781 28.6563C23.2512 28.6933 23.4244 28.7296 23.5977 28.7657C23.7423 28.7961 23.7423 28.7961 23.8899 28.8272C24.1961 28.8872 24.1961 28.8872 24.6094 28.875C24.8727 27.7904 25.0837 26.7014 25.2806 25.6032C25.312 25.4294 25.3434 25.2557 25.3748 25.082C25.44 24.7211 25.505 24.3603 25.5698 23.9994C25.6528 23.5368 25.7364 23.0742 25.8202 22.6118C25.8849 22.2545 25.9493 21.8972 26.0136 21.5399C26.0444 21.3692 26.0752 21.1985 26.1061 21.0278C26.149 20.7905 26.1916 20.5531 26.2341 20.3158C26.2584 20.1809 26.2826 20.046 26.3076 19.907C26.3679 19.5796 26.3679 19.5796 26.3594 19.25C26.1863 19.2131 26.0131 19.1767 25.8399 19.1407C25.7434 19.1204 25.647 19.1001 25.5476 19.0791C25.2414 19.0191 25.2414 19.0191 24.8281 19.0313ZM8.64065 27.2344C8.30695 27.7603 8.09822 28.2631 7.93719 28.8656C7.91392 28.9493 7.89066 29.0329 7.86669 29.1191C7.78986 29.3962 7.71453 29.6737 7.63918 29.9513C7.58458 30.1494 7.52989 30.3474 7.4751 30.5454C7.3583 30.9684 7.24216 31.3915 7.12653 31.8148C6.94399 32.4831 6.76003 33.1509 6.57585 33.8187C6.35676 34.6134 6.13801 35.4082 5.91974 36.2032C5.45095 37.9106 4.97794 39.6168 4.50336 41.3226C4.3461 41.8879 4.1894 42.4534 4.03291 43.0189C3.63069 44.4716 3.22427 45.9228 2.80575 47.371C2.69737 47.7484 2.5891 48.1259 2.48087 48.5034C2.38295 48.8426 2.28303 49.1811 2.18296 49.5196C1.6514 51.1886 1.6514 51.1886 1.86017 52.8801C2.1896 53.4769 2.74432 54.015 3.39065 54.25C3.92927 54.3421 4.44649 54.3732 4.99249 54.3735C5.11414 54.3738 5.11414 54.3738 5.23825 54.3741C5.50955 54.3746 5.78083 54.3743 6.05212 54.374C6.24878 54.3742 6.44544 54.3745 6.6421 54.3748C7.18219 54.3755 7.72227 54.3755 8.26235 54.3753C8.84495 54.3753 9.42755 54.3759 10.0101 54.3764C11.1514 54.3773 12.2926 54.3776 13.4339 54.3777C14.3614 54.3777 15.289 54.378 16.2165 54.3783C18.8459 54.3793 21.4753 54.3798 24.1047 54.3797C24.2465 54.3797 24.3882 54.3797 24.5343 54.3797C24.6762 54.3797 24.8181 54.3797 24.9643 54.3797C27.2651 54.3796 29.5659 54.3807 31.8666 54.3822C34.2287 54.3838 36.5907 54.3845 38.9528 54.3844C40.279 54.3844 41.6053 54.3847 42.9316 54.3859C44.0606 54.3869 45.1897 54.3871 46.3187 54.3864C46.8948 54.386 47.4708 54.386 48.0469 54.387C48.5743 54.3878 49.1018 54.3877 49.6292 54.3867C49.8199 54.3865 50.0106 54.3867 50.2013 54.3874C51.9482 54.4353 51.9482 54.4353 53.4844 53.7032C54.0117 53.1583 54.2814 52.7249 54.2861 51.9606C54.2732 51.1848 54.1094 50.4977 53.8911 49.7567C53.8547 49.6276 53.8183 49.4985 53.7808 49.3655C53.6655 48.9584 53.5477 48.552 53.4297 48.1456C53.3505 47.8675 53.2715 47.5895 53.1926 47.3114C53.0001 46.6341 52.8056 45.9575 52.6094 45.2813C52.5416 45.2819 52.4739 45.2824 52.4041 45.283C52.2709 45.2837 52.2709 45.2837 52.135 45.2843C52.0029 45.2852 52.0029 45.2852 51.8681 45.286C51.1433 45.2719 50.5776 44.9567 50.0399 44.493C49.3897 43.7198 49.467 43.0413 49.3281 42C47.74 42 46.1519 42 44.5156 42C44.4796 42.4693 44.4435 42.9385 44.4063 43.4219C44.1137 44.1793 43.8395 44.7059 43.0938 45.0625C42.3202 45.3758 41.5423 45.3259 40.7764 45.0079C40.1687 44.6785 39.8077 44.0636 39.5938 43.4219C39.5889 43.2646 39.5895 43.1071 39.5938 42.9498C39.6338 41.6745 39.6338 41.6745 39.0127 40.6124C38.924 40.5325 38.8354 40.4527 38.744 40.3705C38.1958 39.854 37.9813 39.0889 37.938 38.3508C37.9373 38.261 37.9366 38.1712 37.9358 38.0786C37.9342 37.9229 37.9342 37.9229 37.9326 37.764C37.932 37.6514 37.9313 37.5388 37.9307 37.4228C37.9296 37.3033 37.9285 37.1837 37.9274 37.0605C37.924 36.6658 37.9212 36.2711 37.9185 35.8763C37.9163 35.6025 37.914 35.3286 37.9117 35.0547C37.9062 34.4079 37.9013 33.761 37.8966 33.1141C37.8897 32.1758 37.8818 31.2376 37.8741 30.2993C37.8634 28.986 37.8537 27.6727 37.8438 26.3594C34.2344 26.3594 30.625 26.3594 26.9063 26.3594C26.3583 28.0033 26.2315 29.5617 26.2709 31.283C26.3111 33.1002 26.1865 34.8122 25.8467 36.5997C25.8281 36.7005 25.8094 36.8013 25.7902 36.9052C25.7361 37.1928 25.6788 37.4794 25.6198 37.766C25.5954 37.8917 25.5954 37.8917 25.5704 38.0199C25.4544 38.5474 25.2647 38.9467 24.9605 39.3932C24.6772 39.7828 24.6772 39.7828 24.6497 40.2384C24.6975 40.346 24.6975 40.346 24.7462 40.4558C24.7818 40.5383 24.8174 40.6208 24.854 40.7058C24.9146 40.8391 24.9146 40.8391 24.9764 40.9751C25.0376 41.1152 25.0376 41.1152 25.1001 41.2582C25.1879 41.4588 25.2765 41.6591 25.3658 41.8592C25.5052 42.1716 25.6423 42.4849 25.7787 42.7986C25.96 43.2151 26.1418 43.6313 26.3244 44.0471C26.6544 44.7987 26.983 45.5506 27.3028 46.3067C27.3524 46.4186 27.4021 46.5305 27.4532 46.6457C27.7928 47.4555 27.9631 48.2932 27.7008 49.155C27.4326 49.7901 26.9351 50.2493 26.3201 50.5467C25.6566 50.7626 24.8781 50.7579 24.2403 50.4629C23.942 50.2915 23.7229 50.0912 23.4883 49.8409C23.3394 49.6954 23.3394 49.6954 23.1875 49.5469C22.8269 49.5748 22.6516 49.7224 22.4014 49.9707C21.7881 50.5147 21.0756 50.7054 20.2626 50.6714C19.4464 50.5698 18.8167 50.2703 18.2656 49.6563C18.0303 49.3376 17.8148 49.0105 17.6094 48.6719C17.2713 48.7309 17.0318 48.7967 16.7207 48.9522C16.0956 49.2247 15.4391 49.2152 14.7926 49.0171C14.1216 48.7212 13.7534 48.355 13.4531 47.6875C13.3403 47.349 13.3182 47.0928 13.3096 46.7374C13.3035 46.5743 13.3035 46.5743 13.2972 46.4079C13.4033 45.5856 13.8972 44.9788 14.4307 44.3721C14.4867 44.3058 14.5428 44.2394 14.6005 44.1711C14.9136 43.8095 15.1986 43.5164 15.6406 43.3125C16.0454 43.3363 16.2263 43.3514 16.5156 43.6407C16.6174 44.1494 16.6056 44.3804 16.3148 44.8177C16.0035 45.1968 15.6796 45.5606 15.3441 45.9183C15.0993 46.1879 14.9882 46.3537 14.9229 46.7168C14.9657 47.0381 14.9657 47.0381 15.1553 47.2979C15.42 47.5024 15.42 47.5024 15.7842 47.462C16.1903 47.3719 16.1903 47.3719 16.5567 47.1885C17.1154 46.967 17.6025 46.9212 18.1793 47.1108C18.8026 47.3958 19.1031 47.7787 19.4619 48.3575C19.7037 48.6944 19.8498 48.848 20.2344 49C20.9142 49.0262 21.2542 48.7169 21.7516 48.3062C22.2638 47.9077 22.7729 47.8517 23.4063 47.9063C23.9554 48.0257 24.2973 48.2238 24.6778 48.6377C24.9391 48.9187 25.0073 48.9915 25.3955 49.0752C25.7783 48.9817 25.918 48.8879 26.1406 48.5625C26.2176 47.945 25.9977 47.488 25.7523 46.9373C25.6916 46.7971 25.6916 46.7971 25.6297 46.6541C25.4981 46.3509 25.3649 46.0485 25.2315 45.7461C25.095 45.4345 24.9589 45.1228 24.8228 44.8111C24.7325 44.6041 24.642 44.3972 24.5514 44.1904C24.2903 43.5924 24.0391 42.9918 23.8002 42.3846C23.7475 42.2526 23.6948 42.1206 23.6405 41.9846C23.5461 41.746 23.4538 41.5065 23.3641 41.2661C23.1289 40.6465 23.1289 40.6465 22.5915 40.2958C22.4634 40.2807 22.3352 40.2656 22.2031 40.25C22.0454 40.2139 22.0454 40.2139 21.8844 40.177C21.7866 40.1582 21.6887 40.1395 21.5879 40.1202C21.4895 40.1006 21.3911 40.081 21.2897 40.0608C20.9537 40.0266 20.7712 40.0198 20.4531 40.1407C20.1803 40.3721 19.9455 40.6323 19.708 40.8995C19.6427 40.9702 19.5773 41.0409 19.51 41.1137C19.1562 41.4523 19.1562 41.4523 19.0313 41.8907C18.6426 42.0202 18.3455 42.0292 17.9375 42C17.7256 41.8907 17.7256 41.8907 17.6094 41.6719C17.5237 40.9479 17.5237 40.9479 17.7294 40.5855C17.8947 40.3768 18.0684 40.1831 18.252 39.9903C18.3127 39.923 18.3735 39.8558 18.4361 39.7865C18.6654 39.5339 18.8994 39.2881 19.1406 39.0469C19.1176 38.8738 19.0932 38.7008 19.0645 38.5286C18.8878 37.2144 19.144 35.9134 19.3799 34.6241C19.3985 34.5207 19.417 34.4174 19.4362 34.3109C19.7164 32.7839 20.1133 31.4045 20.8284 30.0241C21.2386 29.2096 21.4231 28.4655 21.5671 27.5673C21.5865 27.451 21.6059 27.3346 21.6259 27.2147C21.6733 26.9297 21.7199 26.6446 21.7656 26.3594C20.2853 26.3518 18.8049 26.346 17.3245 26.3424C16.6371 26.3407 15.9496 26.3384 15.2622 26.3347C14.5984 26.3311 13.9346 26.3291 13.2708 26.3283C13.018 26.3277 12.7651 26.3265 12.5122 26.3247C12.1572 26.3223 11.8023 26.322 11.4473 26.3222C11.3434 26.321 11.2396 26.3198 11.1326 26.3186C10.1507 26.3231 9.33863 26.5202 8.64065 27.2344ZM22.6406 30.2969C22.5053 30.5563 22.3699 30.8158 22.2305 31.0831C22.1888 31.1615 22.1471 31.2399 22.1041 31.3207C21.5026 32.4999 21.2429 33.7773 21.0148 35.0701C20.9724 35.3095 20.9282 35.5486 20.8838 35.7877C20.8558 35.9428 20.8279 36.098 20.8001 36.2532C20.7754 36.3907 20.7507 36.5283 20.7252 36.6701C20.5922 37.4846 20.5922 37.4846 20.8701 38.2129C21.5838 38.5768 22.608 38.7641 23.4063 38.6094C23.7263 38.3567 23.7965 38.1342 23.8745 37.7404C23.8965 37.6326 23.9185 37.5248 23.9411 37.4137C23.9631 37.2984 23.9851 37.1832 24.0078 37.0645C24.0312 36.9459 24.0546 36.8273 24.0786 36.7051C24.1254 36.4659 24.1717 36.2265 24.2173 35.9871C24.2717 35.706 24.3294 35.4261 24.3894 35.1462C24.6998 33.6445 24.6883 32.1432 24.5 30.625C23.8864 30.5168 23.2728 30.4085 22.6406 30.2969ZM39.5938 32.1563C39.5938 33.203 39.5938 34.2497 39.5938 35.3282C44.4303 35.3282 49.2669 35.3282 54.25 35.3282C54.25 34.2814 54.25 33.2347 54.25 32.1563C49.4135 32.1563 44.5769 32.1563 39.5938 32.1563ZM39.5938 37.0782C39.5601 38.4643 39.5601 38.4643 40.2116 39.5737C41.0254 40.3111 41.9063 40.3759 42.9625 40.3753C43.0571 40.3757 43.1516 40.376 43.249 40.3764C43.5603 40.3775 43.8715 40.3777 44.1828 40.3778C44.4002 40.3781 44.6176 40.3785 44.835 40.3789C45.2904 40.3796 45.7458 40.3798 46.2012 40.3797C46.783 40.3797 47.3647 40.3812 47.9465 40.383C48.3955 40.3843 48.8445 40.3845 49.2935 40.3844C49.5079 40.3846 49.7223 40.385 49.9367 40.3859C50.2374 40.387 50.5381 40.3866 50.8388 40.386C50.9263 40.3866 51.0138 40.3872 51.1039 40.3879C51.9865 40.383 52.7839 40.2763 53.4844 39.7032C54.3224 38.8373 54.25 38.4082 54.25 37.0782C49.4135 37.0782 44.5769 37.0782 39.5938 37.0782ZM41.2344 42C41.1645 42.7297 41.1645 42.7297 41.4258 43.3741C41.7444 43.5827 41.7444 43.5827 42.1094 43.6407C42.5138 43.4472 42.5138 43.4472 42.7656 43.0938C42.7733 42.9071 42.7749 42.7201 42.7725 42.5332C42.7702 42.3573 42.768 42.1813 42.7656 42C42.2603 42 41.755 42 41.2344 42ZM51.0781 42C51.0234 42.6901 51.0234 42.6901 51.2696 43.3125C51.57 43.5874 51.57 43.5874 51.9531 43.6407C52.1985 43.5151 52.4136 43.399 52.6094 43.2032C52.6173 43.0005 52.6186 42.7976 52.6162 42.5948C52.614 42.3985 52.6117 42.2023 52.6094 42C52.1041 42 51.5988 42 51.0781 42Z" fill="#113065"/>
<path d="M48.5428 22.5034C49.4395 23.0192 49.8782 23.7064 50.2373 24.6639C50.4516 25.7551 50.2361 26.707 49.6357 27.6513C49.1311 28.2972 48.3802 28.7366 47.5781 28.8749C46.507 28.9647 45.5867 28.7948 44.7344 28.1093C43.9141 27.3172 43.6291 26.6844 43.5928 25.5458C43.6204 24.3847 44.0128 23.6576 44.8438 22.8593C45.9079 22.034 47.3264 21.931 48.5428 22.5034ZM45.5684 24.6845C45.339 25.1521 45.2989 25.5194 45.3906 26.0311C45.6809 26.5909 45.9956 26.9255 46.5938 27.1249C47.2202 27.184 47.5299 27.0868 48.0156 26.6874C48.3831 26.3298 48.5404 26.0163 48.5796 25.4975C48.5423 24.9918 48.3324 24.577 47.9558 24.2384C47.065 23.6581 46.2507 23.9123 45.5684 24.6845Z" fill="#113065"/>
<path d="M33.7067 3.9814C34.2019 4.4151 34.6209 4.9386 34.7018 5.60622C34.733 6.48672 34.601 7.31881 34.4395 8.18251C34.4189 8.2999 34.3984 8.4173 34.3772 8.53825C34.1889 9.48276 33.8437 10.132 33.0654 10.7118C32.458 11.0538 31.7998 11.1199 31.118 10.9981C30.399 10.7874 29.8873 10.4329 29.4971 9.78212C28.9884 8.74598 29.2275 7.69745 29.4492 6.61024C29.4829 6.43228 29.4829 6.43228 29.5172 6.25072C29.7201 5.23797 29.9488 4.44509 30.8292 3.84895C31.7516 3.3337 32.8368 3.37616 33.7067 3.9814ZM31.6094 5.46864C31.3491 6.07253 31.2192 6.69931 31.0899 7.34169C31.0669 7.45137 31.0669 7.45137 31.0435 7.56327C30.9502 8.05933 30.9496 8.47645 31.0625 8.96864C31.3523 9.22626 31.5088 9.29916 31.8965 9.28993C32.2333 9.15697 32.3006 9.06494 32.4844 8.74989C32.5883 8.39883 32.6563 8.04311 32.7236 7.68349C32.743 7.58846 32.7624 7.49343 32.7824 7.39552C33.0065 6.41073 33.0065 6.41073 32.792 5.47548C32.352 5.21758 32.0393 5.19386 31.6094 5.46864Z" fill="#113065"/>
</g>
<defs>
<clipPath id="clip0_39_53">
<rect width="56" height="56" fill="white"/>
</clipPath>
</defs>
</svg>
