<svg width="56" height="56" viewBox="0 0 56 56" fill="none" xmlns="http://www.w3.org/2000/svg">
<path d="M7.65625 7.76551C7.8354 7.88036 7.8354 7.88036 7.98438 8.09363C8.01298 8.37667 8.02261 8.63274 8.01642 8.91523C8.01595 8.99488 8.01549 9.07453 8.01501 9.15659C8.01318 9.41071 8.00906 9.66474 8.00488 9.91883C8.00324 10.0912 8.00174 10.2636 8.0004 10.436C7.99678 10.8584 7.99112 11.2807 7.98438 11.703C8.3969 11.694 8.80926 11.6817 9.22168 11.6688C9.39436 11.6651 9.39436 11.6651 9.57053 11.6614C11.3186 11.6022 12.7057 11.0127 14.0078 9.86366C15.5615 8.50553 17.3688 7.73009 19.4309 7.73547C19.543 7.73491 19.6552 7.73435 19.7708 7.73377C20.1391 7.73226 20.5074 7.73236 20.8757 7.73261C21.1335 7.73219 21.3913 7.73171 21.6492 7.73119C22.1888 7.73038 22.7283 7.73041 23.2679 7.73098C23.9567 7.73162 24.6455 7.72977 25.3343 7.72723C25.8666 7.72561 26.3989 7.72552 26.9312 7.72586C27.1851 7.7258 27.4389 7.72524 27.6927 7.72413C29.2896 7.71803 30.7024 7.73195 32.1494 8.48328C32.2593 8.53919 32.2593 8.53919 32.3714 8.59624C33.1338 8.99895 33.7899 9.51594 34.4531 10.0624C35.8384 11.1896 37.1735 11.6135 38.9375 11.662C39.064 11.6662 39.1904 11.6705 39.3207 11.6748C39.6305 11.6851 39.9402 11.6944 40.25 11.703C40.2483 11.5954 40.2466 11.4878 40.2448 11.3769C40.2389 10.9776 40.2351 10.5783 40.232 10.1789C40.2303 10.0061 40.2281 9.83329 40.2252 9.66048C40.2213 9.41205 40.2194 9.16368 40.218 8.91523C40.2163 8.83797 40.2146 8.76071 40.2128 8.68112C40.2127 8.36545 40.2158 8.14579 40.3917 7.87779C40.5781 7.76551 40.5781 7.76551 40.9678 7.77235C41.3438 7.87488 41.3438 7.87488 41.475 8.05367C41.591 8.39662 41.5894 8.69198 41.5888 9.05428C41.5891 9.16605 41.5891 9.16605 41.5894 9.28008C41.5897 9.52965 41.5885 9.77918 41.5873 10.0287C41.5873 10.2077 41.5873 10.3866 41.5874 10.5656C41.5875 11.0514 41.5862 11.5372 41.5847 12.023C41.5833 12.5307 41.5832 13.0384 41.5829 13.5461C41.5822 14.5075 41.5805 15.469 41.5783 16.4304C41.5758 17.5249 41.5746 18.6194 41.5735 19.714C41.5712 21.9655 41.5674 24.2171 41.5625 26.4686C41.6828 26.4672 41.8032 26.4657 41.9272 26.4641C42.2922 26.4682 42.5305 26.508 42.8682 26.6327C42.9526 26.6632 43.0371 26.6936 43.1241 26.725C43.1863 26.7487 43.2484 26.7724 43.3125 26.7968C43.3074 26.7175 43.3023 26.6383 43.2971 26.5566C43.2719 25.8817 43.2768 25.4617 43.75 24.9374C44.2973 24.4435 44.7181 24.3501 45.4376 24.3606C45.8973 24.4095 46.1171 24.5416 46.4844 24.828C46.9525 25.4724 46.983 25.9824 46.9715 26.7649C46.9716 26.8802 46.9717 26.9956 46.9717 27.1144C46.9714 27.4937 46.968 27.873 46.9646 28.2524C46.9638 28.5161 46.9632 28.7799 46.9627 29.0436C46.9611 29.7364 46.9568 30.4292 46.9519 31.122C46.9474 31.8295 46.9454 32.537 46.9432 33.2445C46.9386 34.6318 46.9312 36.0189 46.9219 37.4061C47.0603 37.4044 47.1988 37.4027 47.3415 37.4009C47.8574 37.395 48.3733 37.3912 48.8892 37.3881C49.1121 37.3865 49.335 37.3842 49.5578 37.3814C49.8791 37.3774 50.2002 37.3755 50.5214 37.3741C50.6203 37.3724 50.7193 37.3707 50.8212 37.369C51.585 37.3688 52.1053 37.487 52.6982 38.0009C53.1534 38.5341 53.2047 38.9369 53.1909 39.6274C53.1262 40.1775 52.8396 40.4633 52.4521 40.8309C52.1622 41.0219 51.9621 41.068 51.625 41.1249C51.6305 41.1885 51.636 41.2521 51.6416 41.3176C51.6989 41.983 51.7556 42.6484 51.8119 43.3139C51.833 43.5618 51.8542 43.8097 51.8756 44.0576C51.9064 44.4151 51.9366 44.7727 51.9668 45.1303C51.9764 45.2401 51.9859 45.3498 51.9958 45.4629C52.1386 47.1751 52.1386 47.1751 51.9326 47.6737C51.6416 48.0149 51.3933 48.2096 50.935 48.2646C50.6093 48.2771 50.2852 48.2786 49.9594 48.2767C49.7734 48.2776 49.7734 48.2776 49.5836 48.2785C49.1737 48.2799 48.7639 48.2789 48.354 48.2778C48.0692 48.2781 47.7844 48.2784 47.4996 48.2788C46.9027 48.2794 46.3058 48.2786 45.7089 48.277C45.0194 48.2753 44.33 48.2758 43.6405 48.2776C42.9765 48.2793 42.3124 48.2791 41.6484 48.2782C41.3661 48.278 41.0839 48.2782 40.8017 48.279C40.4073 48.2798 40.0131 48.2785 39.6187 48.2767C39.5019 48.2774 39.3851 48.278 39.2647 48.2787C38.2761 48.2702 38.2761 48.2702 37.8438 47.9061C37.4509 47.4416 37.4862 46.9998 37.5293 46.4227C37.5351 46.3275 37.5408 46.2322 37.5468 46.1341C37.6547 44.4626 37.8074 42.7934 37.9531 41.1249C37.8323 41.0933 37.7115 41.0617 37.587 41.0292C37.177 40.9029 37.0104 40.8019 36.75 40.4686C36.75 40.3964 36.75 40.3243 36.75 40.2499C27.1852 40.2499 17.6203 40.2499 7.76563 40.2499C7.62125 40.8635 7.47688 41.4771 7.32813 42.1093C6.85712 43.8565 6.85712 43.8565 6.03613 44.3856C5.30749 44.6571 4.77971 44.6821 4.05884 44.4074C3.45167 44.1162 3.0868 43.7275 2.84375 43.0936C2.79622 42.6762 2.79892 42.2615 2.80129 41.8417C2.80043 41.6538 2.80043 41.6538 2.79955 41.462C2.79811 41.0483 2.79906 40.6346 2.80017 40.2208C2.79995 39.9326 2.79963 39.6443 2.79922 39.3561C2.79862 38.7518 2.79941 38.1476 2.80097 37.5433C2.80276 36.8471 2.80218 36.1509 2.80037 35.4547C2.7987 34.7826 2.79888 34.1106 2.79984 33.4385C2.80006 33.1537 2.7998 32.8689 2.79903 32.584C2.79819 32.1849 2.79947 31.7857 2.80129 31.3866C2.80063 31.2698 2.79997 31.1531 2.79928 31.0328C2.81191 29.5301 3.31429 28.3501 4.33356 27.2569C5.06881 26.5748 5.82172 26.4623 6.78125 26.4686C6.78095 26.3736 6.78065 26.2785 6.78033 26.1806C6.7731 23.8703 6.76766 21.56 6.76425 19.2498C6.76256 18.1326 6.76025 17.0154 6.7565 15.8981C6.75323 14.9247 6.75111 13.9512 6.75038 12.9777C6.74995 12.462 6.74894 11.9463 6.74656 11.4306C6.74434 10.9457 6.74364 10.4607 6.74414 9.97577C6.74405 9.79737 6.74339 9.61897 6.74214 9.44057C6.74051 9.19779 6.74089 8.95509 6.74179 8.7123C6.74149 8.57619 6.74119 8.44009 6.74088 8.29985C6.7542 8.19571 6.76752 8.09156 6.78125 7.98426C7.13481 7.74855 7.24626 7.71426 7.65625 7.76551ZM14.6152 11.0468C12.715 12.7892 10.493 12.896 7.98438 13.0155C7.98438 17.455 7.98438 21.8946 7.98438 26.4686C8.52578 26.4686 9.06719 26.4686 9.625 26.4686C9.62564 26.3294 9.62628 26.1901 9.62695 26.0466C9.63319 24.7364 9.64114 23.4263 9.65078 22.1162C9.65568 21.4426 9.65997 20.769 9.66289 20.0954C9.66573 19.4457 9.67014 18.7961 9.67566 18.1465C9.67749 17.8982 9.67875 17.6499 9.67943 17.4016C9.68047 17.0548 9.68353 16.7081 9.68709 16.3613C9.68693 16.2578 9.68677 16.1543 9.68661 16.0476C9.68798 15.9534 9.68935 15.8592 9.69077 15.7622C9.69127 15.6802 9.69177 15.5981 9.69229 15.5135C9.73438 15.3124 9.73438 15.3124 10.0625 15.0936C10.2839 15.0662 10.2839 15.0662 10.543 15.0661C10.6912 15.0653 10.6912 15.0653 10.8424 15.0644C10.9511 15.0649 11.0598 15.0654 11.1718 15.0659C11.2871 15.0655 11.4025 15.0652 11.5214 15.0648C11.9098 15.0639 12.2982 15.0646 12.6867 15.0653C12.9644 15.065 13.2421 15.0646 13.5198 15.0642C14.1969 15.0633 14.874 15.0634 15.5511 15.064C16.1012 15.0645 16.6513 15.0646 17.2014 15.0644C17.3187 15.0643 17.3187 15.0643 17.4384 15.0643C17.5972 15.0642 17.7561 15.0641 17.915 15.064C19.4055 15.0634 20.896 15.0641 22.3866 15.0653C23.6665 15.0663 24.9465 15.0661 26.2264 15.0651C27.7117 15.0639 29.197 15.0635 30.6822 15.0642C30.8405 15.0642 30.9988 15.0643 31.157 15.0644C31.2738 15.0644 31.2738 15.0644 31.393 15.0645C31.9427 15.0647 32.4924 15.0643 33.0422 15.0638C33.7814 15.0631 34.5207 15.0636 35.26 15.0649C35.532 15.0652 35.8041 15.0651 36.0762 15.0646C36.4461 15.064 36.8159 15.0648 37.1859 15.0659C37.2948 15.0654 37.4037 15.0649 37.516 15.0644C37.6145 15.0649 37.713 15.0655 37.8145 15.0661C37.9 15.0661 37.9855 15.0662 38.0735 15.0662C38.2812 15.0936 38.2812 15.0936 38.5 15.3124C38.5286 15.5135 38.5286 15.5135 38.5305 15.7622C38.5323 15.9035 38.5323 15.9035 38.5342 16.0476C38.5344 16.1511 38.5346 16.2547 38.5349 16.3613C38.536 16.4702 38.5371 16.579 38.5382 16.6912C38.5416 17.0522 38.5434 17.4132 38.5453 17.7742C38.5473 18.024 38.5495 18.2738 38.5517 18.5236C38.5573 19.1821 38.5617 19.8405 38.5657 20.499C38.5701 21.1706 38.5757 21.8421 38.5812 22.5136C38.5918 23.8319 38.601 25.1503 38.6094 26.4686C39.1508 26.4686 39.6922 26.4686 40.25 26.4686C40.25 22.0291 40.25 17.5896 40.25 13.0155C39.492 12.9794 38.7341 12.9433 37.9531 12.9061C36.1153 12.6712 34.7604 12.0357 33.3594 10.828C31.3321 9.15664 29.4228 8.93365 26.896 8.93958C26.673 8.93943 26.4499 8.93922 26.2269 8.93895C25.7614 8.93863 25.2958 8.93909 24.8303 8.94012C24.2368 8.94136 23.6433 8.94064 23.0498 8.93933C22.5898 8.93854 22.1298 8.9388 21.6698 8.93936C21.4511 8.93951 21.2324 8.93933 21.0137 8.93882C18.5254 8.93426 16.5044 9.2693 14.6152 11.0468ZM10.8281 16.2968C10.8281 19.6535 10.8281 23.0102 10.8281 26.4686C11.6222 26.4686 12.4163 26.4686 13.2344 26.4686C13.2411 26.1303 13.2479 25.7919 13.2549 25.4432C13.2878 24.6058 13.3389 23.8615 13.8906 23.1874C14.4102 22.7526 14.8392 22.6291 15.5021 22.6211C15.6555 22.619 15.6555 22.619 15.8119 22.6169C15.9218 22.6161 16.0316 22.6153 16.1448 22.6144C16.2586 22.6136 16.3724 22.6127 16.4897 22.6118C16.7306 22.6103 16.9715 22.6091 17.2124 22.6082C17.458 22.607 17.7037 22.6047 17.9494 22.6015C18.3049 22.5968 18.6603 22.5951 19.0159 22.5939C19.1248 22.592 19.2338 22.5901 19.346 22.5881C20.1606 22.5907 20.7621 22.7495 21.3623 23.3173C21.9754 24.3392 21.9104 25.2118 21.9844 26.4686C23.4281 26.4686 24.8719 26.4686 26.3594 26.4686C26.378 25.7522 26.378 25.7522 26.392 25.0357C26.4199 24.2762 26.5577 23.6498 27.1049 23.0955C27.1679 23.0559 27.231 23.0163 27.2959 22.9755C27.3592 22.9339 27.4225 22.8923 27.4877 22.8494C27.836 22.6611 28.1274 22.6257 28.5153 22.6211C28.672 22.619 28.672 22.619 28.8319 22.6169C29.001 22.6157 29.001 22.6157 29.1736 22.6144C29.2901 22.6136 29.4065 22.6127 29.5264 22.6118C29.7731 22.6103 30.0198 22.6091 30.2665 22.6082C30.6422 22.6063 31.0177 22.6015 31.3934 22.5967C31.6333 22.5956 31.8732 22.5947 32.1131 22.5939C32.2248 22.592 32.3365 22.5901 32.4515 22.5881C33.1681 22.5903 33.6219 22.6999 34.2344 23.078C34.4356 23.3006 34.4356 23.3006 34.5557 23.5223C34.6181 23.6325 34.6181 23.6325 34.6817 23.7449C34.8522 24.1012 34.9079 24.4019 34.9252 24.7917C34.9294 24.8797 34.9336 24.9677 34.9379 25.0584C34.9426 25.1696 34.9473 25.2808 34.9521 25.3954C34.9758 25.9266 34.9758 25.9266 35 26.4686C35.7941 26.4686 36.5881 26.4686 37.4062 26.4686C37.4062 23.1119 37.4062 19.7552 37.4062 16.2968C28.6355 16.2968 19.8647 16.2968 10.8281 16.2968ZM14.5469 24.3905C14.3712 25.0181 14.3712 25.0181 14.4375 26.4686C16.4948 26.4686 18.5522 26.4686 20.6719 26.4686C20.8313 24.7687 20.8313 24.7687 20.3438 24.0624C20.0786 23.7972 20.0103 23.815 19.647 23.8101C19.548 23.8084 19.4491 23.8066 19.3472 23.8048C19.2399 23.8042 19.1327 23.8036 19.0223 23.803C18.9122 23.8021 18.8021 23.8011 18.6887 23.8001C18.4555 23.7985 18.2222 23.7975 17.989 23.7971C17.6324 23.7958 17.2761 23.7904 16.9196 23.7849C16.6931 23.7839 16.4666 23.7831 16.2401 23.7825C16.0802 23.7793 16.0802 23.7793 15.9172 23.7761C15.2748 23.7803 14.94 23.831 14.5469 24.3905ZM27.825 24.045C27.3198 24.824 27.5625 25.381 27.5625 26.4686C29.6198 26.4686 31.6772 26.4686 33.7969 26.4686C33.9273 24.8572 33.9273 24.8572 33.4688 24.0624C33.201 23.7947 33.1279 23.8153 32.7602 23.8119C32.6587 23.8105 32.5572 23.8091 32.4527 23.8076C32.3427 23.8074 32.2328 23.8071 32.1195 23.8069C32.0068 23.8062 31.894 23.8054 31.7778 23.8047C31.539 23.8036 31.3001 23.8031 31.0612 23.8031C30.6956 23.8026 30.3301 23.7987 29.9645 23.7945C29.7326 23.7939 29.5008 23.7934 29.2689 23.7932C29.1594 23.7916 29.0499 23.7901 28.9371 23.7885C28.3424 23.7841 28.3424 23.7841 27.825 24.045ZM44.625 25.8124C44.4986 26.0653 44.5021 26.2079 44.5025 26.4893C44.5023 26.5853 44.5022 26.6813 44.502 26.7802C44.5024 26.8858 44.5028 26.9914 44.5032 27.1002C44.5032 27.2111 44.5032 27.3221 44.5032 27.4365C44.5032 27.8046 44.5041 28.1727 44.5049 28.5408C44.5051 28.7955 44.5053 29.0502 44.5054 29.3049C44.5058 29.9763 44.5069 30.6478 44.5081 31.3192C44.5092 32.0039 44.5097 32.6886 44.5103 33.3734C44.5115 34.7176 44.5133 36.0619 44.5156 37.4061C44.9127 37.4061 45.3097 37.4061 45.7188 37.4061C45.7238 35.9287 45.7277 34.4512 45.7301 32.9738C45.7312 32.2878 45.7328 31.6018 45.7353 30.9158C45.7376 30.2542 45.7389 29.5925 45.7395 28.9308C45.7399 28.678 45.7407 28.4252 45.7419 28.1724C45.7435 27.8191 45.7437 27.4659 45.7436 27.1126C45.7444 27.0074 45.7452 26.9022 45.746 26.7938C45.7457 26.6977 45.7454 26.6015 45.7451 26.5024C45.7453 26.4189 45.7455 26.3353 45.7457 26.2492C45.731 25.9964 45.731 25.9964 45.5 25.703C45.1406 25.5472 44.9478 25.6009 44.625 25.8124ZM4.81378 28.5745C4.42857 29.2461 4.04688 30.0494 4.04688 30.8436C17.0045 30.8436 29.9622 30.8436 43.3125 30.8436C43.3125 30.0857 43.3125 29.3277 43.3125 28.5468C42.6188 27.851 42.6188 27.851 41.7079 27.7527C41.5807 27.7519 41.4535 27.7511 41.3225 27.7503C41.1826 27.7506 41.0428 27.7509 40.8987 27.7511C40.7487 27.7507 40.5987 27.7501 40.4487 27.7494C40.0361 27.7479 39.6236 27.7477 39.211 27.7477C38.7661 27.7475 38.3213 27.7461 37.8765 27.7449C36.9037 27.7424 35.9308 27.7415 34.9579 27.7409C34.3505 27.7406 33.7431 27.7399 33.1357 27.7391C31.4542 27.7369 29.7726 27.7352 28.0911 27.7348C27.9834 27.7348 27.8758 27.7348 27.7649 27.7348C27.5467 27.7347 27.3285 27.7347 27.1103 27.7347C26.9478 27.7346 26.9478 27.7346 26.7821 27.7346C26.6736 27.7346 26.5652 27.7346 26.4535 27.7345C24.6961 27.7341 22.9388 27.7312 21.1815 27.7271C19.3775 27.7229 17.5735 27.7208 15.7695 27.7208C14.7565 27.7207 13.7435 27.7198 12.7306 27.7166C11.868 27.7139 11.0055 27.7131 10.1429 27.7148C9.70288 27.7156 9.26288 27.7155 8.82283 27.713C8.41974 27.7107 8.01674 27.711 7.61366 27.7133C7.39925 27.7139 7.18483 27.7118 6.97043 27.7095C6.04728 27.7183 5.43527 27.87 4.81378 28.5745ZM4.04688 32.0468C4.04688 32.8047 4.04688 33.5627 4.04688 34.3436C17.0045 34.3436 29.9622 34.3436 43.3125 34.3436C43.3125 33.5857 43.3125 32.8277 43.3125 32.0468C30.3548 32.0468 17.3972 32.0468 4.04688 32.0468ZM4.04688 35.5468C3.56319 39.4996 3.56319 39.4996 4.375 43.0936C4.69066 43.3513 4.69066 43.3513 5.08594 43.2919C5.52215 43.1918 5.52215 43.1918 5.79688 42.8749C5.91549 42.5452 5.91549 42.5452 6.00495 42.1644C6.04174 42.0229 6.07856 41.8814 6.11539 41.7399C6.17175 41.5178 6.22761 41.2955 6.28306 41.0732C6.3372 40.8578 6.39316 40.6429 6.44928 40.428C6.48156 40.2995 6.51384 40.171 6.54709 40.0386C6.68487 39.6681 6.79621 39.5038 7.10938 39.2655C7.71177 38.9996 8.28315 39.0174 8.92877 39.0222C9.04596 39.0222 9.16315 39.0222 9.2839 39.0221C9.67661 39.0223 10.0693 39.0241 10.462 39.0258C10.7435 39.0262 11.0251 39.0265 11.3066 39.0267C11.9128 39.0272 12.5191 39.0285 13.1253 39.0301C14.0835 39.0326 15.0416 39.0326 15.9997 39.0321C16.3277 39.032 16.6556 39.0318 16.9836 39.0317C17.1065 39.0317 17.1065 39.0317 17.2319 39.0316C18.1641 39.0313 19.0962 39.0313 20.0284 39.0316C20.1561 39.0316 20.1561 39.0316 20.2865 39.0317C21.6681 39.0322 23.0497 39.0351 24.4313 39.0388C25.8501 39.0425 27.2689 39.0428 28.6876 39.0402C29.5627 39.0388 30.4377 39.04 31.3127 39.0447C31.9828 39.0481 32.6528 39.0469 33.323 39.044C33.598 39.0435 33.8731 39.0446 34.1482 39.0472C34.5232 39.0506 34.8977 39.0486 35.2726 39.0453C35.4368 39.0487 35.4368 39.0487 35.6043 39.0522C35.9019 39.0463 36.1401 39.0336 36.4219 38.9374C36.6174 38.7311 36.735 38.5379 36.8575 38.282C37.0479 37.9062 37.2315 37.7597 37.6237 37.6072C38.1702 37.4691 38.7252 37.4766 39.2857 37.4702C39.4012 37.4681 39.5166 37.466 39.6355 37.4638C40.0021 37.4573 40.3687 37.4522 40.7354 37.4471C40.9848 37.443 41.2342 37.4387 41.4837 37.4343C42.0933 37.4239 42.7029 37.4147 43.3125 37.4061C43.3125 36.7925 43.3125 36.1789 43.3125 35.5468C30.3548 35.5468 17.3972 35.5468 4.04688 35.5468ZM37.7344 38.9374C37.6706 39.2609 37.6706 39.2609 37.7344 39.5936C38.055 39.9063 38.2874 39.963 38.7281 39.9642C38.8404 39.9652 38.9526 39.9663 39.0683 39.9674C39.1908 39.967 39.3133 39.9665 39.4395 39.966C39.569 39.9667 39.6985 39.9675 39.832 39.9682C40.1868 39.9699 40.5415 39.9701 40.8963 39.9694C41.1926 39.9691 41.4889 39.9698 41.7852 39.9704C42.4841 39.972 43.183 39.9718 43.8819 39.9705C44.6029 39.9693 45.3238 39.9708 46.0448 39.9738C46.664 39.9762 47.2831 39.9769 47.9023 39.9763C48.2721 39.9759 48.6418 39.9762 49.0115 39.978C49.4237 39.9797 49.8358 39.9785 50.248 39.9766C50.3705 39.9777 50.493 39.9787 50.6192 39.9798C50.7315 39.9788 50.8437 39.9777 50.9594 39.9766C51.1055 39.9765 51.1055 39.9765 51.2546 39.9765C51.602 39.9036 51.7367 39.7599 51.9531 39.4843C51.9355 39.1133 51.8894 38.983 51.625 38.7186C51.3772 38.6854 51.3772 38.6854 51.086 38.6909C50.9151 38.6899 50.9151 38.6899 50.7407 38.689C50.6152 38.6894 50.4897 38.6899 50.3604 38.6903C50.2286 38.6899 50.0968 38.6896 49.961 38.6892C49.599 38.6884 49.237 38.6886 48.875 38.6893C48.4965 38.6898 48.118 38.6893 47.7395 38.6889C47.1036 38.6885 46.4678 38.6891 45.832 38.6901C45.0966 38.6913 44.3613 38.6909 43.6259 38.6897C42.995 38.6887 42.3641 38.6886 41.7332 38.6892C41.3562 38.6895 40.9792 38.6895 40.6022 38.6888C40.1819 38.6881 39.7616 38.6891 39.3413 38.6903C39.216 38.6899 39.0907 38.6894 38.9616 38.689C38.7902 38.6899 38.7902 38.6899 38.6154 38.6909C38.5159 38.6909 38.4165 38.691 38.3141 38.6911C38.0323 38.7024 38.0323 38.7024 37.7344 38.9374ZM39.2656 41.1249C39.0742 42.8462 39.0742 42.8462 38.9238 44.5702C38.9097 44.7466 38.9097 44.7466 38.8952 44.9265C38.8863 45.0424 38.8774 45.1583 38.8683 45.2777C38.8605 45.3786 38.8527 45.4795 38.8447 45.5834C38.8221 46.0655 38.8281 46.5485 38.8281 47.0311C39.5861 47.0311 40.3441 47.0311 41.125 47.0311C41.1291 46.7021 41.1332 46.373 41.1374 46.0339C41.1424 45.7161 41.148 45.3983 41.1537 45.0805C41.1573 44.8592 41.1604 44.6379 41.1629 44.4165C41.1665 44.0989 41.1723 43.7813 41.1784 43.4636C41.1791 43.3643 41.1798 43.2649 41.1805 43.1626C41.1827 43.0706 41.1849 42.9786 41.1871 42.8839C41.1883 42.8028 41.1895 42.7217 41.1908 42.6381C41.2344 42.4374 41.2344 42.4374 41.5625 42.2186C42.0591 42.2778 42.0591 42.2778 42.2188 42.4374C42.2363 42.7765 42.2472 43.1135 42.2534 43.4529C42.2556 43.5548 42.2579 43.6566 42.2602 43.7615C42.2674 44.088 42.2739 44.4145 42.2803 44.7411C42.285 44.9619 42.2898 45.1827 42.2946 45.4035C42.3063 45.9461 42.3174 46.4886 42.3281 47.0311C42.9417 47.0311 43.5553 47.0311 44.1875 47.0311C44.1891 46.8931 44.1907 46.7551 44.1923 46.6129C44.1987 46.1021 44.2071 45.5913 44.2162 45.0805C44.2198 44.8592 44.2229 44.6379 44.2254 44.4165C44.229 44.0989 44.2348 43.7813 44.2409 43.4636C44.2416 43.3643 44.2423 43.2649 44.243 43.1626C44.2452 43.0706 44.2474 42.9786 44.2496 42.8839C44.2508 42.8028 44.252 42.7217 44.2533 42.6381C44.2969 42.4374 44.2969 42.4374 44.625 42.2186C45.1216 42.2778 45.1216 42.2778 45.2812 42.4374C45.2988 42.7765 45.3097 43.1135 45.3159 43.4529C45.3181 43.5548 45.3204 43.6566 45.3227 43.7615C45.3299 44.088 45.3364 44.4145 45.3428 44.7411C45.3475 44.9619 45.3523 45.1827 45.3571 45.4035C45.3688 45.9461 45.3799 46.4886 45.3906 47.0311C46.0042 47.0311 46.6178 47.0311 47.25 47.0311C47.2516 46.8931 47.2532 46.7551 47.2548 46.6129C47.2612 46.1021 47.2696 45.5913 47.2787 45.0805C47.2823 44.8592 47.2854 44.6379 47.2879 44.4165C47.2915 44.0989 47.2973 43.7813 47.3034 43.4636C47.3041 43.3643 47.3048 43.2649 47.3055 43.1626C47.3077 43.0706 47.3099 42.9786 47.3121 42.8839C47.3133 42.8028 47.3145 42.7217 47.3158 42.6381C47.3594 42.4374 47.3594 42.4374 47.6875 42.2186C48.1841 42.2778 48.1841 42.2778 48.3438 42.4374C48.3613 42.7765 48.3722 43.1135 48.3784 43.4529C48.3806 43.5548 48.3829 43.6566 48.3852 43.7615C48.3924 44.088 48.3989 44.4145 48.4053 44.7411C48.41 44.9619 48.4148 45.1827 48.4196 45.4035C48.4314 45.9461 48.4422 46.4886 48.4531 47.0311C49.2111 47.0311 49.9691 47.0311 50.75 47.0311C50.77 45.9693 50.7024 44.9252 50.6158 43.8679C50.5926 43.5834 50.5703 43.2988 50.5481 43.0142C50.5336 42.8322 50.519 42.6501 50.5043 42.4681C50.4977 42.3836 50.4911 42.2991 50.4843 42.212C50.453 41.835 50.4046 41.4932 50.3125 41.1249C46.667 41.1249 43.0216 41.1249 39.2656 41.1249Z" fill="#113065"/>
<path d="M45.6636 16.3683C45.9899 16.5439 46.0863 16.6975 46.2725 17.0147C46.6666 17.6164 47.1521 17.9825 47.7341 18.3849C48.0156 18.5938 48.0156 18.5938 48.2344 18.9219C48.2155 19.2614 48.1658 19.423 47.9383 19.6781C47.8623 19.7399 47.7863 19.8016 47.708 19.8653C47.6329 19.9276 47.5577 19.9899 47.4803 20.0541C47.4043 20.1136 47.3283 20.1731 47.25 20.2344C47.1729 20.2962 47.0958 20.3579 47.0163 20.4215C46.8125 20.5625 46.8125 20.5625 46.5938 20.5625C46.5689 20.6392 46.5441 20.7159 46.5186 20.795C46.3005 21.2726 46.0437 21.6687 45.5547 21.8887C45.1491 21.8684 45.0169 21.7271 44.7344 21.4375C44.6572 21.3042 44.5822 21.1696 44.5088 21.0342C44.1862 20.4765 43.6867 20.1685 43.1642 19.8161C42.853 19.56 42.7263 19.4279 42.6562 19.0313C42.8525 18.5385 43.1833 18.3172 43.6133 18.0264C44.181 17.618 44.5478 17.2174 44.9091 16.6216C45.1314 16.3095 45.2977 16.2726 45.6636 16.3683ZM45.3906 18.1563C45.3094 18.2375 45.2282 18.3187 45.1445 18.4024C44.8984 18.6485 44.6523 18.8946 44.4062 19.1407C44.4577 19.1763 44.5092 19.212 44.5622 19.2488C44.6303 19.2966 44.6984 19.3443 44.7686 19.3936C44.8358 19.4405 44.9031 19.4875 44.9724 19.5359C45.1719 19.6875 45.1719 19.6875 45.5 20.0157C45.8248 19.7269 46.1497 19.4382 46.4844 19.1407C46.1377 18.7841 45.7844 18.4601 45.3906 18.1563Z" fill="#113065"/>
<path d="M50.75 10.828C50.9517 11.0242 50.9517 11.0242 51.1328 11.2861C51.1987 11.3766 51.2645 11.4671 51.3323 11.5603C51.4231 11.6851 51.4231 11.6851 51.5156 11.8124C51.773 12.0976 52.0303 12.3355 52.3394 12.5635C52.4397 12.6382 52.5401 12.713 52.6436 12.79C52.7401 12.8586 52.8367 12.9273 52.9362 12.998C53.1562 13.2343 53.1562 13.2343 53.2015 13.5735C53.1369 14.0257 52.9585 14.1453 52.6094 14.4374C52.4943 14.5214 52.4943 14.5214 52.377 14.607C51.8231 15.014 51.4517 15.3956 51.0991 15.9883C50.9172 16.2662 50.7779 16.2903 50.4561 16.3652C49.8685 16.2543 49.6609 15.7796 49.3281 15.3124C48.9286 14.8708 48.476 14.5186 48.0037 14.1589C47.7969 13.9999 47.7969 13.9999 47.6875 13.8905C47.6935 13.5338 47.6935 13.5338 47.7969 13.1249C48.0218 12.9147 48.2131 12.7632 48.4668 12.5986C49.0595 12.1833 49.4612 11.7725 49.8455 11.1489C50.0827 10.7876 50.3388 10.7766 50.75 10.828ZM50.0459 12.9335C49.8236 13.1721 49.6247 13.4057 49.4375 13.6718C49.7758 13.9974 49.7758 13.9974 50.2031 14.1093C50.2753 14.2537 50.3475 14.398 50.4219 14.5468C50.5457 14.4475 50.6686 14.347 50.791 14.246C50.8595 14.1902 50.9281 14.1343 50.9987 14.0768C51.1966 13.8816 51.297 13.7069 51.4062 13.453C51.3025 13.3876 51.1987 13.3222 51.0918 13.2548C50.75 13.0155 50.75 13.0155 50.5312 12.6874C50.2788 12.6627 50.2788 12.6627 50.0459 12.9335Z" fill="#113065"/>
<path d="M50.8594 22.6406C51.0687 22.8799 51.0687 22.8799 51.2559 23.1875C51.7476 23.9189 52.3291 24.3343 53.0469 24.8281C53.1562 24.9375 53.1562 24.9375 53.1973 25.2383C53.1413 25.7234 52.9824 25.8285 52.6094 26.1406C52.4943 26.2246 52.4943 26.2246 52.377 26.3102C51.8231 26.7172 51.4517 27.0988 51.0991 27.6915C50.9172 27.9694 50.7779 27.9935 50.4561 28.0684C49.8685 27.9575 49.6609 27.4828 49.3281 27.0156C48.9286 26.574 48.476 26.2218 48.0037 25.8621C47.7969 25.7031 47.7969 25.7031 47.6875 25.5938C47.6935 25.237 47.6935 25.237 47.7969 24.8281C48.0218 24.6179 48.2131 24.4664 48.4668 24.3018C49.0595 23.8865 49.4612 23.4758 49.8455 22.8521C50.1216 22.4316 50.4113 22.5142 50.8594 22.6406ZM50.0459 24.6367C49.8236 24.8753 49.6247 25.1089 49.4375 25.375C49.7758 25.7006 49.7758 25.7006 50.2031 25.8125C50.2753 25.9569 50.3475 26.1013 50.4219 26.25C50.5457 26.1507 50.6686 26.0502 50.791 25.9492C50.8595 25.8934 50.9281 25.8376 50.9987 25.78C51.1966 25.5848 51.297 25.4101 51.4062 25.1563C51.3025 25.0908 51.1987 25.0254 51.0918 24.958C50.75 24.7188 50.75 24.7188 50.5312 24.3906C50.2788 24.3659 50.2788 24.3659 50.0459 24.6367Z" fill="#113065"/>
</svg>
