<svg width="56" height="56" viewBox="0 0 56 56" fill="none" xmlns="http://www.w3.org/2000/svg">
<path d="M41.154 1.7116C41.8239 2.06464 42.307 2.68526 42.5469 3.39068C42.574 3.69775 42.574 3.69775 42.5738 4.04045C42.5742 4.17146 42.5747 4.30247 42.5751 4.43745C42.5745 4.58097 42.5738 4.7245 42.5732 4.87238C42.5733 5.02669 42.5735 5.18101 42.5737 5.33532C42.5742 5.75933 42.5734 6.18333 42.5723 6.60734C42.5713 7.0646 42.5716 7.52185 42.5718 7.9791C42.5719 8.77131 42.5712 9.56352 42.57 10.3557C42.5682 11.5011 42.5676 12.6465 42.5674 13.7919C42.5669 15.6503 42.5654 17.5086 42.5634 19.3669C42.5614 21.1721 42.5598 22.9774 42.5589 24.7827C42.5588 24.8939 42.5588 25.0052 42.5587 25.1198C42.5584 25.678 42.5581 26.2361 42.5579 26.7943C42.5556 31.4254 42.5518 36.0565 42.5469 40.6876C42.6582 40.6866 42.7695 40.6856 42.8842 40.6846C43.9365 40.6757 44.9888 40.6692 46.0411 40.6649C46.5821 40.6626 47.123 40.6595 47.6639 40.6545C48.1866 40.6498 48.7092 40.6472 49.2319 40.646C49.4306 40.6452 49.6294 40.6437 49.8281 40.6413C52.0607 40.6157 52.0607 40.6157 52.9815 41.3284C53.5291 42.0028 53.8829 42.6263 53.8441 43.5228C53.7509 44.193 53.5378 44.8036 53.0469 45.2813C52.2849 45.8282 52.2849 45.8282 51.9531 45.8282C52.5254 49.8041 52.5254 49.8041 54.3594 53.2657C54.3892 53.8931 54.3892 53.8931 54.3594 54.1407C54.0646 54.4354 53.9165 54.387 53.504 54.3876C53.2994 54.3886 53.2994 54.3886 53.0906 54.3897C52.9378 54.3894 52.785 54.389 52.6322 54.3887C52.471 54.3891 52.3097 54.3896 52.1485 54.3902C51.7038 54.3915 51.2591 54.3915 50.8145 54.3912C50.3355 54.3912 49.8565 54.3924 49.3776 54.3934C48.4385 54.3953 47.4994 54.3959 46.5604 54.396C45.7972 54.3961 45.0341 54.3965 44.2709 54.3972C42.1087 54.3991 39.9465 54.4002 37.7843 54.4C37.6093 54.4 37.6093 54.4 37.4308 54.4C37.314 54.4 37.1972 54.3999 37.0769 54.3999C35.1839 54.3998 33.291 54.4019 31.3981 54.405C29.4559 54.4082 27.5137 54.4097 25.5715 54.4095C24.4806 54.4094 23.3896 54.41 22.2986 54.4124C21.3697 54.4144 20.4407 54.4148 19.5118 54.4134C19.0376 54.4126 18.5635 54.4126 18.0894 54.4145C17.6554 54.4162 17.2215 54.4159 16.7875 54.414C16.6305 54.4137 16.4734 54.4141 16.3163 54.4153C15.3068 54.4226 14.8085 54.389 14.082 53.6827C13.5146 52.7707 13.5839 51.4979 13.5065 50.4506C13.4914 50.2541 13.4763 50.0577 13.4611 49.8612C13.4202 49.3297 13.3803 48.7982 13.3405 48.2667C13.2986 47.709 13.256 47.1514 13.2135 46.5938C13.1422 45.6573 13.0715 44.7207 13.0011 43.7842C12.92 42.7035 12.8379 41.6229 12.7555 40.5424C12.676 39.5005 12.597 38.4586 12.5183 37.4167C12.4848 36.9744 12.4512 36.5321 12.4175 36.0899C12.3778 35.5683 12.3385 35.0467 12.2995 34.5251C12.2852 34.3344 12.2708 34.1437 12.2562 33.953C12.1823 32.9889 12.1166 32.0305 12.1406 31.0626C12.0561 31.066 11.9716 31.0694 11.8846 31.0729C11.2363 31.095 10.7411 31.0804 10.1719 30.7344C9.76105 30.3404 9.43062 29.9833 9.38862 29.393C9.38364 29.0813 9.38051 28.7697 9.3789 28.4581C9.37552 28.2964 9.37552 28.2964 9.37207 28.1314C9.36825 27.4219 9.42164 26.9172 9.92236 26.3744C9.98665 26.3221 10.0509 26.2698 10.1172 26.2159C10.1815 26.1622 10.2458 26.1084 10.312 26.0531C10.657 25.8124 10.9788 25.7944 11.3865 25.7779C11.5478 25.7711 11.5478 25.7711 11.7123 25.7641C11.8243 25.7598 11.9363 25.7555 12.0518 25.751C12.165 25.7463 12.2783 25.7416 12.395 25.7367C12.6748 25.7251 12.9546 25.714 13.2344 25.7032C13.2612 25.6209 13.288 25.5387 13.3156 25.454C13.7234 24.225 14.3448 23.2193 15.5048 22.5851C16.0828 22.321 16.5559 22.1839 17.1924 22.1758C17.7391 22.1524 17.9498 22.037 18.3203 21.6358C18.3974 21.5474 18.4746 21.459 18.554 21.3679C19.0777 20.8442 19.8349 20.4884 20.5625 20.3438C20.7274 20.3448 20.8923 20.3519 21.0568 20.3639C22.078 20.4631 22.078 20.4631 23.0217 20.1763C23.1985 19.9564 23.1985 19.9564 23.3456 19.7132C23.9089 18.9035 25.098 18.4693 26.0312 18.2657C27.1685 18.1662 28.2824 18.1689 29.3125 18.7032C29.4514 18.7709 29.4514 18.7709 29.5932 18.8399C30.5237 19.3399 31.255 20.0526 31.6299 21.0479C31.741 21.3277 31.741 21.3277 31.9375 21.5469C32.3168 21.6853 32.679 21.7467 33.0778 21.8071C34.1087 21.9863 35.0063 22.6068 35.6259 23.4413C36.0929 24.1733 36.4219 24.9363 36.4219 25.8126C36.855 25.8126 37.2881 25.8126 37.7344 25.8126C37.734 25.6972 37.7336 25.5819 37.7331 25.4631C37.7234 22.657 37.7162 19.8509 37.7117 17.0448C37.7094 15.6877 37.7064 14.3307 37.7014 12.9737C37.697 11.7909 37.6942 10.6081 37.6932 9.42528C37.6926 8.79902 37.6913 8.17277 37.6881 7.54651C37.6851 6.95688 37.6842 6.36728 37.6849 5.77763C37.6848 5.56141 37.6839 5.34519 37.6822 5.12898C37.68 4.83324 37.6806 4.53764 37.6818 4.2419C37.6805 4.15678 37.6792 4.07166 37.6779 3.98396C37.6856 3.27873 37.8927 2.68873 38.3945 2.18115C38.4676 2.13138 38.5408 2.08161 38.6162 2.03033C38.6897 1.97859 38.7631 1.92684 38.8388 1.87353C39.4814 1.49217 40.4496 1.50998 41.154 1.7116ZM39.2742 3.39975C38.9951 3.89594 39.0843 4.5307 39.0905 5.08282C39.0902 5.23624 39.0898 5.38965 39.0891 5.54306C39.0878 5.9646 39.09 6.38607 39.0928 6.8076C39.0951 7.26217 39.0943 7.71673 39.0939 8.1713C39.0936 8.95887 39.0953 9.74641 39.0984 10.534C39.1029 11.6726 39.1043 12.8113 39.105 13.95C39.1062 15.7974 39.1098 17.6448 39.115 19.4922C39.12 21.2868 39.1239 23.0815 39.1262 24.8761C39.1263 24.9867 39.1265 25.0973 39.1266 25.2113C39.1274 25.7662 39.128 26.3211 39.1287 26.8759C39.1344 31.4798 39.1441 36.0837 39.1562 40.6876C39.8059 40.6876 40.4556 40.6876 41.125 40.6876C41.13 35.9854 41.1339 31.2832 41.1362 26.5811C41.1364 26.0263 41.1367 25.4716 41.137 24.9168C41.1371 24.7512 41.1371 24.7512 41.1372 24.5822C41.1381 22.7923 41.1399 21.0025 41.1419 19.2127C41.1439 17.3771 41.1451 15.5414 41.1456 13.7058C41.1459 12.5725 41.1468 11.4392 41.1486 10.306C41.1498 9.52951 41.1501 8.75307 41.1498 7.97662C41.1497 7.52822 41.1499 7.07983 41.1511 6.63143C41.1521 6.22123 41.1522 5.81104 41.1514 5.40083C41.1513 5.18151 41.1523 4.96219 41.1532 4.74287C41.1528 4.61322 41.1524 4.48357 41.1519 4.34999C41.152 4.18179 41.152 4.18179 41.1522 4.01019C41.1239 3.70704 41.0739 3.53372 40.9062 3.28131C40.5597 3.05029 40.3449 3.02629 39.9364 3.00146C39.6563 3.07482 39.474 3.19027 39.2742 3.39975ZM24.2812 20.7813C24.0792 21.064 23.8927 21.3488 23.7164 21.6482C23.5156 21.8751 23.5156 21.8751 23.2054 21.9755C22.8181 21.9855 22.5655 21.8967 22.2031 21.7657C21.2649 21.6526 20.4501 21.7244 19.6875 22.3126C19.5036 22.5211 19.3237 22.7332 19.1475 22.9483C18.6797 23.4966 18.6797 23.4966 18.296 23.5819C18.0936 23.5742 17.8914 23.5595 17.6901 23.5379C16.9433 23.4825 16.209 23.8163 15.6406 24.2813C15.1157 24.7873 14.9782 25.0685 14.7656 25.8126C21.443 25.8126 28.1203 25.8126 35 25.8126C34.7432 24.7852 34.4758 24.1472 33.5956 23.5435C32.8825 23.1295 32.2505 23.0426 31.4325 23.088C31.1719 23.0782 31.1719 23.0782 30.8437 22.8594C30.7553 22.6417 30.6769 22.4199 30.6045 22.1963C30.2195 21.1532 29.5599 20.3859 28.5469 19.9063C27.0706 19.3212 25.4038 19.6681 24.2812 20.7813ZM10.8281 27.5626C10.7955 27.8646 10.7823 28.1363 10.7871 28.4376C10.7858 28.5168 10.7846 28.596 10.7833 28.6777C10.7796 29.1158 10.7796 29.1158 10.965 29.4995C11.2062 29.6775 11.3374 29.6805 11.6353 29.6779C11.7798 29.6779 11.7798 29.6779 11.9272 29.6779C12.0825 29.6753 12.0825 29.6753 12.241 29.6727C12.3474 29.6723 12.4537 29.6718 12.5633 29.6713C12.9032 29.6695 13.2431 29.6654 13.583 29.6612C13.8134 29.6595 14.0437 29.658 14.2741 29.6567C14.839 29.6534 15.4038 29.6469 15.9687 29.6407C15.9687 28.8466 15.9687 28.0526 15.9687 27.2344C15.2893 27.2269 14.6101 27.2204 13.9306 27.2164C13.6995 27.2148 13.4683 27.2125 13.2371 27.2097C12.9051 27.2057 12.5731 27.2038 12.241 27.2024C12.1374 27.2007 12.0339 27.199 11.9272 27.1973C11.8308 27.1972 11.7345 27.1972 11.6353 27.1972C11.5505 27.1964 11.4657 27.1957 11.3784 27.195C11.093 27.2457 10.9981 27.3304 10.8281 27.5626ZM17.3906 27.2344C17.3839 28.7571 17.3771 30.2798 17.3701 31.8487C17.3671 32.3291 17.3641 32.8095 17.3611 33.3044C17.36 33.7359 17.36 33.7359 17.3593 34.1674C17.3588 34.3592 17.3576 34.5511 17.356 34.7429C17.3536 35.0339 17.3532 35.3248 17.3534 35.6158C17.3522 35.7009 17.351 35.7861 17.3498 35.8738C17.3526 36.3709 17.421 36.6782 17.7187 37.0782C17.783 37.1729 17.783 37.1729 17.8486 37.2696C18.1763 37.4956 18.5338 37.5271 18.9219 37.5157C19.4286 37.3199 19.6478 36.9991 19.9062 36.5313C19.9679 36.2089 19.9698 35.8933 19.969 35.5657C19.9714 35.4295 19.9714 35.4295 19.9737 35.2906C19.9783 35.0023 19.98 34.7141 19.9814 34.4258C19.9846 34.136 19.9884 33.8462 19.9926 33.5564C19.9951 33.3765 19.9968 33.1966 19.9978 33.0167C20.0036 32.399 20.0036 32.399 20.125 32.1563C20.4326 32.0606 20.4326 32.0606 20.7812 32.0469C21.0841 32.2739 21.2045 32.4067 21.2733 32.7825C21.2733 32.8965 21.2733 33.0104 21.2732 33.1278C21.2749 33.3222 21.2749 33.3222 21.2766 33.5205C21.2757 33.6601 21.2748 33.7997 21.2739 33.9435C21.2754 34.1631 21.277 34.3827 21.2787 34.6023C21.2805 34.9098 21.2805 35.2173 21.2804 35.5247C21.2801 36.0623 21.2809 36.5999 21.2847 37.1375C21.2866 37.4235 21.2869 37.7096 21.2855 37.9956C21.2862 38.1256 21.287 38.2555 21.2878 38.3894C21.2877 38.5034 21.2876 38.6175 21.2875 38.735C21.3348 39.0979 21.4404 39.3004 21.6562 39.5938C22.0302 39.8488 22.248 39.9219 22.7021 39.9219C23.1463 39.7927 23.3288 39.6142 23.625 39.2657C23.6611 39.2296 23.6972 39.1935 23.7344 39.1563C23.7469 38.8458 23.7524 38.5378 23.7534 38.2271C23.7541 38.1297 23.7548 38.0322 23.7556 37.9318C23.7571 37.7194 23.7584 37.507 23.7595 37.2946C23.7613 36.9586 23.7638 36.6226 23.7666 36.2866C23.7744 35.3311 23.7809 34.3755 23.7865 33.42C23.79 32.8362 23.7945 32.2524 23.7997 31.6686C23.8014 31.4458 23.8028 31.2231 23.8037 31.0003C23.805 30.6886 23.8077 30.3771 23.8106 30.0654C23.8107 29.9731 23.8107 29.8808 23.8108 29.7856C23.821 28.9672 23.821 28.9672 24.0625 28.6563C24.3838 28.5606 24.3838 28.5606 24.7187 28.5469C24.827 28.6191 24.9353 28.6913 25.0469 28.7657C25.0883 28.982 25.0883 28.982 25.089 29.2503C25.0901 29.3507 25.0912 29.4511 25.0923 29.5546C25.092 29.6635 25.0916 29.7724 25.0913 29.8846C25.0925 29.9966 25.0937 30.1086 25.0949 30.224C25.0987 30.5833 25.1003 30.9425 25.1016 31.3018C25.1032 31.7728 25.1068 32.2437 25.1118 32.7147C25.1115 32.8225 25.1112 32.9303 25.1108 33.0414C25.119 33.7983 25.2009 34.3561 25.7236 34.9385C26.1305 35.1646 26.4506 35.2017 26.9062 35.1094C27.2954 34.8726 27.5072 34.6557 27.6719 34.2344C27.7035 33.9072 27.7035 33.9072 27.6967 33.5422C27.6967 33.3291 27.6967 33.3291 27.6966 33.1117C27.6955 32.9613 27.6944 32.8109 27.6932 32.6605C27.693 32.5233 27.6928 32.3861 27.6926 32.2448C27.6914 31.7322 27.6884 31.2197 27.6855 30.7071C27.681 29.5611 27.6765 28.4151 27.6719 27.2344C24.2791 27.2344 20.8862 27.2344 17.3906 27.2344ZM29.0937 27.2344C29.0937 28.0285 29.0937 28.8226 29.0937 29.6407C31.9452 29.6407 34.7966 29.6407 37.7344 29.6407C37.7344 28.8466 37.7344 28.0526 37.7344 27.2344C34.883 27.2344 32.0316 27.2344 29.0937 27.2344ZM13.5625 31.0626C13.5625 31.7331 13.5674 32.3823 13.6192 33.0474C13.6253 33.1301 13.6314 33.2127 13.6376 33.2979C13.6579 33.5711 13.6787 33.8443 13.6996 34.1175C13.7144 34.3148 13.7291 34.5122 13.7438 34.7096C13.7836 35.2429 13.824 35.7762 13.8645 36.3094C13.8898 36.6428 13.915 36.9763 13.9401 37.3097C14.0279 38.4735 14.1161 39.6373 14.2047 40.8011C14.2872 41.8852 14.3688 42.9694 14.45 44.0536C14.5198 44.9857 14.5902 45.9177 14.6612 46.8498C14.7035 47.4059 14.7456 47.9621 14.787 48.5183C14.826 49.0408 14.8657 49.5633 14.9061 50.0858C14.9207 50.2774 14.9351 50.469 14.9492 50.6606C14.9685 50.9224 14.9887 51.1841 15.0093 51.4457C15.0146 51.5214 15.0199 51.597 15.0254 51.675C15.062 52.1238 15.1302 52.524 15.3125 52.9376C15.6082 53.0361 15.7756 53.0605 16.0787 53.0601C16.1675 53.0602 16.2563 53.0604 16.3478 53.0605C16.4933 53.0599 16.4933 53.0599 16.6417 53.0593C16.7954 53.0594 16.7954 53.0594 16.9522 53.0594C17.2913 53.0593 17.6304 53.0585 17.9695 53.0576C18.2045 53.0574 18.4394 53.0572 18.6744 53.0571C19.2931 53.0567 19.9118 53.0556 20.5306 53.0544C21.1618 53.0533 21.793 53.0528 22.4242 53.0523C23.663 53.0511 24.9018 53.0492 26.1406 53.0469C26.2823 52.766 26.4237 52.4849 26.565 52.2038C26.605 52.1246 26.645 52.0454 26.6861 51.9638C26.948 51.4419 27.188 50.9249 27.3643 50.3672C27.3898 50.2888 27.4153 50.2104 27.4417 50.1295C27.8748 48.7384 28.1682 47.276 28.3281 45.8282C28.2621 45.795 28.1962 45.7619 28.1282 45.7278C27.412 45.3524 26.9427 44.9818 26.6379 44.2029C26.4192 43.3468 26.5207 42.5597 26.955 41.7954C27.3718 41.2246 27.8803 40.9925 28.5469 40.7969C28.8832 40.7665 28.8832 40.7665 29.2439 40.7621C29.4474 40.7588 29.4474 40.7588 29.6551 40.7555C29.8015 40.7542 29.9479 40.7529 30.0944 40.7516C30.2455 40.7496 30.3966 40.7475 30.5477 40.7452C30.9436 40.7396 31.3395 40.7353 31.7355 40.7312C32.1402 40.7268 32.5449 40.7212 32.9496 40.7158C33.7425 40.7052 34.5353 40.6959 35.3281 40.6876C35.4907 40.3624 35.4841 40.0205 35.5102 39.6629C35.5198 39.5383 35.5198 39.5383 35.5296 39.4112C35.5508 39.1356 35.5713 38.8599 35.5917 38.5842C35.6063 38.3926 35.6208 38.2011 35.6354 38.0095C35.6659 37.6072 35.6961 37.205 35.7261 36.8027C35.7645 36.2883 35.8035 35.7739 35.8427 35.2595C35.8729 34.8635 35.9027 34.4674 35.9325 34.0713C35.9468 33.8818 35.9611 33.6922 35.9756 33.5027C35.9957 33.2367 36.0155 32.9708 36.0352 32.7048C36.0442 32.5883 36.0442 32.5883 36.0533 32.4694C36.0878 31.9967 36.0937 31.5386 36.0937 31.0626C33.7837 31.0626 31.4737 31.0626 29.0937 31.0626C29.0795 32.1651 29.0795 32.1651 29.071 33.2677C29.0482 34.3016 28.9273 35.1536 28.1777 35.9229C27.1915 36.51 26.2814 36.5502 25.1562 36.3126C25.1552 36.4007 25.1542 36.4889 25.1531 36.5798C25.1472 36.983 25.1381 37.386 25.1289 37.7891C25.1273 37.9279 25.1258 38.0666 25.1242 38.2095C25.0989 39.1802 24.9774 39.7738 24.3769 40.5508C23.8385 40.9722 23.2568 41.199 22.5791 41.2823C21.6489 41.1639 20.9706 40.8546 20.3437 40.1407C20.0429 39.6701 19.9623 39.1592 19.9062 38.6094C19.7506 38.6636 19.7506 38.6636 19.5918 38.7188C18.7098 38.9619 17.9942 38.8914 17.1932 38.4432C16.5773 38.0279 16.2641 37.466 16.0781 36.7501C16.0294 36.3068 16.0247 35.8661 16.0222 35.4205C16.0192 35.233 16.0192 35.233 16.0162 35.0417C16.0103 34.645 16.0066 34.2483 16.0029 33.8516C15.9993 33.5816 15.9955 33.3116 15.9916 33.0416C15.9823 32.3819 15.975 31.7222 15.9687 31.0626C15.1747 31.0626 14.3806 31.0626 13.5625 31.0626ZM37.5156 31.0626C37.2201 34.5448 37.2201 34.5448 36.9414 38.0284C36.9327 38.1368 36.924 38.2452 36.915 38.3568C36.8567 39.1344 36.851 39.908 36.8594 40.6876C37.1481 40.6876 37.4369 40.6876 37.7344 40.6876C37.7344 37.5113 37.7344 34.3351 37.7344 31.0626C37.6622 31.0626 37.59 31.0626 37.5156 31.0626ZM28.1094 42.5469C27.892 42.8588 27.8594 43.0942 27.8906 43.4698C27.8951 43.5508 27.8996 43.6319 27.9043 43.7155C28.0484 44.097 28.3124 44.3144 28.6562 44.5157C28.9716 44.5916 29.2753 44.5892 29.5986 44.5844C29.7387 44.5856 29.7387 44.5856 29.8817 44.5867C30.1941 44.5887 30.5064 44.5867 30.8188 44.5847C31.043 44.5853 31.2672 44.5861 31.4915 44.5871C32.1001 44.5891 32.7086 44.5877 33.3171 44.5855C33.954 44.5837 34.5909 44.5847 35.2278 44.5853C36.2973 44.5858 37.3668 44.584 38.4363 44.581C39.6728 44.5775 40.9093 44.5775 42.1458 44.5794C43.3352 44.5811 44.5247 44.5803 45.7142 44.5785C46.2204 44.5777 46.7266 44.5778 47.2328 44.5787C47.8289 44.5795 48.425 44.5782 49.0211 44.5752C49.2399 44.5744 49.4587 44.5744 49.6775 44.5752C49.9761 44.5761 50.2746 44.5744 50.5733 44.572C50.6599 44.5729 50.7465 44.5738 50.8357 44.5747C51.4009 44.5662 51.7226 44.4502 52.1719 44.0782C52.3811 43.7416 52.3909 43.5468 52.3838 43.1485C52.2613 42.6913 52.0988 42.5138 51.7344 42.2188C51.3233 42.0818 50.9399 42.0932 50.5117 42.0933C50.4194 42.0929 50.3271 42.0925 50.2321 42.0921C49.9217 42.0909 49.6114 42.0905 49.3011 42.0901C49.079 42.0894 48.857 42.0887 48.6349 42.0879C48.0309 42.086 47.4268 42.0848 46.8228 42.0839C46.4456 42.0834 46.0683 42.0827 45.6911 42.082C44.5113 42.0799 43.3315 42.0784 42.1518 42.0775C40.789 42.0764 39.4262 42.0735 38.0635 42.0691C37.0107 42.0658 35.9579 42.0642 34.9051 42.0638C34.276 42.0636 33.647 42.0626 33.0179 42.0598C32.4262 42.0573 31.8345 42.0568 31.2428 42.0579C31.0256 42.058 30.8084 42.0573 30.5913 42.0558C30.2948 42.0539 29.9984 42.0546 29.7019 42.0561C29.6159 42.0549 29.5299 42.0537 29.4414 42.0524C28.872 42.0591 28.5482 42.1869 28.1094 42.5469ZM29.6406 46.0469C29.6068 46.2167 29.5789 46.3876 29.5535 46.5588C29.5369 46.6662 29.5204 46.7737 29.5033 46.8844C29.4765 47.0586 29.4765 47.0586 29.4492 47.2364C29.1804 48.9043 28.8066 50.4836 28.1457 52.0408C28.0086 52.3701 27.894 52.7085 27.7812 53.0469C29.4777 53.0469 31.1741 53.0469 32.9219 53.0469C32.958 51.928 32.9941 50.8091 33.0312 49.6563C33.3546 49.4946 33.6593 49.5403 34.0156 49.5469C34.2504 49.9309 34.2675 50.2515 34.2797 50.6971C34.286 50.9022 34.286 50.9022 34.2925 51.1115C34.2959 51.2539 34.2992 51.3963 34.3027 51.543C34.3091 51.7592 34.3091 51.7592 34.3155 51.9797C34.3259 52.3354 34.3349 52.6912 34.3437 53.0469C35.2822 53.0469 36.2206 53.0469 37.1875 53.0469C37.1955 52.7229 37.1955 52.7229 37.2037 52.3924C37.2119 52.1093 37.2202 51.8261 37.2285 51.543C37.2319 51.4006 37.2353 51.2582 37.2388 51.1115C37.243 50.9747 37.2472 50.838 37.2516 50.6971C37.2567 50.5081 37.2567 50.5081 37.262 50.3152C37.2969 49.9844 37.2969 49.9844 37.5156 49.5469C37.8405 49.5469 38.1653 49.5469 38.5 49.5469C38.5361 50.7019 38.5722 51.8569 38.6094 53.0469C39.5839 53.0469 40.5584 53.0469 41.5625 53.0469C41.5705 52.7092 41.5705 52.7092 41.5787 52.3646C41.5848 52.1463 41.5909 51.9281 41.5972 51.7098C41.6014 51.5582 41.6052 51.4066 41.6086 51.255C41.6136 51.0369 41.6201 50.8189 41.6266 50.6009C41.6317 50.4042 41.6317 50.4042 41.637 50.2035C41.6719 49.8751 41.6719 49.8751 41.8906 49.5469C42.2155 49.5469 42.5403 49.5469 42.875 49.5469C42.9111 50.7019 42.9472 51.8569 42.9844 53.0469C43.9589 53.0469 44.9334 53.0469 45.9375 53.0469C45.9455 52.7092 45.9455 52.7092 45.9537 52.3646C45.9598 52.1463 45.9659 51.9281 45.9722 51.7098C45.9764 51.5582 45.9802 51.4066 45.9836 51.255C45.9886 51.0369 45.9951 50.8189 46.0016 50.6009C46.005 50.4698 46.0085 50.3386 46.012 50.2035C46.0469 49.8751 46.0469 49.8751 46.2656 49.5469C46.6484 49.5128 46.6484 49.5128 47.0312 49.5469C47.3406 49.8563 47.2844 50.0718 47.2953 50.5048C47.3011 50.7039 47.3011 50.7039 47.3071 50.9069C47.3108 51.0762 47.3145 51.2455 47.3184 51.42C47.3319 51.9569 47.3454 52.4938 47.3594 53.0469C49.0558 53.0469 50.7522 53.0469 52.5 53.0469C52.3511 52.6882 52.2022 52.3296 52.0488 51.96C51.383 50.2962 50.9939 48.5852 50.6865 46.824C50.6715 46.7385 50.6565 46.6529 50.641 46.5648C50.6043 46.3557 50.5678 46.1466 50.5312 45.9376C47.8236 45.935 45.1159 45.9331 42.4083 45.9319C41.1512 45.9313 39.8941 45.9306 38.637 45.9293C37.5417 45.9282 36.4464 45.9275 35.3511 45.9273C34.7708 45.9271 34.1905 45.9268 33.6102 45.926C33.0646 45.9253 32.5191 45.925 31.9735 45.9252C31.7727 45.9252 31.5718 45.9249 31.371 45.9245C31.098 45.924 30.8251 45.9241 30.5521 45.9244C30.4715 45.9241 30.391 45.9238 30.308 45.9234C29.9432 45.8925 29.9433 45.8925 29.6406 46.0469Z" fill="#113065"/>
<path d="M5.54736 28.3755C5.6408 28.3748 5.73423 28.3741 5.8305 28.3734C6.02798 28.3727 6.22547 28.373 6.42295 28.3744C6.72552 28.3759 7.02772 28.3722 7.33026 28.368C7.52209 28.3679 7.71392 28.3681 7.90576 28.3687C7.99634 28.3672 8.08692 28.3658 8.18025 28.3643C8.57482 28.3707 8.79747 28.3746 9.08103 28.6625C9.21166 29.0574 9.22868 29.4164 9.21954 29.8273C9.21907 29.9066 9.21861 29.986 9.21813 30.0677C9.2163 30.3196 9.21219 30.5713 9.208 30.8232C9.20636 30.9946 9.20486 31.166 9.20352 31.3374C9.19991 31.7562 9.19425 32.1749 9.18749 32.5937C9.25181 32.6121 9.31613 32.6304 9.3824 32.6494C10.2577 32.9169 10.9173 33.3754 11.428 34.1536C11.7234 34.7326 11.8263 35.1956 11.8279 35.8385C11.8282 35.913 11.8285 35.9875 11.8288 36.0642C11.8298 36.3144 11.83 36.5645 11.8301 36.8146C11.8306 36.9937 11.8312 37.1728 11.8318 37.352C11.8332 37.839 11.8339 38.3259 11.8344 38.8129C11.8347 39.1171 11.8352 39.4213 11.8356 39.7254C11.8371 40.6768 11.8382 41.6282 11.8386 42.5796C11.8391 43.6783 11.841 44.777 11.8442 45.8758C11.8466 46.7248 11.8477 47.5738 11.8478 48.4228C11.8479 48.93 11.8486 49.4372 11.8505 49.9444C11.8523 50.4215 11.8526 50.8985 11.8516 51.3756C11.8515 51.5507 11.852 51.7258 11.8531 51.9009C11.8545 52.1399 11.8538 52.3789 11.8527 52.6179C11.8529 52.8186 11.8529 52.8186 11.8532 53.0233C11.7943 53.5325 11.5933 53.8097 11.2421 54.1713C10.8598 54.4073 10.5467 54.4203 10.111 54.4142C10.0296 54.4148 9.9483 54.4154 9.86449 54.416C9.59662 54.4173 9.32889 54.4155 9.06103 54.4136C8.8743 54.4136 8.68757 54.4138 8.50084 54.4141C8.1099 54.4142 7.719 54.4128 7.32807 54.4103C6.8275 54.4072 6.327 54.4075 5.82643 54.4089C5.44097 54.4097 5.05552 54.4088 4.67006 54.4075C4.48551 54.407 4.30097 54.4069 4.11642 54.4074C3.85829 54.4077 3.60025 54.4059 3.34213 54.4035C3.2662 54.404 3.19028 54.4045 3.11205 54.405C2.63934 54.3978 2.33861 54.3296 1.96875 54.0312C1.64177 53.59 1.59913 53.2679 1.59748 52.7242C1.59682 52.649 1.59615 52.5738 1.59546 52.4964C1.59365 52.2451 1.59417 51.994 1.59469 51.7428C1.59389 51.5624 1.59295 51.3819 1.59188 51.2015C1.58945 50.7118 1.58913 50.2221 1.58934 49.7323C1.58935 49.323 1.58842 48.9137 1.58751 48.5044C1.5854 47.5382 1.58509 46.572 1.58583 45.6058C1.58655 44.6105 1.58405 43.6153 1.57999 42.6201C1.57663 41.7645 1.5754 40.909 1.57582 40.0535C1.57605 39.543 1.57545 39.0326 1.57277 38.5221C1.57033 38.0415 1.57055 37.561 1.57276 37.0804C1.57313 36.9047 1.57258 36.7289 1.57101 36.5532C1.56271 35.5543 1.62398 34.7597 2.1875 33.9062C2.2484 33.8069 2.30931 33.7077 2.37207 33.6054C2.90978 33.0822 3.52856 32.7268 4.26562 32.5937C4.2639 32.4833 4.26218 32.373 4.26041 32.2593C4.25447 31.8492 4.2507 31.439 4.2476 31.0289C4.24595 30.8515 4.24371 30.6741 4.24087 30.4968C4.23688 30.2415 4.23502 29.9864 4.23358 29.7311C4.23188 29.6521 4.23019 29.573 4.22844 29.4915C4.22834 29.1704 4.25327 28.9061 4.37208 28.6065C4.72843 28.3347 5.1171 28.3729 5.54736 28.3755ZM5.68749 29.8593C5.68749 30.7256 5.68749 31.5918 5.68749 32.4843C6.37328 32.4843 7.05906 32.4843 7.76562 32.4843C7.76562 31.6181 7.76562 30.7518 7.76562 29.8593C7.07984 29.8593 6.39406 29.8593 5.68749 29.8593ZM3.39062 34.6718C2.85584 35.5504 2.95312 36.3726 2.95312 37.4062C5.4075 37.4062 7.86187 37.4062 10.3906 37.4062C10.5124 35.7134 10.5124 35.7134 9.82324 34.4872C9.20175 33.9762 8.53618 33.8558 7.74853 33.8626C7.62605 33.8621 7.62605 33.8621 7.50109 33.8617C7.32977 33.8614 7.15844 33.862 6.98712 33.8634C6.72717 33.8652 6.4674 33.8634 6.20745 33.8613C6.03983 33.8615 5.87221 33.862 5.70458 33.8626C5.58987 33.8616 5.58987 33.8616 5.47284 33.8606C4.68308 33.8717 3.96102 34.1014 3.39062 34.6718ZM2.95312 38.8281C2.95312 41.896 2.95312 44.964 2.95312 48.1249C5.4075 48.1249 7.86187 48.1249 10.3906 48.1249C10.3906 45.057 10.3906 41.989 10.3906 38.8281C7.93624 38.8281 5.48187 38.8281 2.95312 38.8281ZM2.95312 49.5468C2.95312 50.6296 2.95312 51.7124 2.95312 52.8281C3.15549 53.0771 3.15549 53.0771 3.46734 53.0739C3.65556 53.0736 3.65556 53.0736 3.84759 53.0734C4.06053 53.0739 4.06053 53.0739 4.27778 53.0744C4.43338 53.0736 4.58897 53.0729 4.74456 53.072C4.90338 53.0719 5.0622 53.0718 5.22102 53.0719C5.55396 53.0717 5.88688 53.0708 6.21982 53.0693C6.64747 53.0675 7.0751 53.067 7.50275 53.0671C7.83068 53.0671 8.1586 53.0665 8.48653 53.0657C8.64427 53.0654 8.802 53.0651 8.95974 53.0651C9.17972 53.0648 9.3997 53.0638 9.61968 53.0627C9.74508 53.0623 9.87047 53.0619 9.99966 53.0614C10.2738 53.0787 10.2738 53.0787 10.3906 52.9374C10.3906 51.8185 10.3906 50.6996 10.3906 49.5468C7.93624 49.5468 5.48187 49.5468 2.95312 49.5468Z" fill="#113065"/>
<path d="M20.3984 1.57214C20.4808 1.57073 20.5631 1.56932 20.6479 1.56787C21.0178 1.67858 21.1168 1.86555 21.3281 2.18738C21.4436 2.53038 21.5128 2.87933 21.5823 3.23413C21.6033 3.33454 21.6243 3.43495 21.6459 3.53841C21.7123 3.85797 21.7766 4.17791 21.8408 4.49793C21.9066 4.81861 21.9729 5.13921 22.0393 5.45979C22.0803 5.65897 22.121 5.85824 22.1612 6.05759C22.1795 6.14777 22.1978 6.23795 22.2167 6.33086C22.2405 6.44971 22.2405 6.44971 22.2649 6.57095C22.3139 6.80328 22.3139 6.80328 22.4219 7.10925C22.6841 7.22666 22.9352 7.32261 23.2067 7.41303C23.3251 7.45447 23.3251 7.45447 23.4459 7.49675C23.6989 7.58529 23.9524 7.67216 24.206 7.75867C24.5388 7.87216 24.871 7.9873 25.2028 8.10346C25.2792 8.12888 25.3555 8.1543 25.4342 8.18049C25.8753 8.33507 26.1788 8.4881 26.4687 8.85925C26.5835 9.27237 26.5949 9.54837 26.5029 9.96668C26.1376 10.4208 25.7152 10.5509 25.174 10.7435C24.8895 10.8452 24.6066 10.9509 24.3235 11.0566C23.8937 11.2159 23.4638 11.3747 23.0328 11.5308C22.8959 11.5806 22.8959 11.5806 22.7561 11.6314C22.5312 11.703 22.5312 11.703 22.3125 11.703C22.2982 11.8456 22.2839 11.9882 22.2692 12.1351C22.2122 12.6463 22.1241 13.1459 22.0203 13.6495C21.9933 13.7802 21.9933 13.7802 21.9658 13.9136C21.9278 14.096 21.8896 14.2783 21.8511 14.4606C21.8122 14.6462 21.7743 14.8321 21.7372 15.0181C21.6832 15.2892 21.6264 15.5597 21.5691 15.8302C21.5531 15.9128 21.5371 15.9954 21.5207 16.0805C21.4011 16.6239 21.2343 16.9261 20.7812 17.2811C20.3984 17.3495 20.3984 17.3495 20.0156 17.2811C19.4311 16.8384 19.3329 16.3754 19.2 15.6913C19.1789 15.5912 19.1579 15.491 19.1361 15.3879C19.0696 15.0691 19.006 14.7499 18.9424 14.4305C18.8976 14.2154 18.8527 14.0003 18.8076 13.7852C18.7261 13.3914 18.6445 12.9976 18.5661 12.6032C18.5502 12.5242 18.5344 12.4452 18.5181 12.3638C18.4844 12.1405 18.4844 12.1405 18.4844 11.703C18.4217 11.6848 18.3591 11.6666 18.2946 11.6478C17.5172 11.4185 16.7484 11.168 15.9824 10.9032C15.7997 10.8432 15.7997 10.8432 15.6133 10.7821C14.627 10.4381 14.627 10.4381 14.3546 10.0585C14.2278 9.75589 14.1671 9.60174 14.2187 9.28308C14.2278 9.21287 14.2368 9.14265 14.2461 9.07031C14.3641 8.76661 14.5127 8.62865 14.7656 8.42175C15.1293 8.32971 15.1293 8.32971 15.5594 8.26495C17.0991 7.96613 17.0991 7.96613 18.375 7.10925C19.078 5.91494 19.2073 4.32122 19.3446 2.96618C19.4198 2.28077 19.5659 1.55789 20.3984 1.57214ZM20.3437 4.92175C20.3165 5.05833 20.3165 5.05833 20.2887 5.19767C20.2206 5.53605 20.1514 5.87418 20.0814 6.21217C20.0514 6.35837 20.0218 6.50467 19.9926 6.65106C19.9506 6.86171 19.9069 7.072 19.8631 7.28229C19.8373 7.40887 19.8115 7.53546 19.785 7.66587C19.6844 7.99434 19.636 8.1176 19.3594 8.31238C19.0746 8.43652 19.0746 8.43652 18.7369 8.55206C18.6155 8.59443 18.4942 8.6368 18.3692 8.68045C18.2425 8.72366 18.1159 8.76688 17.9853 8.8114C17.7344 8.89757 17.4836 8.98427 17.233 9.07159C17.1216 9.1096 17.0103 9.14761 16.8956 9.18676C16.6117 9.28174 16.6117 9.28174 16.4062 9.5155C16.4973 9.54463 16.5883 9.57375 16.6822 9.60376C17.0212 9.71374 17.3591 9.82634 17.6967 9.94075C17.8426 9.98962 17.9889 10.0375 18.1355 10.0842C19.3756 10.4807 19.3756 10.4807 19.7114 10.9442C19.7598 11.1399 19.7598 11.1399 19.7969 11.3749C19.8326 11.5268 19.8326 11.5268 19.8692 11.6818C19.9504 12.0318 20.0216 12.3827 20.0908 12.7352C20.1154 12.857 20.14 12.9787 20.1654 13.1042C20.2256 13.4026 20.285 13.7012 20.3437 13.9999C20.3798 13.9999 20.4159 13.9999 20.4531 13.9999C20.4718 13.9088 20.4906 13.8178 20.5099 13.724C20.5798 13.3857 20.6504 13.0475 20.7215 12.7095C20.7521 12.5632 20.7824 12.4169 20.8125 12.2706C20.8558 12.06 20.9001 11.8497 20.9444 11.6393C20.9708 11.5128 20.9971 11.3862 21.0243 11.2558C21.1094 10.9374 21.1094 10.9374 21.3281 10.6093C21.6341 10.4716 21.6341 10.4716 22.0194 10.338C22.1209 10.3022 22.1209 10.3022 22.2244 10.2658C22.4403 10.1901 22.6566 10.116 22.873 10.0419C23.0196 9.99077 23.1662 9.93958 23.3127 9.88828C23.6716 9.76285 24.031 9.63881 24.3906 9.5155C24.1273 9.25215 23.9145 9.188 23.5639 9.0639C23.4427 9.02069 23.3215 8.97748 23.1967 8.93295C23.0696 8.88833 22.9425 8.84371 22.8115 8.79773C22.6848 8.75268 22.5582 8.70764 22.4276 8.66122C21.9891 8.50555 21.5508 8.35015 21.1094 8.203C21.0939 8.11915 21.0785 8.03529 21.0626 7.9489C20.9923 7.56863 20.921 7.18855 20.8496 6.80847C20.8253 6.6765 20.8011 6.54454 20.7761 6.40857C20.7521 6.28168 20.7282 6.15479 20.7035 6.02405C20.6817 5.9072 20.66 5.79036 20.6375 5.66997C20.5698 5.38958 20.4854 5.17136 20.3437 4.92175Z" fill="#113065"/>
<path d="M7.10938 7.21874C7.55443 7.55439 7.64436 7.89653 7.76563 8.4287C7.7918 8.54136 7.7918 8.54136 7.8185 8.65629C7.87573 8.90588 7.93024 9.15596 7.98438 9.40624C8.00475 9.49852 8.02513 9.5908 8.04612 9.68587C8.42188 11.3915 8.42188 11.3915 8.42188 11.8125C8.48843 11.8286 8.55497 11.8446 8.62354 11.8612C9.27744 12.0285 9.91383 12.2317 10.5479 12.4619C10.6229 12.4882 10.6979 12.5145 10.7751 12.5416C11.2131 12.7043 11.5195 12.867 11.8125 13.2344C11.9411 13.6289 11.9446 13.8263 11.8061 14.2187C11.5428 14.6255 11.2691 14.7387 10.8281 14.8887C10.7554 14.9154 10.6827 14.9421 10.6078 14.9697C10.4603 15.0236 10.3125 15.0766 10.1644 15.1286C9.97157 15.1966 9.78024 15.2689 9.58911 15.3415C8.80142 15.6406 8.80142 15.6406 8.42188 15.6406C8.40974 15.726 8.39759 15.8113 8.38508 15.8993C8.25347 16.7924 8.08676 17.672 7.88868 18.5527C7.86203 18.6792 7.83538 18.8057 7.80793 18.936C7.78071 19.0568 7.7535 19.1776 7.72547 19.3021C7.70166 19.4105 7.67785 19.5189 7.65332 19.6305C7.52693 19.9579 7.41359 20.065 7.10938 20.2344C6.72163 20.2759 6.45753 20.2977 6.11224 20.1055C5.84743 19.8493 5.80638 19.6604 5.72766 19.3021C5.70045 19.1813 5.67324 19.0605 5.64521 18.936C5.61856 18.8095 5.59191 18.683 5.56446 18.5527C5.53696 18.4305 5.50947 18.3082 5.48114 18.1823C5.29555 17.3399 5.15273 16.4945 5.03125 15.6406C4.89224 15.6128 4.75322 15.5851 4.60999 15.5564C4.02388 15.4255 3.47189 15.2342 2.91211 15.0185C2.81497 14.9842 2.71783 14.9499 2.61774 14.9145C1.83484 14.6119 1.83484 14.6119 1.62525 14.1568C1.51498 13.7162 1.54856 13.5279 1.75 13.125C2.01584 12.7943 2.30547 12.6896 2.70063 12.5495C2.82195 12.5061 2.94327 12.4628 3.06827 12.4181C3.19495 12.3739 3.32163 12.3297 3.45215 12.2842C3.57926 12.2387 3.70636 12.1932 3.83731 12.1464C4.77978 11.8125 4.77978 11.8125 5.03125 11.8125C5.04387 11.7336 5.05649 11.6547 5.06949 11.5734C5.2027 10.7558 5.3553 9.94395 5.52344 9.1328C5.5467 9.01719 5.56997 8.90157 5.59394 8.78246C5.61692 8.67136 5.6399 8.56026 5.66358 8.44579C5.68395 8.34646 5.70432 8.24713 5.72531 8.14479C5.93246 7.36381 6.28837 7.13232 7.10938 7.21874ZM6.67188 10.7187C6.64664 10.8571 6.6214 10.9954 6.5954 11.1379C6.55949 11.3195 6.52345 11.501 6.48731 11.6826C6.46288 11.8193 6.46288 11.8193 6.43796 11.9588C6.3007 12.629 6.3007 12.629 6.00196 12.8926C5.8463 12.9535 5.8463 12.9535 5.6875 13.0156C5.6188 13.0436 5.55009 13.0715 5.4793 13.1003C5.24712 13.1929 5.01336 13.2792 4.77832 13.3642C4.69732 13.3941 4.61632 13.4239 4.53287 13.4546C4.3346 13.5275 4.13607 13.5998 3.9375 13.6719C4.26727 13.9672 4.59929 14.08 5.01924 14.2065C6.02516 14.5189 6.02516 14.5189 6.30487 14.9036C6.38881 15.1895 6.42675 15.4534 6.45313 15.75C6.49483 15.9554 6.53806 16.1605 6.58301 16.3652C6.61317 16.5246 6.64301 16.6841 6.67188 16.8437C6.70797 16.8437 6.74407 16.8437 6.78125 16.8437C6.82292 16.6363 6.82292 16.6363 6.86542 16.4246C6.90338 16.243 6.94141 16.0614 6.9795 15.8799C6.99761 15.7887 7.01573 15.6976 7.0344 15.6037C7.05308 15.5159 7.07176 15.4281 7.09101 15.3377C7.10762 15.2569 7.12423 15.1762 7.14134 15.093C7.23385 14.8325 7.33114 14.7183 7.54688 14.5469C7.75308 14.4528 7.75308 14.4528 7.98181 14.379C8.06415 14.3514 8.14649 14.3238 8.23133 14.2954C8.31677 14.2679 8.40221 14.2403 8.49024 14.2119C8.79947 14.1116 9.10185 14.0056 9.40625 13.8906C9.44235 13.8184 9.47844 13.7462 9.51563 13.6719C9.45439 13.6521 9.39316 13.6323 9.33007 13.612C9.0515 13.5205 8.77435 13.4254 8.49707 13.3301C8.40071 13.299 8.30434 13.268 8.20505 13.2361C7.49644 12.9882 7.49644 12.9882 7.21875 12.602C7.09928 12.2175 7.00309 11.8385 6.92481 11.4433C6.89732 11.3071 6.86982 11.171 6.8415 11.0306C6.82162 10.9277 6.80174 10.8248 6.78125 10.7187C6.74516 10.7187 6.70907 10.7187 6.67188 10.7187Z" fill="#113065"/>
</svg>
