<svg width="32" height="32" viewBox="0 0 32 32" fill="none" xmlns="http://www.w3.org/2000/svg">
  <circle cx="16" cy="16" r="16" fill="#113065"/>
  <path d="M16 10.4C17.8 10.4 18 10.4 18.8 10.4C19.4 10.4 19.8 10.6 20 10.8C20.4 11 20.6 11.2 20.8 11.6C21 11.8 21.2 12.4 21.2 13C21.2 13.8 21.2 14 21.2 15.8C21.2 17.6 21.2 17.8 21.2 18.6C21.2 19.2 21 19.6 20.8 19.8C20.6 20.2 20.4 20.4 20 20.6C19.8 20.8 19.2 21 18.6 21C17.8 21 17.6 21 15.8 21C14 21 13.8 21 13 21C12.4 21 12 20.8 11.8 20.6C11.4 20.4 11.2 20.2 11 19.8C10.8 19.6 10.6 19 10.6 18.4C10.6 17.6 10.6 17.4 10.6 15.6C10.6 13.8 10.6 13.6 10.6 12.8C10.6 12.2 10.8 11.8 11 11.6C11.2 11.2 11.4 11 11.8 10.8C12 10.6 12.6 10.4 13.2 10.4C14 10.4 14.2 10.4 16 10.4ZM16 9C14.2 9 13.8 9 13 9C12.2 9 11.6 9.2 11.2 9.4C10.6 9.6 10.2 10 9.8 10.4C9.4 10.8 9.2 11.4 9 12C8.8 12.4 8.6 13 8.6 13.8C8.6 14.6 8.6 15 8.6 16.8C8.6 18.6 8.6 19 8.6 19.8C8.6 20.6 8.8 21.2 9 21.6C9.2 22.2 9.6 22.6 10 23C10.4 23.4 11 23.6 11.6 23.8C12 24 12.6 24.2 13.4 24.2C14.2 24.2 14.6 24.2 16.4 24.2C18.2 24.2 18.6 24.2 19.4 24.2C20.2 24.2 20.8 24 21.2 23.8C21.8 23.6 22.2 23.2 22.6 22.8C23 22.4 23.2 21.8 23.4 21.2C23.6 20.8 23.8 20.2 23.8 19.4C23.8 18.6 23.8 18.2 23.8 16.4C23.8 14.6 23.8 14.2 23.8 13.4C23.8 12.6 23.6 12 23.4 11.6C23.2 11 22.8 10.6 22.4 10.2C22 9.8 21.4 9.6 20.8 9.4C20.4 9.2 19.8 9 19 9C18.2 9 17.8 9 16 9Z" fill="white"/>
  <path d="M16 12.4C13.8 12.4 12 14.2 12 16.4C12 18.6 13.8 20.4 16 20.4C18.2 20.4 20 18.6 20 16.4C20 14.2 18.2 12.4 16 12.4ZM16 19C14.6 19 13.4 17.8 13.4 16.4C13.4 15 14.6 13.8 16 13.8C17.4 13.8 18.6 15 18.6 16.4C18.6 17.8 17.4 19 16 19Z" fill="white"/>
  <circle cx="20.2" cy="12.2" r="0.8" fill="white"/>
</svg>
