<svg width="32" height="32" viewBox="0 0 32 32" fill="none" xmlns="http://www.w3.org/2000/svg">
  <circle cx="16" cy="16" r="16" fill="#113065"/>
  <path d="M11.5 13.5H9V23H11.5V13.5Z" fill="white"/>
  <path d="M10.25 12C11.0784 12 11.75 11.3284 11.75 10.5C11.75 9.67157 11.0784 9 10.25 9C9.42157 9 8.75 9.67157 8.75 10.5C8.75 11.3284 9.42157 12 10.25 12Z" fill="white"/>
  <path d="M17.5 17.5C17.5 16.4 18.4 15.5 19.5 15.5C20.6 15.5 21.5 16.4 21.5 17.5V23H24V17C24 14.5 22 12.5 19.5 12.5C18.3 12.5 17.2 13 16.5 13.7V13H14V23H17.5V17.5Z" fill="white"/>
</svg>
