<svg width="177" height="79" viewBox="0 0 177 79" fill="none" xmlns="http://www.w3.org/2000/svg">
<g clip-path="url(#clip0_1_161)">
<path d="M116.744 21.9082C114.404 22.6601 112.472 24.4382 110.942 26.3889C109.262 28.53 107.942 30.9373 106.206 33.0316C104.932 34.5693 103.423 35.9408 101.655 36.8718C99.8862 37.8028 97.8468 38.2755 95.867 38.0044C93.8808 37.7318 92.0495 36.7282 90.5183 35.4325C88.1077 33.3898 86.3587 30.5791 85.5923 27.5135C84.0853 29.3545 83.1204 31.5634 81.5876 33.3624C80.0128 35.2099 77.9879 36.6927 75.6919 37.5043C71.5581 38.9645 67.7938 37.9496 64.278 34.4096C60.2926 30.4242 58.5856 23.3184 60.17 17.3275C62.4612 8.6598 70.185 1.38777 79.1334 0.121177C82.0426 -0.290265 85.0017 0.38579 87.5511 1.81696C81.6957 1.42649 76.1146 4.97941 72.6359 9.70534C70.3447 12.8194 68.7829 16.4691 68.1133 20.277C67.6324 23.0135 67.7357 26.1678 69.7058 28.1282C70.7352 29.1544 72.2083 29.7191 73.6588 29.6465C75.7112 29.5449 77.5199 28.2525 78.9414 26.7681C83.819 21.671 86.2248 12.9178 94.2551 11.9271C96.6657 11.6286 99.2957 12.4725 100.751 14.4184C98.5228 14.3683 96.1849 14.7169 94.3907 16.0399C90.6522 18.799 89.8309 25.2288 92.7368 28.8333C94.1841 30.6292 96.5479 31.6924 98.8375 31.4198C101.327 31.1229 103.402 29.3948 105.095 27.5441C106.786 25.6935 108.293 23.6137 110.379 22.2228C112.465 20.832 115.381 20.285 117.438 21.7194C117.202 21.7727 116.972 21.8356 116.744 21.9082Z" fill="#113065"/>
<path d="M103.894 23.2133C100.151 23.678 99.7747 24.054 99.31 27.7973C98.8453 24.054 98.4694 23.678 94.7261 23.2133C98.4694 22.7486 98.8453 22.3727 99.31 18.6294C99.7747 22.3727 100.151 22.7486 103.894 23.2133Z" fill="#2775B3"/>
<path d="M108.809 18.8553C106.135 19.1877 105.866 19.4555 105.533 22.1307C105.201 19.4571 104.933 19.1877 102.258 18.8553C104.931 18.5229 105.201 18.2551 105.533 15.5799C105.866 18.2535 106.133 18.5229 108.809 18.8553Z" fill="#268EBF"/>
<path d="M114.069 17.7436C112.302 17.963 112.124 18.1405 111.905 19.9073C111.686 18.1405 111.508 17.963 109.741 17.7436C111.508 17.5242 111.686 17.3467 111.905 15.5799C112.124 17.3467 112.302 17.5242 114.069 17.7436Z" fill="url(#paint0_radial_1_161)"/>
</g>
<g clip-path="url(#clip1_1_161)">
<path d="M96.9886 45.1548C99.1732 45.1548 101.358 45.1548 103.609 45.1548C103.714 45.4699 103.801 45.7531 103.869 46.0737C103.887 46.1592 103.905 46.2447 103.924 46.3329C103.953 46.4718 103.953 46.4718 103.983 46.6135C104.004 46.712 104.025 46.8105 104.046 46.912C104.103 47.1812 104.16 47.4505 104.217 47.7198C104.264 47.9452 104.312 48.1705 104.359 48.3959C104.472 48.9278 104.584 49.4599 104.696 49.9919C104.811 50.5395 104.927 51.087 105.043 51.6344C105.143 52.1055 105.242 52.5767 105.341 53.048C105.401 53.3289 105.46 53.6098 105.519 53.8907C105.586 54.2043 105.652 54.5179 105.718 54.8316C105.737 54.9238 105.757 55.0159 105.777 55.1108C105.878 55.594 105.956 56.069 106.001 56.5605C106.054 56.5605 106.107 56.5605 106.161 56.5605C106.165 56.5152 106.168 56.4699 106.172 56.4232C106.223 55.8436 106.322 55.2784 106.432 54.7072C106.451 54.6045 106.47 54.5018 106.49 54.396C106.543 54.1169 106.596 53.8378 106.649 53.5587C106.704 53.2661 106.76 52.9733 106.815 52.6806C106.908 52.19 107.001 51.6995 107.094 51.209C107.202 50.6414 107.31 50.0738 107.417 49.5061C107.52 48.9594 107.624 48.4128 107.727 47.8662C107.772 47.6336 107.816 47.401 107.859 47.1684C107.921 46.8447 107.982 46.5211 108.044 46.1975C108.062 46.1005 108.08 46.0036 108.099 45.9038C108.116 45.8162 108.133 45.7287 108.15 45.6385C108.165 45.562 108.179 45.4854 108.194 45.4066C108.235 45.2346 108.235 45.2346 108.315 45.1548C108.54 45.1472 108.764 45.1448 108.99 45.1458C109.096 45.1458 109.096 45.1458 109.204 45.1457C109.44 45.1458 109.675 45.1464 109.91 45.147C110.073 45.1472 110.235 45.1473 110.398 45.1474C110.827 45.1477 111.256 45.1485 111.685 45.1493C112.122 45.1502 112.559 45.1505 112.997 45.1509C113.855 45.1518 114.714 45.1531 115.573 45.1548C115.844 46.4277 116.096 47.7034 116.336 48.9825C116.393 49.2853 116.45 49.588 116.507 49.8907C116.659 50.6947 116.81 51.4988 116.962 52.303C117.071 52.887 117.181 53.471 117.292 54.055C117.33 54.2559 117.367 54.4569 117.405 54.6579C117.457 54.9364 117.51 55.2148 117.562 55.4933C117.578 55.5765 117.593 55.6597 117.609 55.7455C117.624 55.8206 117.638 55.8958 117.653 55.9733C117.665 56.039 117.677 56.1046 117.69 56.1723C117.713 56.3215 117.713 56.3215 117.806 56.401C117.818 56.345 117.83 56.289 117.842 56.2313C118.13 54.8686 118.418 53.506 118.707 52.1434C118.846 51.4844 118.985 50.8255 119.125 50.1665C119.246 49.5922 119.368 49.0179 119.489 48.4436C119.554 48.1395 119.618 47.8354 119.682 47.5313C119.743 47.245 119.803 46.9588 119.864 46.6726C119.897 46.5174 119.93 46.3622 119.962 46.207C119.982 46.1146 120.001 46.0222 120.022 45.9271C120.039 45.8468 120.056 45.7665 120.073 45.6838C120.112 45.5067 120.155 45.3306 120.199 45.1548C122.383 45.1548 124.568 45.1548 126.819 45.1548C126.761 45.5592 126.694 45.9034 126.583 46.2907C126.567 46.3462 126.551 46.4017 126.534 46.4589C126.481 46.6439 126.427 46.8288 126.374 47.0136C126.335 47.1473 126.297 47.2809 126.258 47.4146C126.153 47.7784 126.048 48.1421 125.943 48.5058C125.832 48.8896 125.721 49.2735 125.61 49.6573C125.422 50.312 125.233 50.9666 125.043 51.6212C124.739 52.6722 124.436 53.7234 124.133 54.7747C124.032 55.1246 123.931 55.4745 123.83 55.8244C123.805 55.9098 123.78 55.9953 123.755 56.0833C123.586 56.6697 123.416 57.256 123.247 57.8423C123.201 58.0016 123.155 58.161 123.109 58.3203C123.025 58.6125 122.94 58.9047 122.856 59.1969C122.827 59.2974 122.827 59.2974 122.797 59.3999C122.759 59.5309 122.721 59.6619 122.683 59.7929C122.581 60.1478 122.48 60.5031 122.379 60.8587C122.358 60.9361 122.336 61.0136 122.313 61.0933C122.271 61.2433 122.229 61.3934 122.187 61.5435C122.168 61.6105 122.149 61.6775 122.129 61.7465C122.113 61.806 122.096 61.8655 122.079 61.9268C122.033 62.064 122.033 62.064 121.954 62.1438C121.708 62.1514 121.465 62.1538 121.22 62.1528C121.104 62.1528 121.104 62.1528 120.986 62.1529C120.73 62.1528 120.474 62.1522 120.218 62.1516C120.042 62.1514 119.865 62.1513 119.688 62.1512C119.221 62.1509 118.754 62.1501 118.288 62.1492C117.812 62.1484 117.336 62.1481 116.86 62.1477C115.926 62.1468 114.992 62.1454 114.057 62.1438C113.794 60.8515 113.545 59.5572 113.309 58.2599C113.254 57.9631 113.2 57.6664 113.146 57.3697C113.011 56.6355 112.876 55.9012 112.742 55.1668C112.628 54.5404 112.513 53.914 112.398 53.2876C112.362 53.0907 112.326 52.8938 112.29 52.6969C112.24 52.424 112.19 52.1511 112.14 51.8782C112.118 51.7563 112.118 51.7563 112.095 51.6318C112.082 51.558 112.068 51.4841 112.054 51.408C112.042 51.3437 112.03 51.2794 112.018 51.2131C111.989 51.0519 111.989 51.0519 111.904 50.8976C111.219 54.6088 110.535 58.3201 109.83 62.1438C107.198 62.1438 104.566 62.1438 101.854 62.1438C100.134 56.1971 100.134 56.1971 99.3406 53.4483C99.3158 53.3624 99.291 53.2766 99.2654 53.1881C99.0222 52.3454 98.7791 51.5028 98.536 50.6602C98.4452 50.3456 98.3544 50.031 98.2636 49.7164C98.1987 49.4915 98.1339 49.2666 98.069 49.0416C97.8744 48.3669 97.6791 47.6924 97.482 47.0184C97.4477 46.9008 97.4134 46.7832 97.379 46.6656C97.3165 46.4516 97.2537 46.2376 97.1907 46.0236C97.1637 45.9313 97.1368 45.839 97.109 45.7439C97.0855 45.6641 97.0621 45.5844 97.0379 45.5022C96.9886 45.3143 96.9886 45.3143 96.9886 45.1548Z" fill="#113065"/>
<path d="M69.7106 47.7072C71.8952 47.7072 74.0798 47.7072 76.3307 47.7072C76.8949 48.5752 77.459 49.4434 78.0212 50.3128C78.4403 50.9604 78.8612 51.6068 79.2818 52.2535C79.5855 52.7204 79.8891 53.1873 80.1924 53.6543C80.2776 53.7855 80.3628 53.9166 80.4481 54.0477C80.5712 54.2372 80.6942 54.4268 80.8172 54.6164C80.8544 54.6736 80.8916 54.7308 80.9299 54.7897C81.1869 55.1863 81.1869 55.1863 81.2758 55.3641C81.3021 52.8373 81.3285 50.3105 81.3556 47.7072C83.1454 47.7072 84.9352 47.7072 86.7793 47.7072C86.7793 52.4712 86.7793 57.2353 86.7793 62.1438C84.621 62.1438 82.4627 62.1438 80.2389 62.1438C79.5121 61.1444 79.5121 61.1444 79.207 60.6632C79.1318 60.5458 79.0565 60.4285 78.9812 60.3112C78.9404 60.2476 78.8996 60.184 78.8576 60.1185C78.5989 59.7172 78.337 59.318 78.0754 58.9185C78.0182 58.8309 77.9609 58.7434 77.9019 58.6532C77.6632 58.2884 77.4245 57.9237 77.1857 57.5589C77.0652 57.3749 76.9447 57.1908 76.8242 57.0067C76.7122 56.8355 76.6001 56.6643 76.488 56.4931C76.0865 55.8796 75.6903 55.2631 75.2938 54.6463C75.2675 57.1205 75.2412 59.5946 75.214 62.1438C73.3979 62.1438 71.5817 62.1438 69.7106 62.1438C69.7106 57.3797 69.7106 52.6156 69.7106 47.7072Z" fill="#113065"/>
<path d="M130.249 47.7072C133.197 47.7072 136.145 47.7072 139.182 47.7072C139.541 48.6043 139.541 48.6043 139.657 48.9509C139.684 49.0293 139.71 49.1077 139.738 49.1886C139.779 49.3126 139.779 49.3126 139.822 49.4391C139.851 49.5278 139.881 49.6165 139.912 49.7079C139.976 49.8978 140.04 50.0877 140.104 50.2776C140.274 50.782 140.444 51.2861 140.615 51.7902C140.641 51.8661 140.641 51.8661 140.667 51.9436C140.985 52.8832 141.311 53.8201 141.64 54.756C142.222 56.4148 142.777 58.0821 143.329 59.751C143.593 60.5406 143.856 61.3302 144.127 62.1438C141.969 62.1438 139.81 62.1438 137.587 62.1438C137.317 61.335 137.317 61.335 137.237 61.0299C137.22 60.9646 137.202 60.8993 137.185 60.8319C137.168 60.7664 137.151 60.7008 137.133 60.6333C137.106 60.5318 137.106 60.5318 137.079 60.4281C136.949 59.9312 136.949 59.9312 136.949 59.751C135.448 59.751 133.948 59.751 132.402 59.751C132.363 60.0668 132.363 60.0668 132.323 60.389C132.295 60.5249 132.264 60.6603 132.23 60.7947C132.213 60.8639 132.196 60.9331 132.178 61.0044C132.16 61.0744 132.142 61.1444 132.123 61.2166C132.096 61.3244 132.096 61.3244 132.069 61.4343C131.935 61.9618 131.935 61.9618 131.844 62.1438C129.686 62.1438 127.527 62.1438 125.304 62.1438C126.415 58.7177 126.415 58.7177 126.884 57.3482C126.938 57.1903 126.992 57.0323 127.046 56.8744C127.431 55.7456 127.824 54.6193 128.219 53.4937C128.5 52.6941 128.776 51.8932 129.042 51.0889C129.068 51.0127 129.093 50.9365 129.119 50.8581C129.24 50.4939 129.36 50.1296 129.479 49.7649C129.522 49.6333 129.565 49.5016 129.609 49.37C129.627 49.3125 129.646 49.2551 129.665 49.1959C129.834 48.6843 130.039 48.2097 130.249 47.7072ZM134.636 51.1368C134.479 51.7386 134.323 52.3404 134.168 52.9422C134.095 53.2216 134.023 53.5011 133.95 53.7804C133.88 54.0499 133.811 54.3193 133.741 54.5888C133.701 54.7421 133.661 54.8953 133.622 55.0486C133.586 55.1875 133.586 55.1875 133.549 55.3292C133.528 55.4112 133.506 55.4932 133.485 55.5777C133.436 55.7441 133.436 55.7441 133.439 55.8427C134.255 55.8427 135.071 55.8427 135.912 55.8427C135.843 55.2916 135.843 55.2916 135.728 54.7588C135.707 54.6774 135.686 54.596 135.665 54.5121C135.643 54.4265 135.62 54.3408 135.597 54.2525C135.574 54.1631 135.552 54.0737 135.528 53.9816C135.455 53.6979 135.382 53.4144 135.309 53.1309C135.259 52.9378 135.209 52.7447 135.16 52.5517C135.039 52.0799 134.917 51.6084 134.795 51.1368C134.742 51.1368 134.69 51.1368 134.636 51.1368Z" fill="#113065"/>
<path d="M54.6358 47.7072C57.5838 47.7072 60.5317 47.7072 63.569 47.7072C63.9278 48.6043 63.9278 48.6043 64.0444 48.9509C64.0709 49.0293 64.0974 49.1077 64.1247 49.1886C64.1662 49.3126 64.1662 49.3126 64.2086 49.4391C64.2386 49.5278 64.2685 49.6165 64.2993 49.7079C64.3634 49.8978 64.4274 50.0877 64.4913 50.2776C64.6611 50.782 64.8315 51.2861 65.0022 51.7902C65.0279 51.8661 65.0279 51.8661 65.0541 51.9436C65.3722 52.8832 65.6978 53.8201 66.0266 54.756C66.6089 56.4148 67.1639 58.0821 67.7165 59.751C67.9797 60.5406 68.2429 61.3302 68.5141 62.1438C66.3558 62.1438 64.1975 62.1438 61.9738 62.1438C61.7042 61.335 61.7042 61.335 61.6239 61.0299C61.6067 60.9646 61.5894 60.8993 61.5717 60.8319C61.5547 60.7664 61.5377 60.7008 61.5201 60.6333C61.4932 60.5318 61.4932 60.5318 61.4658 60.4281C61.3357 59.9312 61.3357 59.9312 61.3357 59.751C59.8354 59.751 58.3351 59.751 56.7893 59.751C56.7499 60.0668 56.7499 60.0668 56.7096 60.389C56.6817 60.5249 56.6513 60.6603 56.6174 60.7947C56.6 60.8639 56.5826 60.9331 56.5647 61.0044C56.5467 61.0744 56.5287 61.1444 56.5102 61.2166C56.4832 61.3244 56.4832 61.3244 56.4557 61.4343C56.322 61.9618 56.322 61.9618 56.231 62.1438C54.0727 62.1438 51.9144 62.1438 49.6907 62.1438C50.8018 58.7177 50.8018 58.7177 51.2709 57.3482C51.3248 57.1903 51.3787 57.0323 51.4326 56.8744C51.8182 55.7456 52.2109 54.6193 52.606 53.4937C52.8866 52.6941 53.1626 51.8932 53.4294 51.0889C53.4547 51.0127 53.48 50.9365 53.506 50.8581C53.6266 50.4939 53.7466 50.1296 53.8658 49.7649C53.9092 49.6333 53.9525 49.5016 53.9959 49.37C54.0144 49.3125 54.033 49.2551 54.0521 49.1959C54.2211 48.6843 54.4264 48.2097 54.6358 47.7072ZM59.0226 51.1368C58.8665 51.7386 58.7105 52.3404 58.5547 52.9422C58.4823 53.2216 58.4099 53.5011 58.3374 53.7804C58.2675 54.0499 58.1977 54.3193 58.1279 54.5888C58.0882 54.7421 58.0484 54.8953 58.0086 55.0486C57.9727 55.1875 57.9727 55.1875 57.9361 55.3292C57.9148 55.4112 57.8936 55.4932 57.8717 55.5777C57.8231 55.7441 57.8231 55.7441 57.8262 55.8427C58.6422 55.8427 59.4581 55.8427 60.2988 55.8427C60.23 55.2916 60.23 55.2916 60.1148 54.7588C60.0941 54.6774 60.0733 54.596 60.0519 54.5121C60.0296 54.4265 60.0074 54.3408 59.9844 54.2525C59.9615 54.1631 59.9386 54.0737 59.915 53.9816C59.8423 53.6979 59.7689 53.4144 59.6956 53.1309C59.646 52.9378 59.5964 52.7447 59.5468 52.5517C59.4257 52.0799 59.3041 51.6084 59.1822 51.1368C59.1295 51.1368 59.0769 51.1368 59.0226 51.1368Z" fill="#113065"/>
<path d="M10.9455 44.8993C11.0586 44.8985 11.0586 44.8985 11.1739 44.8976C13.4696 44.8843 15.8668 44.8885 18.0258 45.7929C17.9916 46.6529 17.9268 47.5098 17.847 48.3667C17.8366 48.4784 17.8265 48.5902 17.8166 48.702C17.8023 48.8613 17.7871 49.0204 17.7719 49.1796C17.7632 49.2723 17.7545 49.3651 17.7456 49.4607C17.7099 49.6818 17.661 49.8295 17.5473 50.0202C17.4776 49.9942 17.4079 49.9681 17.336 49.9413C16.5378 49.6577 15.754 49.4935 14.9152 49.3821C14.8375 49.3715 14.7597 49.3609 14.6796 49.35C12.7735 49.1366 10.5272 49.2715 8.90855 50.3863C8.17487 50.9757 7.81945 51.8251 7.65699 52.732C7.56187 54.0609 7.61396 55.3046 8.4546 56.401C9.47569 57.5358 11.0508 57.9067 12.5224 57.9962C14.2547 58.0768 15.9011 57.9102 17.5473 57.3581C17.6262 57.3318 17.7052 57.3055 17.7866 57.2784C18.017 59.3226 18.017 59.3226 18.1206 60.3292C18.1272 60.3921 18.1339 60.4551 18.1408 60.52C18.1768 60.8772 18.1915 61.2263 18.1854 61.5854C14.2072 62.9043 8.99986 63.0044 5.17989 61.1201C3.30386 60.1438 1.88654 58.5637 1.19641 56.5605C0.498456 54.2429 0.612357 51.6315 1.74476 49.4718C1.99813 49.006 2.2887 48.589 2.63209 48.1857C2.69132 48.1067 2.75054 48.0278 2.81155 47.9464C4.48043 45.9849 7.46181 45.165 9.91811 44.9315C10.2606 44.9056 10.6022 44.901 10.9455 44.8993Z" fill="#113065"/>
<path d="M162.472 47.7072C166.894 47.7072 171.316 47.7072 175.872 47.7072C175.872 48.9442 175.872 50.1813 175.872 51.4559C173.529 51.4559 171.187 51.4559 168.773 51.4559C168.773 51.9823 168.773 52.5087 168.773 53.0511C170.958 53.0511 173.142 53.0511 175.393 53.0511C175.393 54.2882 175.393 55.5253 175.393 56.7998C173.208 56.7998 171.024 56.7998 168.773 56.7998C168.773 57.3262 168.773 57.8527 168.773 58.395C171.168 58.395 173.563 58.395 176.031 58.395C176.031 59.6321 176.031 60.8692 176.031 62.1438C171.557 62.1438 167.082 62.1438 162.472 62.1438C162.472 57.3797 162.472 52.6156 162.472 47.7072Z" fill="#113065"/>
<path d="M35.2541 47.7072C39.676 47.7072 44.0979 47.7072 48.6538 47.7072C48.6538 48.9442 48.6538 50.1813 48.6538 51.4559C46.3112 51.4559 43.9687 51.4559 41.5551 51.4559C41.5551 51.9823 41.5551 52.5087 41.5551 53.0511C43.7398 53.0511 45.9244 53.0511 48.1752 53.0511C48.1752 54.2882 48.1752 55.5253 48.1752 56.7998C45.9906 56.7998 43.806 56.7998 41.5551 56.7998C41.5551 57.3262 41.5551 57.8527 41.5551 58.395C43.9503 58.395 46.3455 58.395 48.8133 58.395C48.8133 59.6321 48.8133 60.8692 48.8133 62.1438C44.3388 62.1438 39.8642 62.1438 35.2541 62.1438C35.2541 57.3797 35.2541 52.6156 35.2541 47.7072Z" fill="#113065"/>
<path d="M142.292 47.7072C144.451 47.7072 146.609 47.7072 148.833 47.7072C148.981 48.2888 149.129 48.8704 149.281 49.4697C149.377 49.8437 149.472 50.2177 149.567 50.5918C149.717 51.1822 149.868 51.7726 150.018 52.363C150.816 55.4999 150.816 55.4999 151.624 58.6343C151.794 58.1462 151.938 57.6565 152.064 57.1554C152.082 57.0829 152.101 57.0104 152.12 56.9357C152.18 56.6974 152.241 56.459 152.301 56.2206C152.344 56.0521 152.386 55.8836 152.429 55.7152C152.542 55.2712 152.655 54.8272 152.767 54.3832C152.946 53.6788 153.125 52.9745 153.304 52.2702C153.365 52.0283 153.426 51.7864 153.487 51.5444C153.813 50.2622 154.155 48.9857 154.496 47.7072C156.654 47.7072 158.812 47.7072 161.036 47.7072C160.946 48.2454 160.946 48.2454 160.855 48.5017C160.835 48.5597 160.814 48.6176 160.793 48.6773C160.771 48.7392 160.749 48.8011 160.726 48.8649C160.703 48.9312 160.679 48.9975 160.655 49.0658C160.605 49.2092 160.554 49.3525 160.503 49.4958C160.365 49.8833 160.229 50.2714 160.093 50.6595C160.065 50.7394 160.037 50.8192 160.008 50.9014C159.731 51.6949 159.465 52.4922 159.202 53.2904C158.803 54.4954 158.391 55.695 157.971 56.8923C157.527 58.1549 157.1 59.4226 156.68 60.6933C156.658 60.761 156.636 60.8288 156.613 60.8986C156.571 61.0246 156.529 61.1506 156.488 61.2766C156.391 61.5706 156.286 61.8559 156.171 62.1438C153.196 62.1438 150.222 62.1438 147.158 62.1438C146.531 60.3589 145.907 58.5748 145.303 56.7821C145.209 56.5021 145.114 56.2222 145.02 55.9422C145.001 55.886 144.982 55.8298 144.962 55.7718C144.924 55.6589 144.886 55.5459 144.848 55.433C144.791 55.2667 144.735 55.1003 144.679 54.934C144.374 54.0299 144.067 53.1265 143.758 52.2236C143.714 52.0958 143.671 51.968 143.627 51.8402C143.432 51.2703 143.237 50.7006 143.04 50.1315C142.948 49.8679 142.857 49.6042 142.766 49.3405C142.703 49.158 142.639 48.9756 142.576 48.7931C142.538 48.6839 142.5 48.5747 142.463 48.4655C142.43 48.3706 142.397 48.2757 142.363 48.178C142.292 47.9464 142.292 47.9464 142.292 47.7072Z" fill="#113065"/>
<path d="M19.9401 47.7072C22.0194 47.7072 24.0988 47.7072 26.2412 47.7072C26.2412 51.1552 26.2412 54.6032 26.2412 58.1558C28.7416 58.1558 31.2421 58.1558 33.8184 58.1558C33.8184 59.4718 33.8184 60.7878 33.8184 62.1438C29.2386 62.1438 24.6587 62.1438 19.9401 62.1438C19.9401 57.3797 19.9401 52.6156 19.9401 47.7072Z" fill="#113065"/>
</g>
<path d="M2.20358 69.4856C6.4409 69.4856 6.4409 69.4856 7.23032 70.1761C7.55894 70.5268 7.70819 70.8682 7.72815 71.3551C7.70781 71.8871 7.53249 72.2267 7.16067 72.6038C7.05577 72.6859 6.94954 72.7665 6.84086 72.8436C6.9365 72.8848 7.03214 72.9261 7.13069 72.9685C7.58001 73.194 7.85794 73.5046 8.07013 73.958C8.19813 74.5852 8.13097 75.0986 7.77999 75.6354C7.30767 76.239 6.69667 76.4157 5.96137 76.5215C5.66097 76.5406 5.36219 76.5403 5.06128 76.5371C4.98821 76.5369 4.91515 76.5368 4.83986 76.5366C4.57074 76.5358 4.30162 76.5335 4.03251 76.5315C3.42896 76.5282 2.82542 76.5249 2.20358 76.5215C2.20358 74.1996 2.20358 71.8778 2.20358 69.4856ZM3.16302 70.3651C3.16302 71.0775 3.16302 71.7898 3.16302 72.5238C3.48153 72.5275 3.79999 72.5307 4.11851 72.5326C4.27942 72.5338 4.44033 72.5358 4.60124 72.5379C5.62283 72.5565 5.62283 72.5565 6.52104 72.124C6.69568 71.8214 6.76195 71.6248 6.75591 71.2745C6.67017 70.9659 6.59659 70.8223 6.36114 70.6049C5.73964 70.2806 5.08395 70.3382 4.40229 70.3501C4.28195 70.3513 4.1616 70.3524 4.04125 70.3534C3.74846 70.3558 3.45582 70.3605 3.16302 70.3651ZM3.16302 73.3233C3.16302 74.1149 3.16302 74.9064 3.16302 75.7219C3.52418 75.7275 3.88519 75.7322 4.24637 75.7351C4.36888 75.7363 4.49139 75.7379 4.61388 75.74C5.79929 75.7794 5.79929 75.7794 6.84086 75.2872C7.07092 74.9924 7.19224 74.7917 7.15567 74.4127C7.09958 74.0295 6.9776 73.8228 6.68095 73.5632C5.98358 73.2394 5.26926 73.2963 4.51722 73.3083C4.38569 73.3096 4.25415 73.3106 4.12261 73.3116C3.8027 73.314 3.48294 73.3187 3.16302 73.3233Z" fill="#2775B3"/>
<path d="M91.1113 69.4856C92.3106 69.4856 92.3106 69.4856 92.6011 69.7323C92.7043 69.8956 92.7043 69.8956 92.8003 70.0752C92.878 70.2011 92.9559 70.3269 93.0339 70.4525C93.0725 70.5177 93.1111 70.5828 93.1509 70.6499C93.343 70.9642 93.5614 71.258 93.7798 71.5544C93.8667 71.6745 93.9537 71.7946 94.0405 71.9148C94.3664 72.3631 94.6959 72.8088 95.0253 73.2546C95.9685 74.5326 95.9685 74.5326 96.3882 75.1623C96.4146 73.289 96.441 71.4157 96.4682 69.4856C96.7848 69.4856 97.1014 69.4856 97.4276 69.4856C97.4276 71.8074 97.4276 74.1293 97.4276 76.5215C96.2283 76.5215 96.2283 76.5215 95.9029 76.2398C95.8174 76.1131 95.7361 75.9836 95.6587 75.8519C95.5661 75.7114 95.4736 75.571 95.381 75.4305C95.3359 75.3588 95.2907 75.2872 95.2442 75.2133C95.0378 74.8914 94.8109 74.5856 94.5843 74.2778C94.4985 74.159 94.4128 74.0401 94.3273 73.9211C94.065 73.5568 93.8025 73.1927 93.5399 72.8286C93.5017 72.7756 93.4635 72.7226 93.4242 72.6679C93.0031 72.0843 92.5763 71.5052 92.1507 70.9247C92.1243 72.7717 92.0979 74.6186 92.0708 76.5215C91.7542 76.5215 91.4375 76.5215 91.1113 76.5215C91.1113 74.1996 91.1113 71.8778 91.1113 69.4856Z" fill="#2775B3"/>
<path d="M77.2794 69.4856C78.4787 69.4856 78.4787 69.4856 78.7692 69.7323C78.8724 69.8956 78.8724 69.8956 78.9684 70.0752C79.0461 70.2011 79.124 70.3269 79.202 70.4525C79.2406 70.5177 79.2792 70.5828 79.319 70.6499C79.5111 70.9642 79.7295 71.258 79.9479 71.5544C80.0348 71.6745 80.1218 71.7946 80.2086 71.9148C80.5345 72.3631 80.864 72.8088 81.1934 73.2546C82.1366 74.5326 82.1366 74.5326 82.5563 75.1623C82.5827 73.289 82.6091 71.4157 82.6363 69.4856C82.9529 69.4856 83.2695 69.4856 83.5957 69.4856C83.5957 71.8074 83.5957 74.1293 83.5957 76.5215C82.3964 76.5215 82.3964 76.5215 82.071 76.2398C81.9855 76.1131 81.9042 75.9836 81.8267 75.8519C81.7342 75.7114 81.6417 75.571 81.5491 75.4305C81.5039 75.3588 81.4588 75.2872 81.4123 75.2133C81.2059 74.8914 80.979 74.5856 80.7524 74.2778C80.6666 74.159 80.5809 74.0401 80.4953 73.9211C80.2331 73.5568 79.9706 73.1927 79.708 72.8286C79.6698 72.7756 79.6316 72.7226 79.5923 72.6679C79.1712 72.0843 78.7444 71.5052 78.3188 70.9247C78.2924 72.7717 78.266 74.6186 78.2389 76.5215C77.9222 76.5215 77.6056 76.5215 77.2794 76.5215C77.2794 74.1996 77.2794 71.8778 77.2794 69.4856Z" fill="#2775B3"/>
<path d="M107.022 69.7254C107.033 70.3194 107.033 70.3194 106.942 70.6049C106.845 70.5818 106.747 70.5588 106.647 70.535C105.145 70.2058 103.599 70.0763 102.245 70.9397C101.784 71.2925 101.493 71.8104 101.345 72.3639C101.264 73.271 101.335 74.041 101.905 74.7825C102.474 75.3856 103.312 75.6857 104.127 75.7356C104.366 75.7404 104.604 75.7398 104.843 75.7369C104.924 75.7369 105.005 75.7368 105.089 75.7368C105.46 75.7346 105.776 75.7153 106.142 75.642C106.169 74.9296 106.195 74.2172 106.222 73.4832C105.457 73.4832 104.692 73.4832 103.904 73.4832C103.904 73.2194 103.904 72.9555 103.904 72.6837C104.986 72.6837 106.067 72.6837 107.182 72.6837C107.182 73.871 107.182 75.0583 107.182 76.2816C105.648 76.793 103.813 76.8901 102.305 76.2016C101.362 75.7133 100.719 75.033 100.38 74.0273C100.144 73.0567 100.255 72.0842 100.731 71.2111C101.316 70.2575 102.208 69.7874 103.269 69.4956C104.542 69.24 105.775 69.4284 107.022 69.7254Z" fill="#2775B3"/>
<path d="M34.6645 69.7254C34.6759 70.3194 34.6759 70.3194 34.5846 70.6049C34.4873 70.5818 34.39 70.5588 34.2897 70.535C32.7874 70.2058 31.242 70.0763 29.8873 70.9397C29.4267 71.2925 29.1359 71.8104 28.9878 72.3639C28.9062 73.271 28.9775 74.041 29.5475 74.7825C30.1164 75.3856 30.9542 75.6857 31.7698 75.7356C32.0087 75.7404 32.2469 75.7398 32.4858 75.7369C32.5669 75.7369 32.648 75.7368 32.7316 75.7368C33.1023 75.7346 33.4181 75.7153 33.785 75.642C33.8114 74.9296 33.8378 74.2172 33.865 73.4832C33.0998 73.4832 32.3347 73.4832 31.5463 73.4832C31.5463 73.2194 31.5463 72.9555 31.5463 72.6837C32.6281 72.6837 33.7099 72.6837 34.8244 72.6837C34.8244 73.871 34.8244 75.0583 34.8244 76.2816C33.2902 76.793 31.4554 76.8901 29.9473 76.2016C29.005 75.7133 28.3615 75.033 28.0222 74.0273C27.787 73.0567 27.8971 72.0842 28.3738 71.2111C28.9585 70.2575 29.8507 69.7874 30.9117 69.4956C32.1849 69.24 33.4178 69.4284 34.6645 69.7254Z" fill="#2775B3"/>
<path d="M131.488 69.4856C135.778 69.4856 135.778 69.4856 136.647 70.3107C137.049 70.7691 137.139 71.2079 137.114 71.8127C137.039 72.3949 136.75 72.7355 136.324 73.12C136.037 73.2981 135.728 73.3867 135.405 73.4832C135.962 74.2351 136.529 74.9772 137.117 75.7054C137.152 75.749 137.187 75.7926 137.223 75.8376C137.318 75.9545 137.415 76.0702 137.512 76.1857C137.644 76.3616 137.644 76.3616 137.644 76.5215C137.264 76.615 136.895 76.6672 136.525 76.5215C135.949 76.0514 135.544 75.32 135.171 74.6869C134.779 74.0252 134.779 74.0252 134.133 73.6572C133.556 73.5759 133.039 73.6134 132.447 73.6432C132.447 74.593 132.447 75.5428 132.447 76.5215C132.13 76.5215 131.814 76.5215 131.488 76.5215C131.488 74.1996 131.488 71.8778 131.488 69.4856ZM132.447 70.3651C132.447 71.183 132.447 72.0009 132.447 72.8436C132.773 72.8469 133.1 72.8502 133.436 72.8536C133.588 72.8558 133.588 72.8558 133.743 72.858C134.539 72.8619 135.34 72.8383 135.965 72.284C136.188 71.9341 136.194 71.5658 136.125 71.1646C135.925 70.77 135.638 70.5579 135.221 70.4109C134.72 70.3044 134.196 70.3412 133.686 70.3501C133.566 70.3513 133.446 70.3524 133.325 70.3534C133.032 70.3558 132.74 70.3605 132.447 70.3651Z" fill="#2775B3"/>
<path d="M18.9937 69.4856C23.3296 69.4856 23.3296 69.4856 24.6154 70.6549C25.3528 71.4408 25.5092 72.3212 25.4918 73.353C25.4551 74.2439 25.091 74.9376 24.443 75.5389C22.9022 76.783 20.859 76.5215 18.9937 76.5215C18.9937 74.1996 18.9937 71.8778 18.9937 69.4856ZM19.9531 70.3651C19.9531 72.1328 19.9531 73.9006 19.9531 75.7219C22.1013 75.7752 22.1013 75.7752 23.9408 74.8325C24.4938 74.222 24.5761 73.4623 24.5411 72.6687C24.4752 72.0126 24.2222 71.4346 23.7109 71.0047C22.5447 70.2525 21.3391 70.3651 19.9531 70.3651Z" fill="#2775B3"/>
<path d="M162.589 69.4856C164.278 69.4856 165.967 69.4856 167.706 69.4856C167.706 69.7758 167.706 70.0661 167.706 70.3651C166.334 70.3651 164.962 70.3651 163.549 70.3651C163.549 71.0775 163.549 71.7898 163.549 72.5238C164.842 72.5238 166.134 72.5238 167.466 72.5238C167.466 72.7877 167.466 73.0515 167.466 73.3233C166.174 73.3233 164.881 73.3233 163.549 73.3233C163.549 74.1149 163.549 74.9064 163.549 75.7219C164.947 75.7219 166.345 75.7219 167.786 75.7219C167.786 75.9858 167.786 76.2496 167.786 76.5215C166.071 76.5215 164.356 76.5215 162.589 76.5215C162.589 74.1996 162.589 71.8778 162.589 69.4856Z" fill="#2775B3"/>
<path d="M123.412 69.4856C125.101 69.4856 126.79 69.4856 128.529 69.4856C128.529 69.7758 128.529 70.0661 128.529 70.3651C127.157 70.3651 125.785 70.3651 124.372 70.3651C124.372 71.0775 124.372 71.7898 124.372 72.5238C125.665 72.5238 126.957 72.5238 128.289 72.5238C128.289 72.7877 128.289 73.0515 128.289 73.3233C126.997 73.3233 125.704 73.3233 124.372 73.3233C124.372 74.1149 124.372 74.9064 124.372 75.7219C125.77 75.7219 127.168 75.7219 128.609 75.7219C128.609 75.9858 128.609 76.2496 128.609 76.5215C126.894 76.5215 125.179 76.5215 123.412 76.5215C123.412 74.1996 123.412 71.8778 123.412 69.4856Z" fill="#2775B3"/>
<path d="M60.0096 69.4856C61.6982 69.4856 63.3868 69.4856 65.1266 69.4856C65.1266 69.7758 65.1266 70.0661 65.1266 70.3651C63.7546 70.3651 62.3826 70.3651 60.969 70.3651C60.969 71.0775 60.969 71.7898 60.969 72.5238C62.2619 72.5238 63.5547 72.5238 64.8867 72.5238C64.8867 72.7877 64.8867 73.0515 64.8867 73.3233C63.5939 73.3233 62.301 73.3233 60.969 73.3233C60.969 74.1149 60.969 74.9064 60.969 75.7219C62.3674 75.7219 63.7658 75.7219 65.2065 75.7219C65.2065 75.9858 65.2065 76.2496 65.2065 76.5215C63.4915 76.5215 61.7765 76.5215 60.0096 76.5215C60.0096 74.1996 60.0096 71.8778 60.0096 69.4856Z" fill="#2775B3"/>
<path d="M70.4035 69.4856C70.7729 69.4856 71.1423 69.4856 71.5228 69.4856C71.9369 70.2954 72.3248 71.1123 72.6891 71.9456C73.1981 73.1095 73.7257 74.2634 74.2725 75.4099C74.3089 75.4866 74.3089 75.4866 74.346 75.5649C74.4112 75.7021 74.4766 75.8391 74.5421 75.9762C74.641 76.2016 74.641 76.2016 74.721 76.5215C74.378 76.5215 74.035 76.5215 73.6816 76.5215C73.5911 76.3335 73.5012 76.1452 73.4117 75.9568C73.3864 75.9043 73.361 75.8518 73.3349 75.7977C73.3102 75.7454 73.2854 75.6931 73.26 75.6392C73.226 75.5682 73.226 75.5682 73.1914 75.4958C73.0962 75.258 73.0324 75.0088 72.962 74.7625C71.6692 74.7625 70.3763 74.7625 69.0443 74.7625C68.9652 75 68.886 75.2374 68.8044 75.4821C68.7227 75.6717 68.638 75.8601 68.5496 76.0467C68.5072 76.1367 68.4649 76.2267 68.4212 76.3194C68.3894 76.3861 68.3575 76.4528 68.3247 76.5215C67.9817 76.5215 67.6387 76.5215 67.2853 76.5215C67.4638 75.9268 67.715 75.3771 67.9828 74.8185C68.6147 73.4991 69.2096 72.1641 69.7998 70.8257C69.9977 70.3774 70.1997 69.9312 70.4035 69.4856ZM70.9632 70.445C70.7576 70.8958 70.5527 71.3469 70.3483 71.7982C70.2787 71.9518 70.2089 72.1053 70.1389 72.2587C70.0385 72.479 69.9386 72.6995 69.8388 72.9201C69.8074 72.9889 69.7759 73.0576 69.7434 73.1284C69.7146 73.1924 69.6858 73.2564 69.6561 73.3223C69.6306 73.3786 69.605 73.4349 69.5787 73.4929C69.5104 73.6541 69.5104 73.6541 69.524 73.883C70.5002 73.883 71.4765 73.883 72.4823 73.883C72.3232 73.4057 72.1612 72.9546 71.9567 72.4985C71.9304 72.4392 71.9041 72.3799 71.877 72.3188C71.7942 72.1321 71.711 71.9457 71.6278 71.7593C71.5711 71.6316 71.5144 71.5039 71.4577 71.3762C71.3199 71.0657 71.1816 70.7553 71.0431 70.445C71.0167 70.445 70.9904 70.445 70.9632 70.445Z" fill="#2775B3"/>
<path d="M175.142 69.6455C175.142 69.9357 175.142 70.226 175.142 70.525C175.05 70.5077 174.958 70.4904 174.864 70.4725C173.814 70.2815 172.713 70.0851 171.709 70.555C171.522 70.7022 171.448 70.7753 171.384 71.0047C171.39 71.3383 171.425 71.5129 171.629 71.7793C172.104 72.1531 172.641 72.3414 173.213 72.5188C174.966 73.0862 174.966 73.0862 175.435 73.864C175.638 74.356 175.621 74.9263 175.492 75.4402C175.304 75.8722 174.987 76.1355 174.582 76.3616C173.953 76.6003 173.34 76.6397 172.673 76.6314C172.537 76.6306 172.537 76.6306 172.397 76.6298C171.723 76.6191 171.04 76.5892 170.425 76.2816C170.42 76.165 170.417 76.0484 170.415 75.9318C170.413 75.8669 170.411 75.802 170.409 75.7351C170.425 75.562 170.425 75.562 170.585 75.4021C170.631 75.4185 170.677 75.4349 170.725 75.4518C170.788 75.4733 170.85 75.4949 170.914 75.5171C170.976 75.5384 171.037 75.5597 171.1 75.5817C171.6 75.7294 172.091 75.739 172.608 75.7419C172.68 75.7436 172.752 75.7452 172.826 75.7469C173.398 75.7502 173.936 75.6867 174.387 75.3122C174.55 74.9867 174.571 74.7192 174.502 74.3627C174.134 73.6782 173.297 73.5312 172.602 73.309C171.79 73.0481 170.992 72.7906 170.505 72.0441C170.295 71.494 170.27 70.9831 170.497 70.4385C170.805 69.8993 171.372 69.6579 171.944 69.4856C172.999 69.2593 174.107 69.3857 175.142 69.6455Z" fill="#2775B3"/>
<path d="M120.134 69.6455C120.134 69.9357 120.134 70.226 120.134 70.525C120.042 70.5077 119.951 70.4904 119.856 70.4725C118.807 70.2815 117.705 70.0851 116.701 70.555C116.514 70.7022 116.44 70.7753 116.376 71.0047C116.383 71.3383 116.417 71.5129 116.621 71.7793C117.096 72.1531 117.634 72.3414 118.205 72.5188C119.959 73.0862 119.959 73.0862 120.427 73.864C120.63 74.356 120.613 74.9263 120.484 75.4402C120.297 75.8722 119.979 76.1355 119.575 76.3616C118.945 76.6003 118.333 76.6397 117.666 76.6314C117.529 76.6306 117.529 76.6306 117.39 76.6298C116.715 76.6191 116.032 76.5892 115.417 76.2816C115.413 76.165 115.41 76.0484 115.407 75.9318C115.405 75.8669 115.403 75.802 115.401 75.7351C115.417 75.562 115.417 75.562 115.577 75.4021C115.623 75.4185 115.67 75.4349 115.717 75.4518C115.78 75.4733 115.842 75.4949 115.907 75.5171C115.968 75.5384 116.029 75.5597 116.092 75.5817C116.593 75.7294 117.083 75.739 117.601 75.7419C117.673 75.7436 117.745 75.7452 117.819 75.7469C118.39 75.7502 118.928 75.6867 119.38 75.3122C119.542 74.9867 119.563 74.7192 119.495 74.3627C119.126 73.6782 118.289 73.5312 117.594 73.309C116.782 73.0481 115.984 72.7906 115.497 72.0441C115.287 71.494 115.262 70.9831 115.489 70.4385C115.797 69.8993 116.364 69.6579 116.936 69.4856C117.991 69.2593 119.1 69.3857 120.134 69.6455Z" fill="#2775B3"/>
<path d="M139.483 69.4856C139.852 69.4856 140.222 69.4856 140.602 69.4856C140.659 69.617 140.715 69.7484 140.773 69.8838C141.581 71.7566 142.41 73.6195 143.241 75.4821C143.711 74.4901 144.156 73.4877 144.6 72.4838C145.044 71.48 145.489 70.4776 145.959 69.4856C146.302 69.4856 146.645 69.4856 146.998 69.4856C146.742 70.1525 146.447 70.798 146.147 71.4456C145.567 72.6956 145.001 73.9513 144.447 75.2131C144.397 75.3278 144.346 75.4424 144.296 75.557C144.262 75.6343 144.262 75.6343 144.228 75.7131C144.167 75.8502 144.104 75.986 144.04 76.1217C144.007 76.1988 143.974 76.2759 143.94 76.3553C143.8 76.5215 143.8 76.5215 143.532 76.5605C143.431 76.5559 143.33 76.5512 143.226 76.5464C143.124 76.5428 143.022 76.5392 142.917 76.5355C142.839 76.5309 142.761 76.5262 142.681 76.5215C141.795 74.6245 140.923 72.7228 140.078 70.8072C139.883 70.3651 139.684 69.9251 139.483 69.4856Z" fill="#2775B3"/>
<path d="M159.711 69.6455C159.685 69.9357 159.658 70.2259 159.631 70.525C159.511 70.499 159.511 70.499 159.388 70.4725C158.152 70.2162 156.846 70.106 155.719 70.7992C155.186 71.2042 154.772 71.6901 154.674 72.3639C154.592 73.2744 154.634 74.0664 155.199 74.8224C155.788 75.4516 156.619 75.7121 157.459 75.746C157.592 75.7474 157.724 75.7477 157.857 75.7469C157.926 75.7469 157.996 75.7468 158.067 75.7468C158.557 75.7398 159 75.6744 159.47 75.5267C159.523 75.512 159.576 75.4972 159.631 75.4821C159.711 75.562 159.711 75.562 159.719 75.7447C159.718 75.818 159.717 75.8913 159.716 75.9668C159.715 76.0403 159.715 76.1137 159.714 76.1895C159.713 76.2462 159.712 76.303 159.711 76.3615C158.613 76.8321 156.973 76.7797 155.857 76.3822C154.893 75.9489 154.185 75.3657 153.794 74.3627C153.641 73.9183 153.606 73.5231 153.61 73.0585C153.61 72.9911 153.61 72.9238 153.611 72.8544C153.628 71.9577 153.891 71.208 154.494 70.5272C155.877 69.2182 157.969 69.1682 159.711 69.6455Z" fill="#2775B3"/>
<path d="M49.056 69.6455C49.0296 69.9357 49.0033 70.2259 48.9761 70.525C48.8556 70.499 48.8556 70.499 48.7328 70.4725C47.4967 70.2162 46.1907 70.106 45.0637 70.7992C44.5307 71.2042 44.1166 71.6901 44.019 72.3639C43.9366 73.2744 43.9791 74.0664 44.5437 74.8224C45.1327 75.4516 45.9638 75.7121 46.8039 75.746C46.9366 75.7474 47.0694 75.7477 47.2021 75.7469C47.2716 75.7469 47.341 75.7468 47.4126 75.7468C47.9024 75.7398 48.3452 75.6744 48.8146 75.5267C48.8679 75.512 48.9212 75.4972 48.9761 75.4821C49.056 75.562 49.056 75.562 49.0638 75.7447C49.0629 75.818 49.062 75.8913 49.061 75.9668C49.0603 76.0403 49.0596 76.1137 49.0588 76.1895C49.0579 76.2462 49.057 76.303 49.056 76.3615C47.958 76.8321 46.3185 76.7797 45.2023 76.3822C44.2376 75.9489 43.5298 75.3657 43.1395 74.3627C42.9862 73.9183 42.9514 73.5231 42.9546 73.0585C42.9551 72.9911 42.9555 72.9238 42.956 72.8544C42.9735 71.9577 43.2361 71.208 43.8388 70.5272C45.2225 69.2182 47.3144 69.1682 49.056 69.6455Z" fill="#2775B3"/>
<path d="M51.9344 69.4856C52.251 69.4856 52.5676 69.4856 52.8938 69.4856C52.8938 71.5436 52.8938 73.6016 52.8938 75.7219C54.3713 75.7219 55.8489 75.7219 57.3712 75.7219C57.3712 75.9858 57.3712 76.2496 57.3712 76.5215C55.577 76.5215 53.7829 76.5215 51.9344 76.5215C51.9344 74.1996 51.9344 71.8778 51.9344 69.4856Z" fill="#2775B3"/>
<path d="M10.9185 69.4856C11.2351 69.4856 11.5517 69.4856 11.8779 69.4856C11.8779 71.5436 11.8779 73.6016 11.8779 75.7219C13.3554 75.7219 14.833 75.7219 16.3553 75.7219C16.3553 75.9858 16.3553 76.2496 16.3553 76.5215C14.5611 76.5215 12.767 76.5215 10.9185 76.5215C10.9185 74.1996 10.9185 71.8778 10.9185 69.4856Z" fill="#2775B3"/>
<path d="M149.717 69.4856C150.007 69.4856 150.298 69.4856 150.597 69.4856C150.597 71.8074 150.597 74.1293 150.597 76.5215C150.306 76.5215 150.016 76.5215 149.717 76.5215C149.717 74.1996 149.717 71.8778 149.717 69.4856Z" fill="#2775B3"/>
<path d="M86.8738 69.4856C87.1642 69.4856 87.4545 69.4856 87.7537 69.4856C87.7537 71.8074 87.7537 74.1293 87.7537 76.5215C87.4633 76.5215 87.173 76.5215 86.8738 76.5215C86.8738 74.1996 86.8738 71.8778 86.8738 69.4856Z" fill="#2775B3"/>
<defs>
<radialGradient id="paint0_radial_1_161" cx="0" cy="0" r="1" gradientUnits="userSpaceOnUse" gradientTransform="translate(108.741 16.7335) scale(36.3521 36.3521)">
<stop stop-color="#00ADEE"/>
<stop offset="1" stop-color="#1B75BB"/>
</radialGradient>
<clipPath id="clip0_1_161">
<rect width="57.8551" height="38.1495" fill="white" transform="translate(59.5809)"/>
</clipPath>
<clipPath id="clip1_1_161">
<rect width="176.829" height="26.4804" fill="white" transform="translate(0 41.4858)"/>
</clipPath>
</defs>
</svg>
